<svg width="44" height="44" viewBox="0 0 44 44" fill="none" xmlns="http://www.w3.org/2000/svg">
<path fill-rule="evenodd" clip-rule="evenodd" d="M16.0954 32.7253C27.3748 32.7253 35.1423 26.9184 36.0493 11.5322V8H28.7679C12.442 8 7.0254 15.0644 7 23.8949C7 25.6609 7 29.1931 10.628 32.7253H16.07H16.0954Z" fill="#6AE19F" stroke="#0AA550" stroke-width="1.5" stroke-linecap="round" stroke-linejoin="round"/>
<path d="M22.2077 21.334C15.9044 24.0896 12.1046 28.3228 10.0924 33.6814C10.0475 33.8009 10.0036 33.9209 9.96048 34.0414C9.90575 34.1946 9.85244 34.3486 9.80053 34.5036C9.76479 34.6102 9.72972 34.7173 9.69531 34.8248" stroke="#0AA550" stroke-width="1.5" stroke-linecap="round" stroke-linejoin="round"/>
<path d="M7.96819 38.3845C8.13224 36.8525 8.8341 35.4778 10.1867 33.2057" stroke="#0AA550" stroke-width="2" stroke-linecap="round" stroke-linejoin="round"/>
</svg>
