  <svg width="16" height="18" viewBox="0 0 32 16" fill="none" xmlns="http://www.w3.org/2000/svg">
    <path d="M9.20867 2.01082L10.4409 4.49542C10.6095 4.84115 11.0571 5.17279 11.4349 5.23608L13.6681 5.60999C15.0957 5.85024 15.4316 6.89446 14.4028 7.92462L12.6672 9.67433C12.373 9.97084 12.2126 10.5427 12.3033 10.9518L12.8008 13.1188C13.1926 14.8333 12.2893 15.4967 10.785 14.6013L8.69135 13.352C8.31353 13.1258 7.6904 13.1258 7.30561 13.352L5.21191 14.6013C3.71342 15.4978 2.80319 14.8275 3.19612 13.1188L3.69368 10.9518C3.78436 10.5427 3.62392 9.97084 3.3298 9.67433L1.59417 7.92462C0.572311 6.89446 0.901312 5.85024 2.32889 5.60999L4.56208 5.23608C4.93292 5.17279 5.38165 4.84115 5.54906 4.49542L6.78131 2.01082C7.45325 0.663059 8.54603 0.663059 9.21099 2.01082H9.20867Z" stroke="#555555" stroke-width="1.3" stroke-linecap="round" stroke-linejoin="round"/>
  </svg>