<svg width="55" height="47" viewBox="0 0 55 47" fill="none" xmlns="http://www.w3.org/2000/svg">
<g clip-path="url(#clip0_87_16069)">
<g clip-path="url(#clip1_87_16069)">
<path d="M14.9364 13.1467L17.0945 10.0444L18.1736 12.6068L20.1968 13.4161L22.0851 13.1463L24.1084 14.63L23.0293 16.923L21.141 17.7323L19.3875 22.0485L16.555 23.802V26.3647L14.8015 27.5787L11.1597 26.4996V23.9368L7.78767 20.6997L6.43884 17.7323L4.41562 16.5183L3.74121 14.7649L5.49467 13.2812L7.38302 13.0114L14.9364 13.1467Z" fill="white"/>
<path d="M40.8337 16.923L42.8569 15.3044L44.3406 17.3276L48.1173 18.4067L49.7359 18.5416L49.8708 20.9694H47.7127L47.5778 24.3415L43.8011 27.5787L44.0709 31.3553L43.1267 33.2437L42.722 34.9972L41.5081 35.132L40.0244 34.053L40.5639 32.5693L39.2151 31.8949L38.9454 27.8484C38.5407 27.4438 37.3268 26.095 37.3268 26.095C37.3268 26.095 35.5303 24.9279 35.1257 23.8938L34.4315 21.2039L33.0432 19.9891L34.6291 18.5416L35.4384 18.1369L37.8663 17.7323L40.8337 16.923Z" fill="white"/>
<path d="M34.3101 32.3918L33.4052 32.0384L29.6114 34.608L28.8267 39.7376L28.9672 44.4355H53.6266V35.9928L50.2544 32.6566L44.9853 31.2949L42.3156 35.3801L39.7162 34.6992L35.8536 31.4788L34.3101 32.3918Z" fill="white"/>
<path d="M45.7602 30.9903L43.7832 30.3918V27.4941C44.4935 27.1945 45.1363 26.7697 45.6794 26.2427C46.7971 25.1594 47.4891 23.6622 47.4891 22.0105V20.6515C47.6683 20.7529 47.8847 20.8128 48.1067 20.8128C48.7861 20.8128 49.3425 20.2743 49.3425 19.6152C49.3425 19.5315 49.3362 19.4538 49.3179 19.3755L49.4043 19.3633L50.8192 29.4686C50.9801 30.6179 50.2755 31.6657 49.2195 32.0368L47.6072 31.552L45.7602 30.9889V30.9903Z" fill="#A1BBFF"/>
<path d="M48.972 16.2582L49.4041 19.365L49.3176 19.3772C49.2003 18.8325 48.7001 18.4193 48.1071 18.4193C47.8844 18.4193 47.6688 18.4792 47.4896 18.5806V17.8201H46.2538C45.0862 17.8201 43.9867 17.287 43.2891 16.3835L42.5479 15.4255L41.1639 16.7668C40.4655 17.4436 39.5269 17.8208 38.5384 17.8208H35.1346V18.5813C34.9554 18.4799 34.739 18.4199 34.517 18.4199C33.8805 18.4199 33.3494 18.8931 33.2876 19.4977L33.2012 19.4855L33.6522 16.2589C34.1461 12.6966 37.2844 10.0386 40.9967 10.0386H41.6268C45.3391 10.0386 48.4774 12.6966 48.9713 16.2589L48.972 16.2582Z" fill="#A1BBFF"/>
<path d="M49.9107 37.8453C49.9107 37.8391 49.9107 37.833 49.9044 37.8276C49.7126 37.4681 49.4906 37.1569 49.2433 36.9118C49.1815 36.8519 49.126 36.792 49.0768 36.7321C48.3911 35.9899 47.971 35.0497 47.8663 34.0502L47.6745 32.1887L47.6064 31.5541L45.7594 30.9911L43.7824 30.3926C43.7824 31.1109 43.455 31.7516 42.9422 32.1887C42.5038 32.5598 41.9354 32.7872 41.3115 32.7872C41.9909 32.7872 42.5473 33.3257 42.5473 33.9848C42.5473 34.6439 41.9916 35.1824 41.3115 35.1824C40.6315 35.1824 40.0758 34.6439 40.0758 33.9848C40.0758 33.3257 40.6315 32.7872 41.3115 32.7872C40.6877 32.7872 40.1193 32.5598 39.6809 32.1887C39.1681 31.7516 38.8407 31.1109 38.8407 30.3926L36.8637 30.9911L35.0167 31.5541L34.9486 32.1887L34.7568 34.0502C34.6521 35.0497 34.232 35.9899 33.5463 36.7321C33.4971 36.792 33.4416 36.8519 33.3798 36.9118C33.1325 37.1569 32.9105 37.4687 32.7187 37.8276C32.7123 37.8337 32.7123 37.8398 32.7123 37.8453C32.2985 38.6296 32.0449 39.623 32.0449 40.5694C32.0449 41.9999 32.6196 43.5509 33.4599 44.2991C33.6144 44.4367 33.75 44.5926 33.8673 44.7601H48.7543C48.8717 44.5926 49.008 44.4367 49.1618 44.2991C50.0021 43.5509 50.576 42.0005 50.576 40.5694C50.576 39.6237 50.3231 38.6296 49.9086 37.8453H49.9107Z" fill="#FFBC6E"/>
<path d="M36.8646 30.9902L35.0176 31.5533L33.4053 32.038C32.3487 31.667 31.6447 30.6191 31.8056 29.4699L33.2016 19.4844L33.288 19.4966C33.2816 19.5327 33.2816 19.5742 33.2816 19.6165C33.2816 20.2749 33.8374 20.8141 34.5174 20.8141C34.7401 20.8141 34.9558 20.7542 35.135 20.6527V22.0117C35.135 24.4662 36.6609 26.5735 38.8416 27.4954V30.3931L36.8646 30.9916V30.9902Z" fill="#A1BBFF"/>
<path d="M38.8413 19.6162H37.6055V20.8138H38.8413V19.6162Z" fill="#383838"/>
<path d="M45.019 19.6162H43.7832V20.8138H45.019V19.6162Z" fill="#383838"/>
<path d="M41.3124 24.4056C40.6309 24.4056 40.0766 23.8684 40.0766 23.208H38.8408C38.8408 24.5282 39.9494 25.6026 41.3117 25.6026C42.6739 25.6026 43.7825 24.5282 43.7825 23.208H42.5468C42.5468 23.8684 41.9925 24.4056 41.311 24.4056H41.3124Z" fill="#383838"/>
<path d="M13.991 31.0552L15.3188 45.2375H11.1035L12.4313 31.0552L13.2112 31.6203L13.991 31.0552Z" fill="#FFBC6E"/>
<path d="M18.2904 27.637L16.0211 30.9392L15.2202 30.163L13.2109 28.2157L16.0211 26.854L18.2904 27.637Z" fill="white"/>
<path d="M13.9907 31.0551L15.2202 30.1632L16.0211 30.9394L18.2903 27.6372L21.1918 28.6449C23.988 29.6117 25.8568 32.1785 25.8568 35.0586V45.2374H15.3185L13.9907 31.0551Z" fill="white"/>
<path d="M5.48327 45.2374H0.56543V35.0586C0.56543 32.1785 2.43421 29.6117 5.23035 28.6449L8.13188 27.6372L10.4011 30.9394L11.202 30.1632L12.4315 31.0551L11.1037 45.2374H5.48327Z" fill="white"/>
<path d="M12.4311 31.055L11.2017 30.1631L13.2109 28.2158L15.2202 30.1631L13.9908 31.055L13.2109 31.6201L12.4311 31.055Z" fill="#FFBC6E"/>
<path d="M13.2113 28.2157L11.202 30.163L10.4011 30.9392L8.13184 27.637L10.4011 26.854L13.2113 28.2157Z" fill="white"/>
<path d="M20.2365 13.9179H19.4497C18.2413 13.9179 17.1664 13.1689 16.787 12.0523L16.0212 9.83271C16.0212 12.0864 14.1314 13.9179 11.8059 13.9179H6.18555V12.5561C6.18555 10.677 6.9724 8.97483 8.24401 7.74247C9.51563 6.51012 11.272 5.74756 13.211 5.74756C17.0891 5.74756 20.2365 8.79781 20.2365 12.5561V13.9179Z" fill="#A1BBFF"/>
<path d="M11.6654 15.8242H10.2603V17.1859H11.6654V15.8242Z" fill="#383838"/>
<path d="M17.286 15.8242H15.8809V17.1859H17.286V15.8242Z" fill="#383838"/>
<path d="M17.2857 19.2285H15.8806C15.8806 20.3547 14.935 21.2711 13.773 21.2711C12.611 21.2711 11.6654 20.3547 11.6654 19.2285H10.2603C10.2603 21.1056 11.8361 22.6328 13.773 22.6328C15.7099 22.6328 17.2857 21.1056 17.2857 19.2285Z" fill="#383838"/>
<path d="M50.5418 32.053C51.2064 31.4069 51.5633 30.4857 51.4312 29.5413L49.5842 16.33C49.051 12.4879 45.6303 9.59082 41.6271 9.59082H40.9977C36.9945 9.59082 33.5738 12.4879 33.0406 16.3293L31.1929 29.5413C31.0608 30.4857 31.4184 31.4069 32.083 32.053C29.8068 33.1553 28.3398 35.4049 28.3398 37.9384V44.9117C28.3398 45.2426 28.6166 45.5102 28.9574 45.5102H53.6667C54.0082 45.5102 54.2843 45.242 54.2843 44.9117V37.9384C54.2843 35.4049 52.8187 33.1547 50.5418 32.053ZM49.1788 31.5506L47.8602 31.1509C48.385 30.7117 48.725 30.0697 48.725 29.3459H47.4892C47.4892 30.0064 46.9349 30.5436 46.2534 30.5436H45.8537L44.4001 30.1031V28.0203C46.597 26.9282 48.1068 24.7147 48.1068 22.1622V21.5637C48.4461 21.5637 48.7601 21.4684 49.0341 21.3138L50.2067 29.702C50.3142 30.4714 49.8863 31.2169 49.1788 31.5506ZM47.2518 34.2611C47.3775 35.4771 47.9283 36.6216 48.8051 37.4849C49.4852 38.1488 49.9601 39.4798 49.9601 40.721C49.9601 41.9623 49.4493 43.3825 48.7447 44.0103C48.6414 44.1029 48.5444 44.205 48.451 44.3133H34.1717C34.079 44.205 33.982 44.1029 33.878 44.0103C33.1741 43.3832 32.6633 42.0004 32.6633 40.7217C32.6633 39.4431 33.1383 38.1501 33.8197 37.4842C34.6951 36.6223 35.2459 35.4784 35.3717 34.2624L35.5908 32.1565L38.342 31.3232C38.5584 32.0946 39.0804 32.7373 39.7794 33.1281C39.5771 33.4161 39.4584 33.7627 39.4584 34.1365C39.4584 35.1271 40.2895 35.9326 41.3117 35.9326C42.3339 35.9326 43.165 35.1271 43.165 34.1365C43.165 33.7627 43.0463 33.4154 42.844 33.1281C43.543 32.7373 44.065 32.0946 44.2814 31.3232L47.0326 32.1565L47.2518 34.2624V34.2611ZM41.3124 27.5505C38.2472 27.5505 35.7531 25.1335 35.7531 22.1629V18.5707H38.5423C39.6972 18.5707 40.7827 18.1349 41.5997 17.3431L42.4814 16.4886L42.7955 16.8944C43.6076 17.9436 44.901 18.5707 46.2548 18.5707H46.8724V22.1629C46.8724 25.1335 44.3776 27.5505 41.3124 27.5505ZM39.4591 28.4928C40.0492 28.6555 40.6689 28.7481 41.3124 28.7481C41.9559 28.7481 42.5756 28.6555 43.1657 28.4928V30.5443C43.1657 31.5349 42.3346 32.3404 41.3124 32.3404C40.2902 32.3404 39.4591 31.5349 39.4591 30.5443V28.4928ZM41.9299 34.1358C41.9299 34.466 41.6524 34.7343 41.3124 34.7343C40.9724 34.7343 40.6949 34.4653 40.6949 34.1358C40.6949 33.8062 40.9724 33.5373 41.3124 33.5373C41.6524 33.5373 41.9299 33.8062 41.9299 34.1358ZM48.1075 19.1691C48.4482 19.1691 48.725 19.4381 48.725 19.7676C48.725 20.0972 48.4475 20.3661 48.1075 20.3661V19.1691ZM40.9977 10.7878H41.6271C45.0148 10.7878 47.9093 13.2389 48.3597 16.4893L48.5761 18.0369C48.425 17.9981 48.2697 17.9715 48.1068 17.9715C48.1068 17.6406 47.8299 17.373 47.4892 17.373H46.2534C45.2867 17.373 44.3629 16.9257 43.7826 16.1754L43.0414 15.2174C42.9339 15.0785 42.7695 14.9921 42.591 14.9798C42.414 14.971 42.237 15.0309 42.1105 15.1534L40.7251 16.4961C40.142 17.0612 39.3656 17.373 38.5408 17.373H35.1342C34.7928 17.373 34.5167 17.6413 34.5167 17.9715C34.3537 17.9715 34.1984 17.9987 34.0481 18.0369L34.2644 16.4886C34.7148 13.2382 37.61 10.7878 40.9977 10.7878ZM34.5174 20.3661C34.1766 20.3661 33.8998 20.0972 33.8998 19.7676C33.8998 19.4381 34.1773 19.1691 34.5174 19.1691V20.3661ZM32.4174 29.7013L33.59 21.3132C33.864 21.4677 34.178 21.563 34.5174 21.563V22.1615C34.5174 24.7141 36.0271 26.9275 38.224 28.0196V30.1024L36.7704 30.5429H36.3707C35.6892 30.5429 35.1349 30.0057 35.1349 29.3453H33.8991C33.8991 30.069 34.2391 30.7104 34.7639 31.1502L33.4453 31.5499C32.7378 31.2169 32.3099 30.4707 32.4174 29.7013ZM29.5756 37.9377C29.5756 35.5683 31.1437 33.5019 33.4769 32.7952L34.3101 32.5426L34.1443 34.1412C34.0466 35.0863 33.6195 35.9748 32.9429 36.6407C32.0381 37.5251 31.4297 39.1639 31.4297 40.7204C31.4297 42.0453 31.8603 43.3893 32.5362 44.3126H29.5763L29.5756 37.9377ZM53.0492 44.3119H50.0893C50.7652 43.3893 51.1959 42.0446 51.1959 40.7197C51.1959 39.1639 50.5875 37.5244 49.684 36.642C49.006 35.9741 48.5789 35.0863 48.4812 34.1405L48.3154 32.5426L49.1486 32.7952C51.4818 33.5019 53.0499 35.5683 53.0499 37.9377L53.0492 44.3119Z" fill="#383838"/>
<path d="M21.8524 27.5963L17.1453 25.9623V24.2601C19.4427 23.1163 21.0796 20.8899 21.3255 18.2754H21.3606C22.9133 18.2754 24.1708 17.0566 24.1708 15.5519C24.1708 14.0472 22.9133 12.8285 21.3606 12.8285V12.1477C21.3606 8.01484 17.8971 4.6582 13.6326 4.6582C9.36813 4.6582 5.90457 8.01484 5.90457 12.1477V12.8285C4.35194 12.8285 3.09437 14.0472 3.09437 15.5519C3.09437 17.0566 4.35194 18.2754 5.90457 18.2754H5.9397C6.18559 20.8899 7.82253 23.1163 10.1199 24.2601V25.9623L5.41279 27.5963C2.34265 28.6585 0.28418 31.4909 0.28418 34.65V44.8289C0.28418 45.2033 0.600327 45.5097 0.986728 45.5097H26.2785C26.6649 45.5097 26.981 45.2033 26.981 44.8289V34.65C26.981 31.4909 24.9226 28.6585 21.8524 27.5963ZM21.3606 14.1902C22.1334 14.1902 22.7657 14.803 22.7657 15.5519C22.7657 16.3009 22.1334 16.9137 21.3606 16.9137V14.1902ZM5.90457 16.9137C5.13177 16.9137 4.49947 16.3009 4.49947 15.5519C4.49947 14.803 5.13177 14.1902 5.90457 14.1902V16.9137ZM17.6301 27.5759L16.3304 29.4619L14.8199 27.9912L16.492 27.1878L17.6301 27.5759ZM13.6326 27.0448L11.525 26.0236V24.7912C12.1994 24.9818 12.902 25.084 13.6326 25.084C14.3633 25.084 15.0658 24.9818 15.7403 24.7912V26.0236L13.6326 27.0448ZM14.574 29.6798L13.6326 30.3606L12.6912 29.6798L13.6326 28.7674L14.574 29.6798ZM7.30967 12.1477C7.30967 8.77059 10.148 6.01992 13.6326 6.01992C17.1172 6.01992 19.9555 8.77059 19.9555 12.1477V12.8285H19.8712C18.9649 12.8285 18.164 12.2702 17.876 11.4327L17.1102 9.20634C16.9978 8.89315 16.6676 8.7025 16.3304 8.75016C15.9932 8.80463 15.7403 9.09059 15.7403 9.42421C15.7403 11.3034 14.1665 12.8285 12.2275 12.8285H7.30967V12.1477ZM7.30967 17.5945V14.1902H12.2275C14.0612 14.1902 15.663 13.2166 16.506 11.7664L16.5412 11.8617C17.0189 13.2575 18.3608 14.1902 19.8712 14.1902H19.9555V17.5945C19.9555 20.9716 17.1172 23.7223 13.6326 23.7223C10.148 23.7223 7.30967 20.9716 7.30967 17.5945ZM10.7732 27.1878L12.4453 27.9912L10.9348 29.4619L9.6351 27.5759L10.7732 27.1878ZM10.8856 44.148H6.60712V33.2543H5.20202V44.148H1.68928V34.65C1.68928 32.0628 3.37539 29.7479 5.88349 28.8764L8.27216 28.0525L10.2393 30.9053C10.3517 31.0755 10.5414 31.1913 10.7522 31.2117H10.8224C11.0051 31.2117 11.1877 31.1436 11.3212 31.0142L11.6865 30.6534L12.1151 30.9666L10.8856 44.148ZM12.2978 44.148L13.4429 31.8653C13.5061 31.8789 13.5694 31.8926 13.6326 31.8926C13.6958 31.8926 13.7591 31.8789 13.8223 31.8653L14.9674 44.148H12.2978ZM25.5759 44.148H22.0632V33.2543H20.6581V44.148H16.3796L15.1501 30.9666L15.5787 30.6534L15.944 31.0142C16.0775 31.1436 16.2601 31.2117 16.4428 31.2117H16.5131C16.7238 31.1913 16.9135 31.0755 17.0259 30.9053L18.9931 28.0525L21.3817 28.8764C23.8898 29.7479 25.5759 32.0628 25.5759 34.65V44.148Z" fill="#383838"/>
</g>
</g>
<path d="M24.2432 33.5099L21.5781 34.9006L25.4019 37.3335L27.8353 36.6382L31.7751 34.6683L29.9211 33.5098L26.7925 33.7415L24.2432 33.5099Z" fill="#FFBC6E"/>
<path d="M27.1827 24.8662L24.7215 25.1929L23.1877 26.5191L22.3618 28.0864L21.6539 29.0509L21.064 29.6537L21.5335 31.2789L22.4798 31.9444L23.7127 33.5346L25.3988 34.2736H27.3278L29.5566 33.7805L30.8568 31.5827L31.8007 30.4976L32.3906 29.8948L32.2726 29.0509H31.3287L30.7388 26.8808L28.851 25.1929L27.1827 24.8662Z" fill="white"/>
<path d="M26.4032 19.9965C31.0741 19.9965 34.8622 23.7889 34.8622 28.4689V37.4797C34.8622 42.1597 31.0741 45.9521 26.4032 45.9521C21.7323 45.9521 17.9442 42.1597 17.9442 37.4797V28.4689C17.9442 23.7889 21.7323 19.9965 26.4032 19.9965Z" fill="white" stroke="#383838" stroke-width="1.2"/>
<path d="M28.2393 29.7952C28.5693 29.7892 28.8326 29.5192 28.8278 29.1912C28.8229 28.8633 28.5499 28.6017 28.2199 28.6065C27.8899 28.6113 27.6266 28.8826 27.6314 29.2105C27.6375 29.5385 27.9093 29.8001 28.2393 29.7952Z" fill="#383838"/>
<path d="M25.0044 29.9036C25.3345 29.8988 25.5978 29.6276 25.5929 29.2996C25.5881 28.9717 25.3151 28.7101 24.985 28.7149C24.655 28.7209 24.3917 28.991 24.3966 29.3189C24.4014 29.6469 24.6744 29.9085 25.0044 29.9036Z" fill="#383838"/>
<path d="M24.7579 31.1902C24.5443 31.4096 24.5504 31.7605 24.7712 31.9726C25.606 32.7744 27.1894 32.9854 28.2645 32.0944C28.3324 32.0377 28.3991 31.9775 28.4622 31.9124C28.6758 31.6929 28.6697 31.3421 28.4489 31.1299C28.2281 30.9177 27.8786 30.9238 27.6614 31.1432C27.022 31.8039 25.9943 31.6097 25.5453 31.1781C25.3245 30.9659 24.9714 30.9756 24.7579 31.1914V31.1902Z" fill="#383838"/>
<path d="M26.3858 34.4229L23.7452 33.8135L21.6123 35.3373L24.9639 37.8764L31.5654 35.4389L29.1279 34.017L26.3858 34.4229Z" fill="#FFBC6E"/>
<path d="M35.2634 31.3316C35.0547 31.1074 34.698 31.0953 34.476 31.3015L31.5336 34.0069C31.4899 34.0467 31.445 34.0865 31.4001 34.1263C31.047 33.8767 30.6721 33.6862 30.3457 33.5464C30.9281 33.0147 31.3977 32.3588 31.7047 31.6077C31.8199 31.5547 32.0019 31.4558 32.1924 31.2979C32.5661 30.988 32.9702 30.4515 32.9556 29.5823C32.9483 29.1507 32.7433 28.8999 32.5734 28.7661C32.3926 28.6238 32.1839 28.5599 31.9922 28.5346C31.5942 26.5779 30.1419 25.0407 28.2624 24.4608C28.3073 24.4415 28.3497 24.4235 28.3886 24.4102C28.4529 24.3873 28.5111 24.3547 28.5596 24.3137C28.7332 24.1703 28.8072 23.9292 28.7283 23.7049C28.6264 23.4168 28.3085 23.2649 28.0185 23.3661C27.9287 23.3975 27.6314 23.5084 27.3281 23.7025C27.3038 23.3336 27.2383 22.9839 27.1934 22.7778C27.1279 22.4788 26.8318 22.2895 26.5309 22.3546C26.23 22.4197 26.0395 22.7139 26.105 23.0129C26.1972 23.4336 26.2421 23.934 26.2203 24.1859C25.8211 23.8158 25.2581 23.6253 25.1283 23.5843C24.8347 23.4927 24.5216 23.6543 24.4294 23.946C24.3542 24.1835 24.45 24.4319 24.6454 24.5657C22.8496 25.2397 21.4809 26.8106 21.1533 28.7142C20.9641 28.7456 20.7578 28.8167 20.5806 28.9638C20.4144 29.1037 20.2178 29.3605 20.2251 29.7921C20.247 31.1026 21.1958 31.627 21.5416 31.7741C21.8692 32.5083 22.3509 33.1449 22.9418 33.6549C22.4832 33.8309 21.9226 34.0913 21.4761 34.4409L18.74 32.4095C18.4937 32.2262 18.1467 32.2768 17.961 32.5216C17.7766 32.7663 17.8275 33.1135 18.0739 33.2956L23.8676 37.5972L20.4654 38.4653C20.1669 38.5412 19.9873 38.8426 20.065 39.1392C20.1414 39.4358 20.4447 39.6142 20.7432 39.5371L26.1038 38.1687C28.1714 37.6406 30.1067 36.6544 31.7435 35.2969C31.9303 35.1426 32.1123 34.9835 32.2907 34.8183L35.2331 32.1129C35.4588 31.9055 35.4721 31.5547 35.2634 31.3304V31.3316ZM22.4067 30.9314C22.3097 30.6408 21.9942 30.4841 21.703 30.5805H21.7006C21.5368 30.4371 21.3633 30.1947 21.3426 29.8005C21.3972 29.7933 21.4749 29.7933 21.5319 29.8017C21.5477 29.8041 21.5635 29.8041 21.5792 29.8053C21.5889 29.8053 21.5974 29.8089 21.6071 29.8102C21.6168 29.8102 21.6253 29.8102 21.6338 29.8102C21.6399 29.8102 21.6472 29.8102 21.6532 29.8102C21.9396 29.8065 22.1811 29.5883 22.2017 29.299C22.3594 27.1035 24.2547 25.3542 26.5164 25.3168C28.7817 25.2794 30.6903 26.9022 30.9548 29.0916C30.9621 29.1507 30.9803 29.2049 31.0046 29.2568C31.0883 29.5292 31.3673 29.698 31.6525 29.6365C31.6962 29.6269 31.7811 29.6233 31.8406 29.6293C31.8381 30.0935 31.6052 30.3575 31.4232 30.4925C31.1502 30.4419 30.8759 30.5974 30.7898 30.8675C30.2268 32.6409 28.5669 33.8538 26.6595 33.8851C24.7157 33.9177 23.0061 32.7302 22.4055 30.9314H22.4067ZM25.826 37.0969L25.2399 37.2464C25.2169 37.2211 25.1902 37.197 25.161 37.1753L22.414 35.1366C22.9916 34.7749 23.7596 34.5277 24.0678 34.4506C24.0872 34.4458 24.103 34.4373 24.1212 34.4301C24.8941 34.8062 25.7665 35.0064 26.679 34.9919C27.6023 34.9762 28.4784 34.7387 29.2476 34.324C29.426 34.3758 29.972 34.5494 30.4986 34.8617C29.1069 35.9009 27.515 36.6653 25.826 37.0957V37.0969Z" fill="#383838"/>
<defs>
<clipPath id="clip0_87_16069">
<rect width="54" height="45" fill="white" transform="translate(0.28418 0.509766)"/>
</clipPath>
<clipPath id="clip1_87_16069">
<rect width="54" height="45" fill="white" transform="translate(0.28418 0.509766)"/>
</clipPath>
</defs>
</svg>
