<svg width="31" height="17" viewBox="0 0 31 17" fill="none" xmlns="http://www.w3.org/2000/svg">
<path d="M20.7144 8H27.2144" stroke="#1B53E3" stroke-width="1.3" stroke-linecap="round" stroke-linejoin="round"/>
<path d="M20.7144 11H24.4286" stroke="#1B53E3" stroke-width="1.3" stroke-linecap="round" stroke-linejoin="round"/>
<path d="M22.1075 4H24.8926C26.2858 4 26.2858 3.2507 26.2858 2.50002C26.2858 1.00002 25.5898 1 24.8926 1H22.1075C21.4116 1 20.7144 1.00002 20.7144 2.50002C20.7144 4.00001 21.4103 4 22.1075 4Z" stroke="#1B53E3" stroke-width="1.3" stroke-linecap="round" stroke-linejoin="round"/>
<path d="M26.3884 2.93335C28.7939 3.06419 30 3.95738 30 7.27912V11.6395C30 14.5461 29.2782 16 25.6667 16H21.3333C17.7218 16 17 14.5461 17 11.6395V7.27912C17 3.96539 18.2061 3.06419 20.6116 2.93335" stroke="#1B53E3" stroke-width="1.3" stroke-linecap="round" stroke-linejoin="round"/>
<path d="M4.71436 8H11.2144" stroke="#555555" stroke-width="1.3" stroke-linecap="round" stroke-linejoin="round"/>
<path d="M4.71436 11H8.42864" stroke="#555555" stroke-width="1.3" stroke-linecap="round" stroke-linejoin="round"/>
<path d="M6.10753 4H8.89261C10.2858 4 10.2858 3.2507 10.2858 2.50002C10.2858 1.00002 9.58984 1 8.89261 1H6.10753C5.41158 1 4.71436 1.00002 4.71436 2.50002C4.71436 4.00001 5.4103 4 6.10753 4Z" stroke="#555555" stroke-width="1.3" stroke-linecap="round" stroke-linejoin="round"/>
<path d="M10.3884 2.93335C12.7939 3.06419 14 3.95738 14 7.27912V11.6395C14 14.5461 13.2782 16 9.66667 16H5.33333C1.72178 16 1 14.5461 1 11.6395V7.27912C1 3.96539 2.20606 3.06419 4.61155 2.93335" stroke="#555555" stroke-width="1.3" stroke-linecap="round" stroke-linejoin="round"/>
</svg>
