<svg width="51" height="41" viewBox="0 0 51 41" fill="none" xmlns="http://www.w3.org/2000/svg">
<g clip-path="url(#clip0_87_15982)">
<path d="M30.5911 26.4844C28.7207 27.0727 27.4492 28.8194 27.4492 30.7989V37.6517H36.4105V24.6465L30.5911 26.4844Z" fill="#FFBC6E"/>
<path d="M46.7105 26.4844L40.8911 24.6465V37.6517H49.8524V30.7989C49.8524 28.8201 48.5809 27.0727 46.7105 26.4844Z" fill="#FFBC6E"/>
<path d="M48.3461 18.2913C48.5922 18.6531 48.7325 19.0885 48.7325 19.5579C48.7325 20.8075 47.7297 21.8199 46.4919 21.8199C46.0269 21.8199 45.5956 21.6783 45.2428 21.4355C44.9406 22.3176 44.1116 22.9506 43.1312 22.9506C42.2855 22.9506 41.5519 22.4812 41.1711 21.7803C41.0757 21.8256 40.986 21.8709 40.8912 21.9105V21.9162C40.2025 22.2157 39.4465 22.3856 38.6506 22.3856C37.8547 22.3856 37.0993 22.2157 36.41 21.9162V21.9105C36.3146 21.8709 36.2249 21.8256 36.1301 21.7803C35.7493 22.4812 35.0157 22.9506 34.17 22.9506C33.1896 22.9506 32.3607 22.3176 32.0584 21.4355C31.7056 21.6783 31.2743 21.8199 30.8094 21.8199C29.5716 21.8199 28.5687 20.8075 28.5687 19.5579C28.5687 19.0885 28.709 18.6531 28.9552 18.2913C28.0813 17.9861 27.4487 17.1549 27.4487 16.1652C27.4487 14.9155 28.4516 13.9031 29.6894 13.9031C29.8963 13.9031 30.0926 13.9428 30.2833 13.9937C30.2665 13.7792 30.2497 13.5583 30.2497 13.3381C30.2497 8.65612 34.0135 4.85693 38.6506 4.85693C40.0062 4.85693 41.2889 5.18475 42.4257 5.76174C45.1699 7.1586 47.0522 10.0253 47.0522 13.3387C47.0522 13.559 47.0353 13.7798 47.0185 13.9944C47.2092 13.9434 47.4049 13.9038 47.6125 13.9038C48.8503 13.9038 49.8531 14.9162 49.8531 16.1658C49.8531 17.1555 49.2205 17.9867 48.3467 18.2919L48.3461 18.2913Z" fill="#E1EBFF"/>
<path d="M40.5832 9.47021C38.8468 11.4774 36.1194 12.7723 33.0498 12.7723V16.7301C33.0498 18.9355 34.3044 20.8464 36.13 21.7795C36.2253 21.8248 36.3151 21.8701 36.4098 21.9098V21.9154C37.0985 22.2149 37.8545 22.3848 38.6504 22.3848C39.4463 22.3848 40.2017 22.2149 40.8911 21.9154V21.9098C40.9864 21.8701 41.0762 21.8248 41.1709 21.7795C41.7088 21.5083 42.1906 21.1522 42.61 20.7281C43.6241 19.7044 44.2511 18.2912 44.2511 16.7307V11.0766C42.8007 11.0766 41.4956 10.46 40.5825 9.47084L40.5832 9.47021Z" fill="white"/>
<path d="M40.8911 24.6465L44.2517 28.6049L42.5714 30.3012L44.2517 31.4319L40.8911 37.6517V25.7778V24.6465Z" fill="white"/>
<path d="M38.6514 13.3384V15.6004C38.6514 16.85 39.6542 17.8624 40.892 17.8624H42.012C43.2498 17.8624 44.2526 16.85 44.2526 15.6004V13.3384H38.652H38.6514Z" fill="white"/>
<path d="M40.8913 25.7778V37.6517H36.4106V25.7778C36.4106 27.0274 37.4135 28.0399 38.6513 28.0399C39.8891 28.0399 40.8919 27.0274 40.8919 25.7778H40.8913Z" fill="white"/>
<path d="M33.0498 13.3384V15.6004C33.0498 16.85 34.0526 17.8624 35.2904 17.8624H36.4104C37.6482 17.8624 38.6511 16.85 38.6511 15.6004V13.3384H33.0504H33.0498Z" fill="white"/>
<path d="M36.4104 25.7778V37.6517L33.0498 31.4319L34.7301 30.3012L33.0498 28.6049L36.4104 24.6465V25.7778Z" fill="white"/>
<path d="M36.4105 16.1652C37.0291 16.1652 37.5305 15.659 37.5305 15.0345C37.5305 14.41 37.0291 13.9038 36.4105 13.9038C35.792 13.9038 35.2905 14.41 35.2905 15.0345C35.2905 15.659 35.792 16.1652 36.4105 16.1652Z" fill="#382823"/>
<path d="M40.891 16.1652C41.5096 16.1652 42.011 15.659 42.011 15.0345C42.011 14.41 41.5096 13.9038 40.891 13.9038C40.2724 13.9038 39.771 14.41 39.771 15.0345C39.771 15.659 40.2724 16.1652 40.891 16.1652Z" fill="#382823"/>
<path d="M40.4287 18.7578H39.5218C39.5218 19.2624 39.1148 19.6733 38.615 19.6733C38.1151 19.6733 37.7081 19.2624 37.7081 18.7578H36.8013C36.8013 19.7677 37.6146 20.5888 38.615 20.5888C39.6153 20.5888 40.4287 19.7677 40.4287 18.7578Z" fill="#382823"/>
<path d="M36.3199 27.6671V21.9268L40.7556 21.6662L40.6252 25.8409L40.1033 28.9719L36.3199 27.6671Z" fill="white"/>
<path d="M15.9686 23.4928L10.6198 24.1451L9.83698 24.2758L10.8806 18.7966L8.14102 16.0569L6.83644 12.7955L4.61864 11.8823L3.96637 10.3168L5.40144 9.27311L7.48887 7.96853C8.09763 7.44669 9.31514 6.24648 9.31514 5.62028C9.31514 4.99408 9.57611 3.53276 9.7066 2.88037L12.5767 3.66312L16.6209 3.27169L17.1427 6.40249L19.0996 8.22945L20.2737 8.88135L21.9697 10.3165L21.3174 12.4035L19.23 12.665C18.9256 13.6215 18.2907 15.6651 18.1864 16.187C18.082 16.7088 16.5774 17.7961 15.8381 18.2745L15.9686 23.4928Z" fill="white"/>
<path d="M-36.2148 20.8839C-36.0843 18.9705 -35.7973 14.8828 -35.693 13.8391L-39.8677 12.0127L-44.5642 14.361L-47.1733 14.8828L-46.1296 21.6666L-43.6509 23.4931L-43.9119 26.6241L-44.6946 29.3637L-38.8239 30.6683L-39.4762 23.6235L-36.2148 20.8839Z" fill="white"/>
<path d="M46.8728 25.9415L41.451 24.2281V22.9445C41.9272 23.3063 42.5149 23.5159 43.1313 23.5159C44.1061 23.5159 44.9905 23.0068 45.4948 22.204C45.8083 22.3229 46.1442 22.3852 46.492 22.3852C48.0377 22.3852 49.2923 21.1186 49.2923 19.5581C49.2923 19.2076 49.2306 18.8628 49.1072 18.5457C49.9081 18.0367 50.4123 17.1432 50.4123 16.1654C50.4123 14.6049 49.1577 13.3383 47.612 13.3383C47.612 8.35119 43.5907 4.2915 38.6507 4.2915C33.7108 4.2915 29.6895 8.35119 29.6895 13.3383C28.1438 13.3383 26.8892 14.6049 26.8892 16.1654C26.8892 17.1438 27.3934 18.0373 28.1943 18.5457C28.0709 18.8622 28.0092 19.207 28.0092 19.5581C28.0092 21.1186 29.2638 22.3852 30.8095 22.3852C31.1566 22.3852 31.4926 22.3229 31.8067 22.204C32.3109 23.0068 33.1959 23.5159 34.1701 23.5159C34.7859 23.5159 35.3742 23.307 35.8504 22.9445V24.2281L30.4287 25.9415C28.3114 26.6084 26.8892 28.5596 26.8892 30.7984V37.6511C26.8892 37.962 27.141 38.2168 27.4495 38.2168H49.8526C50.1605 38.2168 50.4129 37.9626 50.4129 37.6511V30.7984C50.4129 28.559 48.9894 26.6084 46.8728 25.9415ZM32.473 37.0861C32.4393 36.5997 32.2878 36.1417 32.0248 35.7516C31.616 35.1412 31.3698 34.3717 31.3698 33.6934C31.3698 32.732 31.8516 31.7485 32.3277 31.2678L31.5325 30.4649C30.9167 31.0922 30.2498 32.3645 30.2498 33.6934C30.2498 34.5925 30.5689 35.5987 31.1012 36.3902C31.2414 36.5934 31.3249 36.8313 31.353 37.0855H28.0092V30.7978C28.0092 29.0561 29.1123 27.5409 30.759 27.0206L34.7186 25.771L32.6238 28.2362C32.4331 28.4621 32.4443 28.7962 32.6518 29.0051L33.8504 30.2094L32.7416 30.9613C32.4954 31.1256 32.4169 31.4421 32.5565 31.7019L35.469 37.0849H32.4723L32.473 37.0861ZM35.8504 35.4351L33.7893 31.6126L35.0383 30.7701C35.1785 30.6795 35.2733 30.5272 35.2901 30.3573C35.3013 30.1874 35.2452 30.0182 35.1274 29.8992L33.8111 28.576L35.8498 26.173L35.8504 35.4351ZM47.1639 14.5427C47.349 14.4917 47.483 14.469 47.612 14.469C48.5363 14.469 49.2923 15.2323 49.2923 16.1654C49.2923 16.8833 48.8386 17.5226 48.1611 17.7542C47.9984 17.8164 47.87 17.9461 47.8139 18.116C47.7578 18.2802 47.7859 18.4664 47.8868 18.6137C48.0719 18.8905 48.1723 19.2133 48.1723 19.5581C48.1723 20.4912 47.4163 21.2545 46.492 21.2545C46.156 21.2545 45.8313 21.1582 45.5565 20.9663C45.4106 20.87 45.2317 20.8417 45.0691 20.8983C44.9008 20.955 44.7724 21.0852 44.7107 21.2488C44.4813 21.9271 43.8425 22.3852 43.1313 22.3852C42.7057 22.3852 42.3136 22.2153 42.0114 21.9384C42.3641 21.7069 42.7001 21.4351 43.0086 21.1299C44.0388 20.0892 44.6552 18.7439 44.7842 17.2961H44.8123C45.4119 17.2961 45.9716 17.0589 46.3972 16.6348C46.8173 16.205 47.0523 15.64 47.0523 15.0347C47.0523 14.8705 47.0355 14.7125 47.0018 14.5596C47.0523 14.5596 47.1078 14.554 47.1639 14.5427ZM36.5503 12.7727C38.096 12.258 39.4797 11.4041 40.5997 10.2678C41.4623 11.0197 42.5486 11.4947 43.691 11.6137V12.7727H36.5503ZM38.0904 13.9034V15.5997C38.0904 16.5329 37.3344 17.2961 36.4101 17.2961H35.2901C34.3658 17.2961 33.6098 16.5329 33.6098 15.5997V13.9034H38.0904ZM39.2104 13.9034H43.691V15.5997C43.691 16.5329 42.935 17.2961 42.0107 17.2961H40.8907C39.9664 17.2961 39.2104 16.5329 39.2104 15.5997V13.9034ZM44.811 16.1654V13.9034C45.4268 13.9034 45.931 14.4124 45.931 15.0341C45.931 15.3336 45.8132 15.6167 45.6007 15.8313C45.3882 16.0465 45.1077 16.1654 44.811 16.1654ZM46.4914 13.3383C46.4914 13.4063 46.4857 13.4742 46.4801 13.5416C46.0713 13.0722 45.4773 12.7727 44.811 12.7727V11.0763C44.811 10.7655 44.5592 10.5107 44.2507 10.5107C43.1644 10.5107 42.1503 10.1262 41.3438 9.42526C42.0045 8.57708 42.4863 7.62696 42.7829 6.62652C45.0067 8.02337 46.4914 10.5056 46.4914 13.3383ZM38.6501 5.4222C39.7589 5.4222 40.8178 5.65941 41.7751 6.0835C41.4897 7.17456 40.9406 8.20962 40.1621 9.09744C38.4538 11.0763 35.861 12.207 33.0489 12.207C32.741 12.207 32.4885 12.4612 32.4885 12.7727C31.8223 12.7727 31.2283 13.0722 30.8194 13.5416C30.8138 13.4736 30.8082 13.4057 30.8082 13.3383C30.8082 8.97348 34.3259 5.4222 38.6501 5.4222ZM32.4892 13.9034V16.1654C32.1925 16.1654 31.912 16.0465 31.6995 15.8319C31.487 15.6173 31.3692 15.3342 31.3692 15.0347C31.3692 14.4124 31.8734 13.9034 32.4892 13.9034ZM34.1695 22.3845C33.4583 22.3845 32.8195 21.9265 32.5901 21.2482C32.5284 21.084 32.4 20.9543 32.2318 20.8977C32.0691 20.8411 31.8846 20.8694 31.7444 20.9657C31.4701 21.1582 31.1448 21.2538 30.8089 21.2538C29.8846 21.2538 29.1285 20.4906 29.1285 19.5575C29.1285 19.2127 29.2295 18.8905 29.414 18.613C29.515 18.4658 29.543 18.2795 29.4869 18.1153C29.4308 17.9454 29.3018 17.8158 29.1398 17.7535C28.4623 17.5213 28.0085 16.8827 28.0085 16.1648C28.0085 15.2316 28.7646 14.4684 29.6889 14.4684C29.8179 14.4684 29.9519 14.4911 30.137 14.542C30.1931 14.5533 30.2492 14.559 30.2996 14.559C30.266 14.7119 30.2492 14.8698 30.2492 15.0341C30.2492 15.6394 30.4841 16.2044 30.9042 16.6342C31.3299 17.0582 31.8902 17.2955 32.4892 17.2955H32.5284C32.6967 19.1951 33.7101 20.8914 35.2951 21.9321C34.9928 22.2146 34.5952 22.3845 34.1695 22.3845ZM40.3304 37.0855H36.9698V28.0217C37.4404 28.3835 38.0169 28.6043 38.6501 28.6043C39.2833 28.6043 39.8599 28.3841 40.3304 28.0217V37.0855ZM40.3304 25.7766C40.3304 26.7098 39.5744 27.473 38.6501 27.473C37.7258 27.473 36.9698 26.7098 36.9698 25.7766V22.7004C37.5189 22.859 38.0842 22.9489 38.6501 22.9489C39.216 22.9489 39.7813 22.8583 40.3304 22.7004V25.7766ZM36.3821 21.2759C35.7158 20.9367 35.1499 20.4617 34.7074 19.896C34.2648 19.3303 33.9457 18.6747 33.7662 17.9681C34.2087 18.2563 34.7298 18.4262 35.2895 18.4262H36.4095C37.3282 18.4262 38.1403 17.9681 38.6501 17.2785C39.1599 17.9681 39.972 18.4262 40.8907 18.4262H42.0107C42.5766 18.4262 43.0971 18.2563 43.534 17.9624C43.3158 18.8502 42.8733 19.6644 42.212 20.3258C41.8312 20.7159 41.3943 21.0324 40.9181 21.2759C39.4952 21.9938 37.805 21.9938 36.3821 21.2759ZM41.451 26.1724L43.4897 28.5754L42.1734 29.8986C42.0556 30.0175 41.9995 30.1868 42.0107 30.3567C42.0276 30.5266 42.1229 30.6788 42.2625 30.7694L43.5115 31.612L41.4504 35.4344L41.451 26.1724ZM49.2923 37.0855H45.9485C45.9765 36.8313 46.0607 36.5934 46.2003 36.3902C46.7326 35.5987 47.0517 34.5919 47.0517 33.6934C47.0517 32.3645 46.3854 31.0922 45.769 30.4649L44.9737 31.2678C45.4499 31.7485 45.9317 32.7326 45.9317 33.6934C45.9317 34.3717 45.6855 35.1412 45.271 35.7516C45.0136 36.1417 44.8621 36.5997 44.8285 37.0861H41.8319L44.7444 31.7032C44.8846 31.4433 44.8061 31.1262 44.5592 30.9626L43.4505 30.2107L44.649 29.0064C44.8559 28.7975 44.8671 28.4634 44.677 28.2375L42.5823 25.7722L46.5418 27.0218C48.1885 27.5422 49.2917 29.0573 49.2917 30.799V37.0867L49.2923 37.0855Z" fill="#382823"/>
<path d="M22.1327 23.3189L17.0718 21.7207L15.657 21.2739V25.0492L16.0684 25.3638C15.2519 25.9553 14.2484 26.3076 13.164 26.3076C12.0795 26.3076 11.076 25.9553 10.2596 25.3638L10.6709 25.0492V21.2739L9.25611 21.7207L4.19523 23.3189C2.11353 23.9733 0.69873 25.9175 0.69873 28.1198V37.6335H25.6292V28.1198C25.6292 25.9175 24.2144 23.9733 22.1327 23.3189Z" fill="#A1BBFF"/>
<path d="M19.3969 4.91444V8.06051C18.0195 8.06051 16.9038 6.93422 16.9038 5.54365V3.80703C16.9038 3.37916 16.4925 3.08343 16.0873 3.21556C15.2148 3.49871 14.2176 3.65601 13.1643 3.65601C12.1109 3.65601 11.1137 3.49871 10.2412 3.21556C9.83604 3.08343 9.42469 3.37916 9.42469 3.80703V5.54365C9.42469 6.93422 8.30905 8.06051 6.93164 8.06051V4.91444C6.93164 2.83174 8.60821 1.13916 10.6712 1.13916H15.6573C17.7203 1.13916 19.3969 2.83174 19.3969 4.91444Z" fill="#E1EBFF"/>
<path d="M15.6572 25.0492L16.0686 25.3638C15.2521 25.9553 14.2486 26.3076 13.1642 26.3076C12.0797 26.3076 11.0762 25.9553 10.2598 25.3638L10.6711 25.0492V21.2739C10.6711 22.6645 11.7868 23.7908 13.1642 23.7908C14.5416 23.7908 15.6572 22.6645 15.6572 21.2739V25.0492Z" fill="white"/>
<path d="M17.4211 22.0101C17.3151 21.9031 17.1967 21.8088 17.072 21.7207C16.0561 21.2991 15.8567 21.2739 15.6572 21.2739V25.0492L16.0686 25.3638L18.1503 26.9368V23.7908C18.1503 23.0986 17.8698 22.4694 17.4211 22.0101Z" fill="white"/>
<path d="M8.90744 22.0101C8.45869 22.4694 8.17822 23.0986 8.17822 23.7908V26.9368L10.2599 25.3638L10.6713 25.0492V21.2739C10.1477 21.2739 9.66158 21.4375 9.25646 21.7207C9.13181 21.8088 9.01339 21.9031 8.90744 22.0101Z" fill="white"/>
<path d="M16.9036 13.7233V14.9817H14.4106C13.725 14.9817 13.1641 14.4154 13.1641 13.7233V12.4648H15.6571C16.3427 12.4648 16.9036 13.0311 16.9036 13.7233Z" fill="#A1BBFF"/>
<path d="M13.1644 12.4648V13.7233C13.1644 14.4154 12.6034 14.9817 11.9178 14.9817H9.4248V13.7233C9.4248 13.0311 9.98574 12.4648 10.6713 12.4648H13.1644Z" fill="#A1BBFF"/>
<path d="M22.3199 22.721L17.3213 21.1417C17.0035 20.9403 16.6544 20.783 16.2805 20.7075V18.6248C18.3185 17.5677 19.7707 15.5102 19.9889 13.094H20.02C20.6869 13.094 21.3102 12.8298 21.7839 12.3579C22.2513 11.8797 22.5131 11.2504 22.5131 10.5772C22.5131 9.18662 21.3975 8.06033 20.02 8.06033V4.91426C20.02 2.4855 18.063 0.509766 15.6572 0.509766H10.6711C8.26534 0.509766 6.3083 2.4855 6.3083 4.91426V8.06033C4.93089 8.06033 3.81525 9.18662 3.81525 10.5772C3.81525 11.2504 4.07702 11.8797 4.54447 12.3579C5.01815 12.8298 5.64141 13.094 6.3083 13.094H6.33946C6.5576 15.5102 8.0098 17.5677 10.0479 18.6248V20.7075C9.67391 20.783 9.32488 20.9403 9.00702 21.1417L4.00846 22.7147C1.65877 23.4572 0.0756836 25.628 0.0756836 28.1197V37.6334C0.0756836 37.9794 0.356151 38.2626 0.698945 38.2626H25.6294C25.9722 38.2626 26.2527 37.9794 26.2527 37.6334V28.1197C26.2527 25.628 24.6696 23.4572 22.3199 22.721ZM20.02 9.31875C20.7056 9.31875 21.2666 9.88505 21.2666 10.5772C21.2666 10.9107 21.1357 11.2253 20.8988 11.4644C20.662 11.7035 20.3504 11.8356 20.02 11.8356V9.31875ZM6.3083 11.8356C5.97797 11.8356 5.66634 11.7035 5.4295 11.4644C5.19266 11.2253 5.06177 10.9107 5.06177 10.5772C5.06177 9.88505 5.62271 9.31875 6.3083 9.31875V11.8356ZM17.527 23.7907V25.6783L16.2805 24.7345V22.01C17.0035 22.268 17.527 22.9727 17.527 23.7907ZM7.55482 4.91426C7.55482 3.17763 8.95092 1.76819 10.6711 1.76819H15.6572C17.3774 1.76819 18.7735 3.17763 18.7735 4.91426V7.31786C18.0505 7.05359 17.527 6.36145 17.527 5.54347V3.80684C17.527 3.40415 17.34 3.0392 17.0222 2.8001C16.6981 2.561 16.2805 2.49179 15.8941 2.61763C14.2237 3.15246 12.1046 3.15246 10.4343 2.61763C10.0479 2.49179 9.63028 2.561 9.30618 2.8001C8.98832 3.0392 8.80134 3.40415 8.80134 3.80684V5.54347C8.80134 6.36145 8.2778 7.05359 7.55482 7.31786V4.91426ZM7.55482 12.4648V8.62662C8.97585 8.33089 10.0479 7.05988 10.0479 5.54347L10.0541 3.81314C11.9675 4.42977 14.3546 4.43606 16.2805 3.80684V5.54347C16.2805 7.05988 17.3525 8.33089 18.7735 8.62662V12.4648C18.7735 15.5857 16.2555 18.1277 13.1642 18.1277C10.0728 18.1277 7.55482 15.5857 7.55482 12.4648ZM13.1642 24.4199C13.8685 24.4199 14.5104 24.1745 15.034 23.7718V25.0491C15.034 25.112 15.0589 25.1686 15.0776 25.2253C13.8809 25.8041 12.4474 25.8041 11.2508 25.2253C11.2695 25.1686 11.2944 25.112 11.2944 25.0491V23.7718C11.8179 24.1745 12.4599 24.4199 13.1642 24.4199ZM11.2944 21.2738V19.1156C11.8927 19.2918 12.516 19.3862 13.1642 19.3862C13.8124 19.3862 14.4356 19.2918 15.034 19.1156V21.2738C15.034 22.312 14.1926 23.1615 13.1642 23.1615C12.1358 23.1615 11.2944 22.312 11.2944 21.2738ZM8.80134 23.7907C8.80134 22.9727 9.32488 22.268 10.0479 22.01V24.7345L8.80134 25.6783V23.7907ZM25.0061 37.0041H21.2666V28.1952H20.02V37.0041H6.3083V28.1952H5.06177V37.0041H1.32221V28.1197C1.32221 26.1817 2.55003 24.4954 4.38242 23.9165L7.7044 22.8657C7.61715 23.1614 7.55482 23.4698 7.55482 23.7907V26.9367C7.55482 27.1758 7.6857 27.3898 7.89761 27.4967C7.98487 27.5408 8.08459 27.5659 8.17808 27.5659C8.30897 27.5659 8.43985 27.5219 8.55204 27.4401L10.2972 26.1188C11.1635 26.6473 12.142 26.9367 13.1642 26.9367C14.1863 26.9367 15.1648 26.6473 16.0312 26.1188L17.7763 27.4401C17.8885 27.5219 18.0194 27.5659 18.1503 27.5659C18.2438 27.5659 18.3435 27.5408 18.4307 27.4967C18.6426 27.3898 18.7735 27.1758 18.7735 26.9367V23.7907C18.7735 23.4698 18.7112 23.1615 18.6239 22.872L21.9459 23.9228C23.7783 24.4954 25.0061 26.1817 25.0061 28.1197V37.0041Z" fill="#382823"/>
<path d="M14.4106 15.6107H16.9037C17.2477 15.6107 17.5269 15.3295 17.5269 14.9815V13.7231C17.5269 12.6824 16.688 11.8354 15.6571 11.8354H10.6711C9.64018 11.8354 8.80127 12.6824 8.80127 13.7231V14.9815C8.80127 15.3295 9.08049 15.6107 9.42453 15.6107H11.9176C12.3981 15.6107 12.8325 15.4213 13.1641 15.1199C13.4957 15.422 13.9301 15.6107 14.4106 15.6107ZM16.2804 13.7231V14.3523H14.4106C14.0672 14.3523 13.7874 14.0704 13.7874 13.7231V13.0939H15.6571C16.0006 13.0939 16.2804 13.3758 16.2804 13.7231ZM11.9176 14.3523H10.0478V13.7231C10.0478 13.3758 10.3276 13.0939 10.6711 13.0939H12.5408V13.7231C12.5408 14.0704 12.261 14.3523 11.9176 14.3523Z" fill="#382823"/>
<path d="M10.6713 11.2063C11.3598 11.2063 11.9179 10.6429 11.9179 9.94788C11.9179 9.25287 11.3598 8.68945 10.6713 8.68945C9.98289 8.68945 9.4248 9.25287 9.4248 9.94788C9.4248 10.6429 9.98289 11.2063 10.6713 11.2063Z" fill="#382823"/>
<path d="M15.6572 11.2063C16.3456 11.2063 16.9037 10.6429 16.9037 9.94788C16.9037 9.25287 16.3456 8.68945 15.6572 8.68945C14.9687 8.68945 14.4106 9.25287 14.4106 9.94788C14.4106 10.6429 14.9687 11.2063 15.6572 11.2063Z" fill="#382823"/>
</g>
<g clip-path="url(#clip1_87_15982)">
<path d="M32.4277 20.6591L29.0801 19.6637C28.9909 19.6376 28.9084 19.6245 28.8324 19.6245C28.5593 19.6245 28.3049 19.7492 28.1518 19.9583L27.7246 20.5404L27.0848 20.1533C26.5045 19.8025 25.846 19.6245 25.1258 19.6245C24.4056 19.6245 23.746 19.8025 23.1668 20.1533L22.527 20.5404L22.0997 19.9583C21.9467 19.7492 21.6923 19.6245 21.4192 19.6245C21.3421 19.6245 21.2628 19.6376 21.167 19.6657L17.815 20.6621C17.2666 20.828 16.8955 21.2945 16.8955 21.8213C16.8955 23.7848 17.1422 25.306 17.2897 26.0379C17.336 26.2671 17.5584 26.435 17.8172 26.435C18.0011 26.435 18.1696 26.3516 18.2687 26.2108C18.2764 26.2008 18.3546 26.0892 18.4845 25.9052L18.653 25.6659L20.0724 23.6531V26.8603C20.0724 27.6274 20.3125 28.3996 20.7475 29.035L21.0128 29.4231L20.732 29.8021C19.6242 31.2991 19.0131 33.2707 19.0131 35.3549C19.0131 36.9454 19.4293 38.549 20.1958 39.9425L20.4178 40.0721L20.6891 40.216H29.8939C30.7606 38.7591 31.2352 37.0449 31.2352 35.3539C31.2352 33.2697 30.6251 31.2981 29.5162 29.8011L29.2354 29.4221L29.5008 29.034C29.9358 28.3986 30.1758 27.6264 30.1758 26.8593V23.6511L31.5952 25.6649C31.8254 25.9917 31.9719 26.1988 31.9807 26.2118C32.0776 26.3496 32.2472 26.434 32.4299 26.434C32.6898 26.434 32.9112 26.2671 32.9574 26.0379C33.105 25.306 33.3516 23.7858 33.3516 21.8213C33.3516 21.2945 32.9783 20.828 32.4244 20.6601L32.4277 20.6591Z" fill="white"/>
<path d="M27.2876 24.514V25.0585C27.2876 25.2871 27.49 25.4719 27.7404 25.4719C27.9907 25.4719 28.1931 25.2871 28.1931 25.0585V24.514C28.1931 24.2854 27.9907 24.1006 27.7404 24.1006C27.49 24.1006 27.2876 24.2854 27.2876 24.514Z" fill="#382823" stroke="#382823" stroke-width="0.5"/>
<path d="M22.6139 24.1006C22.3636 24.1006 22.1611 24.2854 22.1611 24.514V25.0585C22.1611 25.2871 22.3636 25.4719 22.6139 25.4719C22.8642 25.4719 23.0667 25.2871 23.0667 25.0585V24.514C23.0667 24.2854 22.8642 24.1006 22.6139 24.1006Z" fill="#382823" stroke="#382823" stroke-width="0.5"/>
<path d="M32.6881 20.2346L29.3739 19.2498C29.2063 19.2001 29.0485 19.1763 28.8929 19.1763C28.3487 19.1763 27.8698 19.4307 27.5879 19.8152C26.888 19.3919 26.0979 19.1763 25.2304 19.1763C24.363 19.1763 23.5728 19.3909 22.873 19.8152C22.5911 19.4307 22.1111 19.1763 21.568 19.1763C21.4123 19.1763 21.2545 19.2001 21.0858 19.2498L17.7706 20.2356C16.9118 20.4959 16.335 21.2223 16.335 22.0431C16.335 24.0385 16.5864 25.5897 16.7377 26.336C16.8509 26.8935 17.3853 27.2979 18.0089 27.2979C18.4508 27.2979 18.8568 27.0962 19.0962 26.7573C19.1049 26.7444 19.2486 26.5407 19.4761 26.2187V27.0236C19.4761 27.921 19.7525 28.8024 20.2586 29.5417C19.0777 31.1366 18.429 33.2085 18.429 35.4195C18.429 37.3533 19.0135 39.3059 20.0736 40.9207L20.0867 40.9138V40.9207H30.4406V40.8402C31.468 39.2413 32.034 37.3215 32.034 35.4195C32.034 33.2085 31.3864 31.1366 30.2044 29.5417C30.7116 28.8014 30.9869 27.92 30.9869 27.0236V26.2197C31.2133 26.5417 31.357 26.7454 31.3657 26.7583C31.6052 27.0972 32.0111 27.2989 32.453 27.2989C33.0777 27.2989 33.6122 26.8935 33.7243 26.337C33.8745 25.5917 34.127 24.0425 34.127 22.0441C34.127 21.2233 33.5501 20.4969 32.6881 20.2356V20.2346ZM18.2157 26.2396C18.1069 26.3966 17.8032 26.34 17.7662 26.1631C17.6225 25.4486 17.3809 23.963 17.3809 22.0431C17.3809 21.6347 17.6693 21.273 18.0971 21.1438L21.408 20.1591C21.47 20.1412 21.5223 20.1322 21.5669 20.1322C21.8553 20.1322 22.0904 20.3469 22.0904 20.6102C22.0904 20.6927 22.0654 20.7732 22.024 20.8358C22.024 20.8358 18.2614 26.174 18.2146 26.2396H18.2157ZM29.7745 39.9658H28.3704V35.4205H27.3234V39.9658H23.1374V35.4205H22.0904V39.9658H20.6864C19.9027 38.5944 19.4739 37.0015 19.4739 35.4205C19.4739 33.5573 19.9985 31.7497 20.928 30.3585C21.9435 31.4566 23.4139 32.5546 25.2293 32.5546C27.0448 32.5546 28.5152 31.4566 29.5307 30.3585C30.4602 31.7507 30.9848 33.5573 30.9848 35.4205C30.9848 37.0015 30.5559 38.5954 29.7723 39.9658H29.7745ZM29.9399 27.0236C29.9399 27.8375 29.658 28.6325 29.1465 29.2635C28.2834 30.3287 26.9033 31.5977 25.2304 31.5977C23.5576 31.5977 22.1775 30.3277 21.3144 29.2625C20.8028 28.6325 20.5209 27.8375 20.5209 27.0226V24.7331C21.6039 23.1968 22.9089 21.3455 22.9154 21.3366C23.0155 21.1816 23.083 21.0136 23.1146 20.8407C23.7295 20.3638 24.4228 20.1302 25.2304 20.1302C26.038 20.1302 26.7313 20.3628 27.3463 20.8407C27.3789 21.0146 27.4486 21.1856 27.5563 21.3505C27.5563 21.3505 28.858 23.1978 29.9399 24.7321V27.0206V27.0236ZM32.6946 26.1631C32.6587 26.3409 32.3572 26.3966 32.2451 26.2396C32.1994 26.174 28.4466 20.8497 28.4466 20.8497C28.3966 20.7722 28.3704 20.6917 28.3704 20.6092C28.3704 20.3459 28.6055 20.1312 28.894 20.1312C28.9397 20.1312 28.9908 20.1402 29.0529 20.1581L32.3616 21.1418C32.7915 21.272 33.081 21.6337 33.081 22.0421C33.081 23.965 32.8394 25.4486 32.6957 26.1621L32.6946 26.1631Z" fill="#382823" stroke="#382823" stroke-width="0.4"/>
<path d="M24.0521 27.3702L24.2099 27.564C24.4444 27.3732 24.7679 27.2612 25.1258 27.2612C25.4836 27.2612 25.8071 27.3732 26.0416 27.564C26.117 27.6256 26.1598 27.7155 26.1598 27.8115C26.1598 27.9049 26.12 27.9919 26.0386 28.0615C26.0385 28.0615 26.0384 28.0616 26.0383 28.0616L25.3693 28.6293L25.3692 28.6294C25.3059 28.6831 25.2195 28.7157 25.1258 28.7157C25.0309 28.7157 24.9454 28.6835 24.8834 28.6302L24.8834 28.6302L24.8824 28.6294L24.2143 28.0616C24.2143 28.0616 24.2142 28.0616 24.2142 28.0615C24.1329 27.9922 24.0918 27.8993 24.0918 27.8115C24.0918 27.7197 24.1348 27.6254 24.2101 27.5639L24.0521 27.3702ZM24.0521 27.3702C23.9178 27.4797 23.8418 27.6456 23.8418 27.8115C23.8418 27.9774 23.9189 28.1383 24.0521 28.2519H26.2005C26.3338 28.1383 26.4098 27.9834 26.4098 27.8115C26.4098 27.6396 26.3327 27.4787 26.1994 27.3702C25.9153 27.1389 25.5343 27.0112 25.1258 27.0112C24.7172 27.0112 24.3362 27.1389 24.0521 27.3702Z" fill="#382823" stroke="#382823" stroke-width="0.5"/>
</g>
<defs>
<clipPath id="clip0_87_15982">
<rect width="50.3371" height="37.7528" fill="white" transform="translate(0.0756836 0.509766)"/>
</clipPath>
<clipPath id="clip1_87_15982">
<rect width="18" height="22" fill="white" transform="translate(16.126 18.9209)"/>
</clipPath>
</defs>
</svg>
