<svg width="59" height="38" viewBox="0 0 59 38" fill="none" xmlns="http://www.w3.org/2000/svg">
<path d="M20.0109 2.92812V7.36118C20.0109 6.66422 19.4352 6.09448 18.731 6.09448H13.6123C15.5128 6.09448 17.0931 4.72007 17.3936 2.92188L17.4511 2.92812H20.0109Z" fill="#A1BBFF"/>
<path d="M17.4513 1.02734V2.29404C17.4513 2.50945 17.4324 2.71862 17.3937 2.92076C17.0933 4.71896 15.5122 6.09336 13.6125 6.09336H8.49374C7.78953 6.09336 7.21387 6.6631 7.21387 7.36006V4.82666C7.21387 2.73033 8.93535 1.02734 11.0527 1.02734H17.4513Z" fill="#A1BBFF"/>
<path d="M6.92335 6.01074L19.147 6.13379L20.2584 8.23321L22.3575 9.09751L22.9748 10.8261L21.4932 12.6782L19.888 12.9251L19.6411 14.2833L18.9003 16.8762L16.1839 18.4814L16.3074 20.3334L13.4675 21.5682L10.6277 20.3334L11.3685 18.3579L9.39294 17.2466L7.29392 13.2955L6.42962 12.6782L4.33057 10.2088L4.94772 8.60363L7.54063 8.85057L6.92335 6.01074Z" fill="white"/>
<path d="M45.7606 12.4863C46.2687 12.2955 48.0368 11.5071 48.8573 11.1367L50.3661 12.169L53.0658 13.0425C53.1187 14.4982 53.2246 17.489 53.2246 17.8066C53.2246 18.2036 51.7954 20.9826 51.2396 21.1414C50.7949 21.2685 49.8368 21.6708 49.4133 21.8561C49.5986 23.2588 49.985 26.239 50.0485 26.9378C50.1121 27.6365 48.3811 28.0759 47.5077 28.2082C46.7931 27.4936 45.3162 26.0008 45.1256 25.7467C44.9351 25.4927 45.3109 23.3118 45.5226 22.2531C44.3316 21.0885 41.9178 18.68 41.7907 18.3624C41.6637 18.0448 41.6319 14.8952 41.6318 13.3601C42.7964 13.1483 45.2525 12.6771 45.7606 12.4863Z" fill="white"/>
<path d="M18.1018 21.0945V24.9336L15.509 23.1027L15.5413 23.0332H15.4135L13.6211 21.7665L16.1816 20.499L18.1018 21.0945Z" fill="white"/>
<path d="M15.5418 23.0332L15.5095 23.1027L15.4141 23.0332H15.5418Z" fill="#A1BBFF"/>
<path d="M14.2617 25.5674L15.5424 36.9716H11.7012L12.9818 25.5674H14.2617Z" fill="#FFBC6E"/>
<path d="M15.4145 23.0333L13.6221 21.7666L11.8296 23.0333L11.7334 23.1028L12.9817 25.5675H14.2616L15.5099 23.1028L15.4145 23.0333Z" fill="#FFBC6E"/>
<path d="M13.6222 21.7665L11.8297 23.0332H11.7012L11.7335 23.1027L9.14062 24.9336V21.0945L11.0616 20.499L13.6222 21.7665Z" fill="white"/>
<path d="M22.8337 22.5581L18.1029 21.0947V24.9338L15.5101 23.1029L14.2617 25.5676L15.5416 36.9718H26.4241V27.3923C26.4241 25.175 24.9707 23.2176 22.8329 22.5581H22.8337Z" fill="white"/>
<path d="M9.14031 24.9338V21.0947L4.40958 22.5581C2.27172 23.2168 0.818359 25.175 0.818359 27.3923V36.9718H11.7009L12.9815 25.5676L11.7332 23.1029L9.14031 24.9338Z" fill="white"/>
<path d="M11.8297 23.0322L11.7335 23.1017L11.7012 23.0322H11.8297Z" fill="#A1BBFF"/>
<path d="M10.9613 9.87598H9.68457V11.1396H10.9613V9.87598Z" fill="#382823"/>
<path d="M17.3451 9.87598H16.0684V11.1396H17.3451V9.87598Z" fill="#382823"/>
<path d="M16.0678 13.666H14.7911C14.7911 14.3622 14.2186 14.9296 13.5144 14.9296C12.8102 14.9296 12.2377 14.363 12.2377 13.666H10.9609C10.9609 15.0599 12.106 16.1932 13.5144 16.1932C14.9228 16.1932 16.0678 15.0599 16.0678 13.666Z" fill="#382823"/>
<path d="M45.4053 25.8306V37.1114L42.1484 31.2025L43.7769 30.1278L42.1484 28.5162L45.4053 24.7559V25.8306Z" fill="white"/>
<path d="M42.1478 31.2025L45.4046 37.1114H36.7207V30.6008C36.7207 28.7206 37.9525 27.0606 39.7654 26.5018L45.4046 24.7559L42.1478 28.5162L43.7762 30.1278L42.1478 31.2025Z" fill="#FFBC6E"/>
<path d="M49.7471 24.7559L53.0031 28.5162L51.3755 30.1278L53.0031 31.2025L49.7471 37.1114V25.8306V24.7559Z" fill="white"/>
<path d="M58.431 37.1114H49.7471L53.0039 31.2025L51.3755 30.1278L53.0039 28.5162L49.7471 24.7559L55.3863 26.5018C57.1992 27.0606 58.431 28.7206 58.431 30.6008V37.1114Z" fill="#FFBC6E"/>
<path d="M49.7472 25.8301V37.111H45.4053V25.8301C45.4053 27.0172 46.3768 27.9787 47.5762 27.9787C48.7757 27.9787 49.7472 27.0172 49.7472 25.8301Z" fill="white"/>
<path d="M57.8885 17.2349C57.8885 18.1746 57.275 18.9645 56.4288 19.2548C56.6677 19.599 56.8034 20.0118 56.8034 20.4583C56.8034 21.6454 55.8319 22.6069 54.6324 22.6069C54.1821 22.6069 53.7642 22.4727 53.4219 22.2416C53.1286 23.0799 52.3258 23.6816 51.3755 23.6816C50.7242 23.6816 50.1438 23.3967 49.7471 22.9511V22.1558C50.3717 21.8873 50.9355 21.5057 51.4134 21.0335C52.396 20.061 53.004 18.7186 53.004 17.2357V12.9385C51.1476 12.9385 49.5626 12.0737 48.9443 10.8593C49.1233 10.6931 49.2913 10.5206 49.449 10.3379C50.3338 9.34441 50.9529 8.16746 51.2186 6.87891C53.5741 8.15185 55.1757 10.6283 55.1757 13.4754V15.1675C55.3492 15.1191 55.5282 15.0871 55.7183 15.0871C56.9177 15.0871 57.8893 16.0486 57.8893 17.2357L57.8885 17.2349Z" fill="#A1BBFF"/>
<path d="M47.576 5.95488C48.8953 5.95488 50.1381 6.28814 51.2177 6.87896C50.952 8.16829 50.3329 9.34445 49.4481 10.338C49.2904 10.5206 49.1224 10.6923 48.9434 10.8593C47.2606 12.4655 44.8404 13.4755 42.1482 13.4755V17.2358C42.1482 18.7187 42.7562 20.0611 43.7388 21.0335C44.2166 21.5065 44.7805 21.8874 45.405 22.1558V22.9511C45.0092 23.3968 44.428 23.6817 43.7766 23.6817C42.8271 23.6817 42.0236 23.0799 41.7302 22.2417C41.388 22.4727 40.97 22.6069 40.5197 22.6069C39.3203 22.6069 38.3488 21.6454 38.3488 20.4583C38.3488 20.0127 38.4844 19.599 38.7233 19.2548C37.8764 18.9645 37.2637 18.1755 37.2637 17.235C37.2637 16.0479 38.2352 15.0864 39.4346 15.0864C39.6247 15.0864 39.8037 15.1184 39.9772 15.1667V13.4747C39.9772 11.401 40.8297 9.52084 42.2026 8.15658C43.581 6.79779 45.4807 5.9541 47.576 5.9541V5.95488Z" fill="#A1BBFF"/>
<path d="M55.5438 25.9864L50.2895 24.3591V23.9939C50.6262 24.1391 50.9953 24.2194 51.3754 24.2194C52.3201 24.2194 53.1773 23.7363 53.6662 22.973C53.9698 23.0862 54.2955 23.1447 54.6322 23.1447C56.1306 23.1447 57.3458 21.9413 57.3458 20.4591C57.3458 20.1259 57.2858 19.7981 57.1667 19.4976C57.9427 19.0145 58.4316 18.1654 58.4316 17.2358C58.4316 15.7529 57.2156 14.5502 55.7181 14.5502V13.4755C55.7181 9.0331 52.0654 5.41797 47.5768 5.41797C45.4058 5.41797 43.3649 6.25619 41.8177 7.77654C40.2815 9.30782 39.4346 11.3269 39.4346 13.4763V14.551C37.9363 14.551 36.7211 15.7545 36.7211 17.2366C36.7211 18.1661 37.2092 19.0145 37.986 19.4984C37.8669 19.7989 37.807 20.1267 37.807 20.4599C37.807 21.9428 39.023 23.1455 40.5205 23.1455C40.8572 23.1455 41.1829 23.0862 41.4865 22.9738C41.9746 23.7363 42.8326 24.2202 43.7766 24.2202C44.1567 24.2202 44.5257 24.1398 44.8624 23.9947V24.3599L39.6081 25.9872C37.5562 26.6209 36.1777 28.4746 36.1777 30.6013V37.112C36.1777 37.4078 36.4222 37.649 36.7203 37.649H58.4309C58.7297 37.649 58.9734 37.407 58.9734 37.112V30.6013C58.9734 28.4738 57.595 26.6209 55.5431 25.9872L55.5438 25.9864ZM41.589 36.5743C41.5567 36.1122 41.41 35.6775 41.1545 35.3068C40.7586 34.7269 40.5197 33.9964 40.5197 33.3517C40.5197 32.4386 40.9865 31.5036 41.4479 31.047L40.6774 30.2845C40.0804 30.8807 39.4346 32.0897 39.4346 33.3517C39.4346 34.2055 39.7437 35.1616 40.2595 35.914C40.3951 36.1075 40.4763 36.3331 40.5039 36.575H37.2636V30.6013C37.2636 28.9467 38.3329 27.5076 39.9283 27.0127L43.7655 25.8256L41.7357 28.1678C41.5512 28.3825 41.5622 28.6993 41.7625 28.8983L42.9241 30.0425L41.8492 30.7566C41.6103 30.9127 41.5346 31.2132 41.6702 31.4606L44.4926 36.5743H41.589ZM44.8616 35.0055L42.8642 31.374L44.0746 30.5732C44.2103 30.4874 44.3025 30.3422 44.3191 30.1814C44.3301 30.0207 44.2757 29.8591 44.1614 29.7467L42.8862 28.4894L44.8616 26.2065V35.0055ZM47.5752 22.07C44.8829 22.07 42.6907 19.8996 42.6907 17.2358V13.9969C44.9815 13.8837 47.1627 13.0619 48.829 11.6812C49.6105 12.6693 50.9401 13.3249 52.4605 13.4537V17.235C52.4605 19.8996 50.2674 22.0693 47.576 22.0693L47.5752 22.07ZM54.6314 13.4755V15.1676C54.6314 15.3338 54.7127 15.4954 54.8483 15.5976C54.9839 15.6999 55.1574 15.7319 55.3207 15.6835C55.4673 15.646 55.5919 15.6242 55.7165 15.6242C56.6124 15.6242 57.345 16.3492 57.345 17.2358C57.345 17.9179 56.9049 18.5251 56.2488 18.7452C56.0911 18.8046 55.9665 18.9279 55.9121 19.0886C55.8577 19.2447 55.8853 19.4219 55.9823 19.5616C56.1613 19.8246 56.2591 20.1314 56.2591 20.4584C56.2591 21.345 55.5265 22.07 54.6307 22.07C54.305 22.07 53.9903 21.9787 53.7246 21.7961C53.5834 21.7048 53.4099 21.6782 53.2522 21.7313C53.089 21.7852 52.9644 21.9085 52.9044 22.0646C52.6821 22.7092 52.063 23.144 51.3738 23.144C50.9724 23.144 50.5868 22.9879 50.2879 22.7194V22.4938C52.2199 21.5104 53.5448 19.5234 53.5448 17.235V12.9378C53.5448 12.642 53.3003 12.4008 53.0022 12.4008C51.5749 12.4008 50.2777 11.8256 49.6263 10.9452C49.7075 10.8594 49.784 10.779 49.8542 10.6932C50.6412 9.812 51.2169 8.79115 51.5528 7.71723C53.4091 8.97456 54.6314 11.0857 54.6314 13.4755ZM44.8616 22.7202C44.5628 22.9886 44.1779 23.1447 43.7758 23.1447C43.0865 23.1447 42.4675 22.7092 42.2451 22.0654C42.1852 21.9093 42.0606 21.7859 41.8973 21.7321C41.7396 21.6782 41.5606 21.7056 41.425 21.7969C41.1592 21.9795 40.8446 22.0708 40.5189 22.0708C39.6231 22.0708 38.8905 21.3458 38.8905 20.4591C38.8905 20.1314 38.9883 19.8254 39.1673 19.5624C39.265 19.4227 39.2919 19.2455 39.2374 19.0894C39.183 18.9279 39.0584 18.8046 38.9007 18.746C38.2438 18.5259 37.8046 17.9187 37.8046 17.2366C37.8046 16.35 38.5372 15.6249 39.433 15.6249C39.5576 15.6249 39.683 15.6468 39.8289 15.6842C39.9921 15.7326 40.1656 15.7006 40.3013 15.5984C40.4369 15.4962 40.5181 15.3354 40.5181 15.1684V13.4763C40.5181 11.618 41.2507 9.86117 42.5858 8.53984C43.9209 7.21851 45.696 6.49345 47.5736 6.49345C48.6484 6.49345 49.6634 6.74086 50.575 7.16466C50.2926 8.18005 49.7769 9.15251 49.0333 9.98995C48.8921 10.1515 48.7454 10.3068 48.5664 10.4731C46.9222 12.0418 44.5825 12.9386 42.1458 12.9386C41.8469 12.9386 41.6032 13.1805 41.6032 13.4755V17.2358C41.6032 19.5241 42.9272 21.512 44.8601 22.4946V22.7202H44.8616ZM49.2036 36.5743H45.9467V27.9633C46.4025 28.3075 46.9617 28.5167 47.5752 28.5167C48.1887 28.5167 48.7478 28.3075 49.2036 27.9633V36.5743ZM49.2036 25.8303C49.2036 26.7169 48.471 27.442 47.5752 27.442C46.6793 27.442 45.9467 26.7169 45.9467 25.8303V22.9137C46.468 23.0589 47.0105 23.1447 47.5752 23.1447C48.1398 23.1447 48.6823 23.0589 49.2036 22.9137V25.8303ZM50.2895 26.2065L52.2649 28.4894L50.9898 29.7467C50.8754 29.8599 50.8218 30.0207 50.832 30.1814C50.8486 30.3422 50.9409 30.4874 51.0765 30.5732L52.287 31.374L50.2895 35.0055V26.2065ZM57.8883 36.5743H54.648C54.6748 36.3323 54.7568 36.1068 54.8925 35.9132C55.4082 35.1608 55.7173 34.2048 55.7173 33.3509C55.7173 32.0881 55.0715 30.88 54.4745 30.2837L53.7041 31.0462C54.1654 31.5028 54.6322 32.4378 54.6322 33.3509C54.6322 33.9956 54.3933 34.7261 53.9919 35.306C53.7419 35.6767 53.596 36.1114 53.5629 36.5735H50.6593L53.4817 31.4598C53.6173 31.2124 53.5416 30.912 53.3027 30.7559L52.2278 30.0417L53.3894 28.8976C53.5905 28.6986 53.6008 28.3817 53.4162 28.167L51.3864 25.8249L55.2237 27.012C56.8198 27.506 57.8883 28.946 57.8883 30.6005V36.5743Z" fill="#382823"/>
<path d="M45.4137 15.2529H44.3184V16.337H45.4137V15.2529Z" fill="#382823"/>
<path d="M50.8912 15.2529H49.7959V16.337H50.8912V15.2529Z" fill="#382823"/>
<path d="M49.7954 18.5059H48.7001C48.7001 19.1037 48.2088 19.5899 47.6048 19.5899C47.0007 19.5899 46.5094 19.1037 46.5094 18.5059H45.4141C45.4141 19.7015 46.3966 20.674 47.6048 20.674C48.8129 20.674 49.7954 19.7015 49.7954 18.5059Z" fill="#382823"/>
<path d="M23.0184 21.9492L16.8216 20.0293V19.0303H15.541V20.105L13.6208 21.0556L11.7006 20.105V19.0303H10.4199V20.0293L4.22318 21.9492C1.8038 22.6969 0.177734 24.8822 0.177734 27.3914V36.9709C0.177734 37.319 0.465568 37.6046 0.818066 37.6046H26.4235C26.7752 37.6046 27.0638 37.3198 27.0638 36.9709V27.3914C27.0638 24.8822 25.4377 22.6969 23.0184 21.9492ZM13.6208 22.5447L14.6901 23.3049L13.8644 24.933H13.3779L12.5522 23.3049L13.6216 22.5447H13.6208ZM11.1241 36.3372H6.57948V26.8342H5.2996V36.3372H1.4584V27.3914C1.4584 25.4403 2.71935 23.742 4.60171 23.1597L8.50048 21.9562V24.9337C8.50048 25.1679 8.63532 25.3895 8.84588 25.4972C8.94208 25.5417 9.03829 25.5667 9.14002 25.5667C9.26777 25.5667 9.40262 25.5285 9.51144 25.4465L11.4955 24.0463L12.3212 25.6806L11.1241 36.3372ZM9.77956 23.7045V21.5566L11.0019 21.1766L12.3843 21.861L9.77878 23.7045H9.77956ZM12.4166 36.3372L13.5561 26.2004H13.6839L14.8234 36.3372H12.4166ZM16.2381 21.1766L17.4604 21.5566V23.7045L14.8549 21.861L16.2373 21.1766H16.2381ZM25.7824 36.3372H21.9411V26.8342H20.6605V36.3372H16.1159L14.9188 25.6806L15.7444 24.0463L17.7285 25.4465C17.8373 25.5292 17.9714 25.5667 18.0999 25.5667C18.2025 25.5667 18.2987 25.5409 18.3941 25.4972C18.6054 25.3895 18.7395 25.1679 18.7395 24.9337V21.9562L22.6383 23.1597C24.5206 23.7427 25.7816 25.4403 25.7816 27.3914V36.3372H25.7824Z" fill="#382823"/>
<path d="M38.183 34.3154H34.8008V36.7661H38.183V34.3154Z" fill="white"/>
<path d="M41.4537 31.5908H37.5796V37.402H41.4537V31.5908Z" fill="white"/>
<path d="M24.1029 31.6718H19.7217V28.897C19.7217 27.0005 20.965 25.3257 22.7936 24.762L26.3421 23.6621C26.6651 25.7434 28.478 27.3365 30.6738 27.3365C32.8696 27.3365 34.6825 25.7434 35.0055 23.6621L38.5541 24.762C40.3835 25.3257 41.6259 27.0005 41.6259 28.897V31.6718H37.2447V37.0915H24.102V31.6718H24.1029Z" fill="#FFBC6E"/>
<path d="M36.1517 10.3184V11.9442H33.0738C31.1897 11.9442 29.3776 11.2018 28.0414 9.87929L27.9372 9.77617L27.9094 9.8896C27.6029 11.0978 26.5072 11.9434 25.2534 11.9434H25.1987V10.3175C25.1987 7.92178 27.1592 5.98145 29.5799 5.98145H31.7705C34.1912 5.98145 36.1517 7.92263 36.1517 10.3184Z" fill="#A1BBFF"/>
<path d="M32.8656 23.001L35.0067 23.6618C34.6837 25.743 32.8708 27.3362 30.675 27.3362C28.4792 27.3362 26.6663 25.743 26.3433 23.6618L28.4844 23.001C28.4844 24.1989 29.4646 25.169 30.675 25.169C31.8853 25.169 32.8656 24.1989 32.8656 23.001Z" fill="white"/>
<path d="M24.0206 31.5908H20.1465V37.402H24.0206V31.5908Z" fill="white"/>
<path d="M25.7615 11.8721L27.9912 10.2363L29.1805 10.8312L32.5993 11.8717H35.7209L37.6533 12.615L38.3966 14.1014L37.9506 15.5879L36.3155 16.0338L35.8696 18.7095L32.8966 20.9392L33.1939 23.6148L31.5588 25.1013L29.9237 25.2499L28.4372 24.0608L28.7345 21.2365L26.3562 19.1554L24.8697 16.1825L23.2346 15.5879L22.7886 13.2095L24.4238 12.615L25.7615 11.8721Z" fill="white"/>
<path d="M38.7143 24.2414L33.4136 22.5992V21.0438C35.2039 20.133 36.4803 18.3611 36.6721 16.2798H36.6999C37.286 16.2798 37.8339 16.0521 38.2498 15.6456C38.6604 15.234 38.8905 14.6918 38.8905 14.1118C38.8905 12.9139 37.9103 11.9437 36.6999 11.9437V10.3179C36.6999 7.62996 34.4876 5.44043 31.7717 5.44043H29.5811C26.8652 5.44043 24.6529 7.62996 24.6529 10.3179V11.9437C23.4426 11.9437 22.4623 12.9139 22.4623 14.1118C22.4623 14.6918 22.6924 15.234 23.1031 15.6456C23.519 16.0521 24.0669 16.2798 24.6529 16.2798H24.6807C24.8726 18.3611 26.1481 20.133 27.9393 21.0438V22.5992L22.6386 24.2414C20.5687 24.8807 19.1777 26.7505 19.1777 28.8971V37.0915C19.1777 37.3897 19.4243 37.6338 19.7256 37.6338H41.6299C41.9312 37.6338 42.1777 37.3897 42.1777 37.0915V28.8971C42.1777 26.7505 40.7868 24.8807 38.7169 24.2414H38.7143ZM36.6991 13.0282C37.3016 13.0282 37.7939 13.5163 37.7939 14.1118C37.7939 14.3988 37.6793 14.6703 37.4709 14.8757C37.2626 15.0819 36.9891 15.1954 36.6991 15.1954V13.0282ZM24.6521 15.1962C24.3621 15.1962 24.0877 15.0828 23.8802 14.8766C23.6718 14.6703 23.5572 14.3996 23.5572 14.1126C23.5572 13.5163 24.0504 13.029 24.6521 13.029V15.1962ZM25.7469 10.3188C25.7469 8.22632 27.4661 6.52488 29.5803 6.52488H31.7709C33.8851 6.52488 35.6042 8.22632 35.6042 10.3188V11.4023H33.0741C31.322 11.4023 29.6732 10.7252 28.4307 9.49983L28.3265 9.39155C28.1841 9.25578 27.9818 9.20165 27.7899 9.25578C27.6041 9.30476 27.4556 9.456 27.407 9.64591L27.3792 9.75934C27.1769 10.5508 26.5527 11.1411 25.7478 11.331V10.3179L25.7469 10.3188ZM25.7469 15.7384V12.449C26.7932 12.2917 27.6909 11.6524 28.1728 10.7312C29.5473 11.869 31.2612 12.4868 33.0741 12.4868H35.6042V15.7384C35.6042 18.4264 33.3919 20.6159 30.676 20.6159C27.9601 20.6159 25.7469 18.4264 25.7469 15.7384ZM32.3179 21.4675V23.0014C32.3179 23.8959 31.579 24.6272 30.6751 24.6272C29.7713 24.6272 29.0324 23.8959 29.0324 23.0014V21.4675C29.5577 21.6196 30.1056 21.7004 30.6751 21.7004C31.2447 21.7004 31.7926 21.6187 32.3179 21.4675ZM28.0409 23.706C28.3586 24.8549 29.4153 25.7116 30.6751 25.7116C31.935 25.7116 32.9916 24.8549 33.3094 23.706L34.3661 24.0308C33.9059 25.6566 32.4221 26.7952 30.6751 26.7952C28.9282 26.7952 27.4444 25.6566 26.9842 24.0308L28.0409 23.706ZM23.5563 36.551H20.2709V34.383H23.5563V36.551ZM23.5563 33.2994H20.2709V32.2158H23.5563V33.2994ZM41.0803 36.551H37.7948V34.383H41.0803V36.551ZM41.0803 33.2994H37.7948V32.2158H41.0803V33.2994ZM41.0803 31.1313H37.7948V28.9633H36.6999V36.551H24.6529V28.9633H23.5581V31.1313H20.2726V28.898C20.2726 27.2283 21.351 25.7761 22.9616 25.2777L25.9458 24.3565C26.5422 26.4266 28.4376 27.8797 30.6769 27.8797C32.9161 27.8797 34.8115 26.4274 35.408 24.3565L38.3922 25.2777C40.0019 25.7761 41.0811 27.2292 41.0811 28.898L41.0803 31.1313Z" fill="#382823"/>
<path d="M28.4871 13.5996H27.3774V14.6978H28.4871V13.5996Z" fill="#382823"/>
<path d="M34.032 13.5996H32.9224V14.6978H34.032V13.5996Z" fill="#382823"/>
<path d="M32.9224 16.8926H31.8128C31.8128 17.4975 31.3153 17.9908 30.7031 17.9908C30.091 17.9908 29.5935 17.4984 29.5935 16.8926H28.4839C28.4839 18.1034 29.4789 19.0881 30.7023 19.0881C31.9256 19.0881 32.9207 18.1034 32.9207 16.8926H32.9224Z" fill="#382823"/>
<path d="M6.57598 13.0693H6.60831C6.83227 15.5028 8.32428 17.575 10.418 18.6395V19.47H11.6986V19.1344C12.3137 19.3115 12.9533 19.4067 13.6196 19.4067C14.286 19.4067 14.9255 19.3115 15.5406 19.1344V19.47H16.8213V18.6395C18.915 17.575 20.407 15.5028 20.631 13.0693H20.6633C21.3486 13.0693 21.9889 12.8032 22.4755 12.3279C22.9557 11.8463 23.2246 11.2126 23.2246 10.5344C23.2246 9.13421 22.0788 7.99941 20.6633 7.99941V2.92949C20.6633 2.58062 20.3755 2.29575 20.023 2.29575H18.102V1.02827C18.102 0.679402 17.8141 0.394531 17.4616 0.394531H11.0583C8.58687 0.394531 6.57598 2.38473 6.57598 4.83071V7.99941C5.16047 7.99941 4.01465 9.13343 4.01465 10.5344C4.01465 11.2126 4.28356 11.8463 4.76381 12.3279C5.25036 12.8032 5.8907 13.0693 6.57598 13.0693ZM20.6625 9.26689C21.3667 9.26689 21.9432 9.83742 21.9432 10.5344C21.9432 10.87 21.8083 11.1868 21.5654 11.428C21.3218 11.6692 21.0016 11.8019 20.6625 11.8019V9.26689ZM17.9159 3.56323H19.3818V5.5784C19.1831 5.50894 18.9655 5.46445 18.7415 5.46445H16.7503C17.2881 4.94466 17.6919 4.29219 17.9159 3.56323ZM7.85664 4.83071C7.85664 3.08168 9.29108 1.66201 11.0583 1.66201H16.8213V2.29575C16.8213 4.04478 15.3869 5.46445 13.6196 5.46445H8.49697C8.27302 5.46445 8.05537 5.50894 7.85664 5.5784V4.83071ZM7.85664 7.36567C7.85664 7.0168 8.14448 6.73193 8.49697 6.73193H18.7423C19.0948 6.73193 19.3826 7.0168 19.3826 7.36567V12.4356C19.3826 15.5785 16.7961 18.1393 13.6196 18.1393C10.4432 18.1393 7.85664 15.5793 7.85664 12.4356V7.36567ZM6.57598 9.26689V11.8019C6.23689 11.8019 5.91672 11.6684 5.67305 11.428C5.42937 11.1868 5.29531 10.87 5.29531 10.5344C5.29531 9.83742 5.87177 9.26689 6.57598 9.26689Z" fill="#382823"/>
</svg>
