<svg width="45" height="41" viewBox="0 0 45 41" fill="none" xmlns="http://www.w3.org/2000/svg">
<path d="M29.7425 37.814H25.793V39.3903H29.7425V37.814Z" fill="white"/>
<path d="M23.7285 9.78955H23.8183C24.2635 9.78955 24.6261 10.1433 24.6261 10.5777C24.6261 11.0121 24.2635 11.3659 23.8183 11.3659H23.7285V9.78955Z" fill="white"/>
<path d="M33.0635 23.517L34.7797 22.4004H39.7059V33.785H34.5894C34.5212 33.785 34.4548 33.7955 34.3911 33.8165L33.0635 34.2482V23.517Z" fill="white"/>
<path d="M25.1646 22.4004H30.0908L31.807 23.517V34.2482L30.4794 33.8165C30.4157 33.7955 30.3484 33.785 30.281 33.785H25.1646V22.4004Z" fill="white"/>
<path d="M18.163 20.6729V23.1897C18.163 24.3974 17.1567 25.3791 15.9189 25.3791C14.681 25.3791 13.6748 24.3974 13.6748 23.1897V20.6729L13.7888 20.7044C14.4952 20.9005 15.2124 20.9995 15.9189 20.9995C16.6253 20.9995 17.3416 20.9005 18.049 20.7044L18.163 20.6729Z" fill="white"/>
<path d="M25.4202 39.39H6.79865V31.6835H6.08896V39.39H2.18555V31.8411C2.18555 29.0283 4.10008 26.5771 6.94864 25.7425L12.8958 23.9893L12.9209 24.0768C13.3493 25.5647 14.7824 26.6042 16.4051 26.6042C18.0278 26.6042 18.9312 25.5647 19.3597 24.0768L19.9145 23.9893L21.7026 24.5156V37.2006C21.7026 37.5387 22.9749 37.2364 23.3336 37.2364H26.4006L25.4202 39.39Z" fill="#FFBC6E"/>
<path d="M42.5785 36.588H34.5895C34.5213 36.588 34.4549 36.5985 34.3912 36.6195L32.4352 37.2553L30.4793 36.6195C30.4156 36.5985 30.3482 36.588 30.2809 36.588H22.292V24.5028H23.9077V34.3987C23.9077 34.7367 24.1896 35.0117 24.5361 35.0117H30.1795L32.2386 35.6807C32.3724 35.7228 32.5025 35.7228 32.6309 35.6807L34.6919 35.0108H40.3353C40.6818 35.0108 40.9636 34.7358 40.9636 34.3978V24.502H42.5794V36.5871L42.5785 36.588Z" fill="white"/>
<path d="M38.0907 24.6777H34.6797V25.9038H38.0907V24.6777Z" fill="#383838"/>
<path d="M38.0907 27.4805H34.6797V28.7065H38.0907V27.4805Z" fill="#383838"/>
<path d="M38.0907 30.2822H34.6797V31.5083H38.0907V30.2822Z" fill="#383838"/>
<path d="M30.1913 24.6777H26.7803V25.9038H30.1913V24.6777Z" fill="#383838"/>
<path d="M30.1913 27.4805H26.7803V28.7065H30.1913V27.4805Z" fill="#383838"/>
<path d="M30.1913 30.2822H26.7803V31.5083H30.1913V30.2822Z" fill="#383838"/>
<path d="M30.86 18.206L30.933 19.9108L33.4415 20.0082L33.6928 18.2007L34.856 16.9291L35.1341 15.0344L34.5778 13.4554L32.9301 12.3608L31.2983 12.3851L29.6422 13.5784L29.293 16.6133L30.86 18.206Z" fill="#FFBC6E"/>
<path d="M33.0271 20.1777H31.4927V21.201H33.0271V20.1777Z" fill="#BDDBFF"/>
<path d="M33.7091 18.9614H30.811V19.9847H33.7091V18.9614Z" fill="#BDDBFF"/>
<g clip-path="url(#clip0_87_15863)">
<path d="M34.6668 12.9884C33.9894 12.3455 33.0967 12.0072 32.1414 12.0342C30.2795 12.0917 28.7685 13.6143 28.7754 15.4312C28.7789 16.6459 29.4389 17.7455 30.5123 18.3444V19.8162C30.5123 20.1884 30.8249 20.4929 31.207 20.4929V20.8312C31.207 21.2034 31.5196 21.5079 31.9017 21.5079H32.5965C32.9786 21.5079 33.2912 21.2034 33.2912 20.8312V20.4929C33.6733 20.4929 33.9859 20.1884 33.9859 19.8162V18.3444C35.0628 17.7387 35.7228 16.6357 35.7228 15.4177C35.7228 14.494 35.3476 13.6312 34.6668 12.9884ZM32.5965 20.8312H31.9017V20.4929H32.5965V20.8312ZM33.2912 19.8162H31.207V19.4778H33.2912V19.8162ZM33.4823 17.8402C33.3641 17.8978 33.2912 18.0162 33.2912 18.1414V18.8011H32.9438H31.5544H31.207V18.1414C31.207 18.0128 31.134 17.8944 31.0159 17.8402C30.0676 17.3801 29.4771 16.4564 29.4702 15.4278C29.4667 13.9729 30.672 12.7549 32.1623 12.7109C32.19 12.7109 32.2213 12.7109 32.2491 12.7109C32.9751 12.7109 33.6594 12.9816 34.1839 13.4756C34.7293 13.9899 35.028 14.6801 35.028 15.4177C35.028 16.4496 34.4375 17.3767 33.4823 17.8402Z" fill="#383838"/>
</g>
<path d="M32.3311 16.1828C32.0895 16.1828 31.8934 15.9848 31.8934 15.7407H31.0181C31.0181 16.3163 31.3853 16.8027 31.8934 16.9857V18.8355H32.7688V16.9857C33.277 16.8027 33.6442 16.3163 33.6442 15.7407H32.7688C32.7688 15.9848 32.5727 16.1828 32.3311 16.1828Z" fill="#383838"/>
<path d="M32.6224 9.87988H31.7471V10.7641H32.6224V9.87988Z" fill="#383838"/>
<path d="M29.9379 10.3705L29.1797 10.8125L29.6172 11.5783L30.3754 11.1364L29.9379 10.3705Z" fill="#383838"/>
<path d="M27.855 12.1497L27.4175 12.9155L28.1756 13.3575L28.6132 12.5917L27.855 12.1497Z" fill="#383838"/>
<path d="M27.808 14.7437H26.9326V15.6279H27.808V14.7437Z" fill="#383838"/>
<path d="M28.1747 17.0131L27.4165 17.4551L27.8541 18.2209L28.6122 17.7789L28.1747 17.0131Z" fill="#383838"/>
<path d="M36.1939 17.0115L35.7563 17.7773L36.5145 18.2193L36.9521 17.4535L36.1939 17.0115Z" fill="#383838"/>
<path d="M37.4369 14.7437H36.5615V15.6279H37.4369V14.7437Z" fill="#383838"/>
<path d="M36.515 12.1503L35.7568 12.5923L36.1944 13.3581L36.9526 12.9161L36.515 12.1503Z" fill="#383838"/>
<path d="M34.4312 10.3689L33.9937 11.1348L34.7518 11.5767L35.1894 10.8109L34.4312 10.3689Z" fill="#383838"/>
<path fill-rule="evenodd" clip-rule="evenodd" d="M23.9182 9.40332L23.707 9.40332V13.1121H23.9182C24.9657 13.1121 25.8189 12.2797 25.8189 11.2577C25.8189 10.2357 24.9657 9.40332 23.9182 9.40332ZM7.87047 13.3552H8.08166V9.64648H7.87047C6.82295 9.64648 5.96973 10.4789 5.96973 11.5009C5.96973 12.5228 6.82295 13.3552 7.87047 13.3552Z" fill="white"/>
<path d="M9.55273 13.9144V8.9227H16.1054C16.2428 8.9227 16.3729 8.88066 16.4824 8.80009L18.9195 7.01709L20.6887 8.74317C20.8072 8.85877 20.9652 8.9227 21.1331 8.9227H22.659V13.9144C22.659 17.4392 19.7193 20.3073 16.1063 20.3073C12.4934 20.3073 9.55363 17.4392 9.55363 13.9144H9.55273Z" fill="white"/>
<path d="M23.0703 9.41805H22.2942C21.1023 9.41805 20.0421 8.64694 19.6679 7.49727L18.9126 5.21196C18.9126 7.53232 17.0486 9.41805 14.755 9.41805H9.21143V8.01602C9.21143 6.08122 9.98752 4.32868 11.2417 3.05984C12.496 1.791 14.2283 1.00586 16.1408 1.00586C19.9659 1.00586 23.0703 4.14641 23.0703 8.01602V9.41805Z" fill="#A1BBFF"/>
<path d="M13.8273 11.7407H12.4414V13.1428H13.8273V11.7407Z" fill="#383838"/>
<path d="M19.3707 11.7407H17.9849V13.1428H19.3707V11.7407Z" fill="#383838"/>
<path d="M19.3708 15.2456H17.9849C17.9849 16.4051 17.0522 17.3487 15.9061 17.3487C14.76 17.3487 13.8273 16.4051 13.8273 15.2456H12.4414C12.4414 17.1783 13.9957 18.7507 15.9061 18.7507C17.8166 18.7507 19.3708 17.1783 19.3708 15.2456Z" fill="#383838"/>
<rect x="26.0396" y="36.8447" width="4.39209" height="2.32031" fill="#FFBC6E"/>
<path fill-rule="evenodd" clip-rule="evenodd" d="M19.6622 21.7953V20.4859C22.0417 19.3204 23.7371 17.0517 23.9918 14.3875H24.0282C25.6363 14.3875 26.9389 13.1456 26.9389 11.6124C26.9389 10.0791 25.6363 8.8372 24.0282 8.8372V8.14341C24.0282 3.9321 20.4408 0.511719 16.0239 0.511719C11.607 0.511719 8.01959 3.9321 8.01959 8.14341V8.8372C6.41145 8.8372 5.10893 10.0791 5.10893 11.6124C5.10893 13.1456 6.41145 14.3875 8.01959 14.3875H8.05597C8.31065 17.0517 10.0061 19.3204 12.3856 20.4859V21.7953H12.3811V23.1475L6.35346 24.8856C2.99011 25.8494 0.72998 28.6796 0.72998 31.9285V39.7465C0.72998 40.1164 1.05676 40.4175 1.45817 40.4175H30.5859C30.9874 40.4175 31.3141 40.1164 31.3141 39.7465V37.9933L32.5402 38.3699C32.6886 38.4152 32.8524 38.4152 33.0008 38.3699L35.0734 37.7332H43.6934C44.0949 37.7332 44.4216 37.4321 44.4216 37.0622V24.3118C44.4216 23.9419 44.0949 23.6407 43.6934 23.6407H41.5089V22.2986C41.5089 21.9287 41.1821 21.6275 40.7807 21.6275H34.9551C34.8113 21.6275 34.6711 21.6661 34.551 21.7399L32.7705 22.8338L30.9901 21.7399C30.8699 21.6661 30.7307 21.6275 30.5859 21.6275H24.7604C24.359 21.6275 24.0322 21.9287 24.0322 22.2986V23.6407H21.8476C21.7493 23.6407 21.6537 23.6583 21.5627 23.6944L19.663 23.1475V21.7953H19.6622ZM13.8375 21.8616V23.6407C13.8375 24.7505 14.8178 25.6539 16.0221 25.6539C17.2263 25.6539 18.2066 24.7505 18.2066 23.6407V21.7953H18.2069V21.0271C17.5083 21.2213 16.7807 21.3254 16.0239 21.3254C15.2671 21.3254 14.5395 21.2213 13.8409 21.0271V21.8616H13.8375ZM25.4835 11.6124C25.4835 10.8492 24.8286 10.2248 24.0282 10.2248V12.9999C24.8286 12.9999 25.4835 12.3755 25.4835 11.6124ZM6.56426 11.6124C6.56426 12.3755 7.21915 12.9999 8.01959 12.9999V10.2248C7.21915 10.2248 6.56426 10.8492 6.56426 11.6124ZM16.0239 1.8993C12.4147 1.8993 9.47491 4.70221 9.47491 8.14341V8.8372H14.5686C16.5769 8.8372 18.2069 7.28311 18.2069 5.36825C18.2069 5.02829 18.4688 4.7369 18.8181 4.6814C19.1674 4.63283 19.5094 4.82709 19.6258 5.14623L20.419 7.41493C20.7173 8.26829 21.5469 8.8372 22.4855 8.8372H22.5729V8.14341C22.5729 4.70221 19.6331 1.8993 16.0239 1.8993ZM9.47491 10.2248V13.6937C9.47491 17.1349 12.4147 19.9378 16.0239 19.9378C19.6331 19.9378 22.5729 17.1349 22.5729 13.6937V10.2248H22.4855C20.9211 10.2248 19.5312 9.27428 19.0364 7.85202L19 7.75488C18.1268 9.23266 16.4678 10.2248 14.5686 10.2248H9.47491ZM29.8577 39.0754V37.7332H26.2168V39.0754H29.8577ZM5.82734 39.0754V31.6936L7.28373 31.6944V39.0762H24.7604V37.7341H21.8476C21.4462 37.7341 21.1194 37.4329 21.1194 37.063V24.9736L19.5229 24.514C19.0923 25.9761 17.6523 26.9969 16.0221 26.9969C14.3918 26.9969 12.9527 25.9761 12.5222 24.514L6.78765 26.1673C4.03507 26.9558 2.18637 29.271 2.18637 31.9285V39.0754H5.82734ZM30.4676 35.049H24.7604C24.359 35.049 24.0322 34.7478 24.0322 34.3779V24.9829H22.5758V36.3911H30.5859C30.6642 36.3911 30.7416 36.4028 30.8162 36.4255L32.7705 37.0261L34.7248 36.4255C34.7995 36.4028 34.8768 36.3911 34.9551 36.3911H42.9652V24.9829H41.5089V34.377C41.5089 34.747 41.1821 35.0481 40.7807 35.0481H35.0734L32.9972 35.6856C32.8461 35.7309 32.6941 35.7309 32.5421 35.6856L30.4676 35.049ZM33.4987 23.9998V34.1178L34.7248 33.7412C34.7995 33.7186 34.8768 33.7068 34.9551 33.7068H40.0525V22.9697H35.1754L33.4987 23.9998ZM30.8162 33.7412L32.0423 34.1178V23.9998L30.3657 22.9697H25.4886V33.7068H30.5859C30.6642 33.7068 30.7416 33.7186 30.8162 33.7412Z" fill="#383838"/>
<defs>
<clipPath id="clip0_87_15863">
<rect width="6.94736" height="9.47368" fill="white" transform="translate(28.7754 12.0342)"/>
</clipPath>
</defs>
</svg>
