<svg width="16" height="16" viewBox="0 0 16 16" fill="none" xmlns="http://www.w3.org/2000/svg">
<mask id="mask0_1_3374" style="mask-type:luminance" maskUnits="userSpaceOnUse" x="0" y="1" width="16" height="16">
<path d="M16 1H0V17H16V1Z" fill="white"/>
</mask>
<g mask="url(#mask0_1_3374)">
<path d="M8.61864 1.25628C8.27693 0.914574 7.72292 0.914574 7.38121 1.25628L1.25628 7.38121C0.914574 7.72292 0.914574 8.27693 1.25628 8.61864C1.59798 8.96034 2.15199 8.96034 2.4937 8.61864L2.74998 8.36235V14.1249C2.74998 14.6081 3.14173 14.9998 3.62497 14.9998H5.37495C5.85819 14.9998 6.24994 14.6081 6.24994 14.1249V12.3749C6.24994 11.8916 6.64169 11.4999 7.12493 11.4999H8.87491C9.35816 11.4999 9.7499 11.8916 9.7499 12.3749V14.1249C9.7499 14.6081 10.1416 14.9998 10.6249 14.9998H12.3749C12.8581 14.9998 13.2499 14.6081 13.2499 14.1249V8.36235L13.5062 8.61864C13.8478 8.96034 14.4019 8.96034 14.7436 8.61864C15.0852 8.27693 15.0852 7.72292 14.7436 7.38121L8.61864 1.25628Z" fill="white"/>
</g>
</svg>
