<svg width="32" height="16" viewBox="0 0 32 16" fill="none" xmlns="http://www.w3.org/2000/svg">
<path d="M9.20867 2.01082L10.4409 4.49542C10.6095 4.84115 11.0571 5.17279 11.4349 5.23608L13.6681 5.60999C15.0957 5.85024 15.4316 6.89446 14.4028 7.92462L12.6672 9.67433C12.373 9.97084 12.2126 10.5427 12.3033 10.9518L12.8008 13.1188C13.1926 14.8333 12.2893 15.4967 10.785 14.6013L8.69135 13.352C8.31353 13.1258 7.6904 13.1258 7.30561 13.352L5.21191 14.6013C3.71342 15.4978 2.80319 14.8275 3.19612 13.1188L3.69368 10.9518C3.78436 10.5427 3.62392 9.97084 3.3298 9.67433L1.59417 7.92462C0.572311 6.89446 0.901312 5.85024 2.32889 5.60999L4.56208 5.23608C4.93292 5.17279 5.38165 4.84115 5.54906 4.49542L6.78131 2.01082C7.45325 0.663059 8.54603 0.663059 9.21099 2.01082H9.20867Z" stroke="#555555" stroke-width="1.3" stroke-linecap="round" stroke-linejoin="round"/>
<path d="M25.2087 2.01082L26.4409 4.49542C26.6095 4.84115 27.0571 5.17279 27.4349 5.23608L29.6681 5.60999C31.0957 5.85024 31.4316 6.89446 30.4028 7.92462L28.6672 9.67433C28.373 9.97084 28.2126 10.5427 28.3033 10.9518L28.8008 13.1188C29.1926 14.8333 28.2893 15.4967 26.785 14.6013L24.6914 13.352C24.3135 13.1258 23.6904 13.1258 23.3056 13.352L21.2119 14.6013C19.7134 15.4978 18.8032 14.8275 19.1961 13.1188L19.6937 10.9518C19.7844 10.5427 19.6239 9.97084 19.3298 9.67433L17.5942 7.92462C16.5723 6.89446 16.9013 5.85024 18.3289 5.60999L20.5621 5.23608C20.9329 5.17279 21.3817 4.84115 21.5491 4.49542L22.7813 2.01082C23.4532 0.663059 24.546 0.663059 25.211 2.01082H25.2087Z" stroke="#1B53E3" stroke-width="1.3" stroke-linecap="round" stroke-linejoin="round"/>
</svg>
