<svg width="16" height="16" viewBox="0 0 16 16" fill="none" xmlns="http://www.w3.org/2000/svg">
<mask id="mask0_1_3384" style="mask-type:luminance" maskUnits="userSpaceOnUse" x="0" y="0" width="16" height="16">
<path d="M16 0H0V16H16V0Z" fill="white"/>
</mask>
<g mask="url(#mask0_1_3384)">
<path d="M10.3335 4.90003C10.3335 6.18868 9.28889 7.23335 8.0002 7.23335C6.71154 7.23335 5.66688 6.18868 5.66688 4.90003C5.66688 3.61138 6.71154 2.56671 8.0002 2.56671C9.28889 2.56671 10.3335 3.61138 10.3335 4.90003ZM14.2224 6.45557C14.2224 7.31468 13.526 8.01112 12.6668 8.01112C11.8077 8.01112 11.1113 7.31468 11.1113 6.45557C11.1113 5.59647 11.8077 4.90003 12.6668 4.90003C13.526 4.90003 14.2224 5.59647 14.2224 6.45557ZM11.1113 11.9C11.1113 10.1818 9.71837 8.78889 8.0002 8.78889C6.28199 8.78889 4.88911 10.1818 4.88911 11.9V14.2333H11.1113V11.9ZM4.88911 6.45557C4.88911 7.31468 4.19267 8.01112 3.33356 8.01112C2.47446 8.01112 1.77802 7.31468 1.77802 6.45557C1.77802 5.59647 2.47446 4.90003 3.33356 4.90003C4.19267 4.90003 4.88911 5.59647 4.88911 6.45557ZM12.6668 14.2333V11.9C12.6668 11.0801 12.4554 10.3096 12.084 9.64002C12.2703 9.59213 12.4656 9.56666 12.6668 9.56666C13.9555 9.56666 15.0001 10.6113 15.0001 11.9V14.2333H12.6668ZM3.91632 9.64002C3.545 10.3096 3.33356 11.0801 3.33356 11.9V14.2333H1.00024V11.9C1.00024 10.6113 2.04491 9.56666 3.33356 9.56666C3.53478 9.56666 3.73005 9.59213 3.91632 9.64002Z" fill="white"/>
</g>
</svg>
