<svg width="60" height="42" viewBox="0 0 60 42" fill="none" xmlns="http://www.w3.org/2000/svg">
<g clip-path="url(#clip0_87_16107)">
<path d="M32.2235 37.1343H29.7886V39.6009H32.2235V37.1343Z" fill="#A1BBFF"/>
<path d="M32.2235 34.9595H29.7886V37.4261H32.2235V34.9595Z" fill="#A1BBFF"/>
<path d="M32.2235 32.4927H29.7886V34.9593H32.2235V32.4927Z" fill="#A1BBFF"/>
<path d="M32.2235 30.0264H29.7886V32.493H32.2235V30.0264Z" fill="#A1BBFF"/>
<path d="M32.2237 21.1008V29.7341H29.7887V21.1008C29.7887 19.6578 28.5652 18.5046 27.1103 18.6465C25.8441 18.7698 24.9188 19.923 24.9188 21.2118V22.3341C24.9188 22.6733 24.7849 22.9816 24.5597 23.2036C24.3405 23.4318 24.0362 23.5675 23.7014 23.5675C23.0317 23.5675 22.4839 23.0125 22.4839 22.3341V21.1008C22.4839 19.738 23.0317 18.5046 23.9083 17.6105C24.791 16.7225 26.0085 16.1675 27.3538 16.1675C30.0444 16.1675 32.2237 18.3751 32.2237 21.1008Z" fill="#A1BBFF"/>
<path d="M27.3536 15.8433C24.3328 15.8433 21.875 18.3331 21.875 21.3933V22.6266C21.875 23.6464 22.6945 24.4766 23.7012 24.4766C24.7079 24.4766 25.5274 23.6464 25.5274 22.6266V21.5027C25.5274 20.4999 26.2488 19.6435 27.1703 19.5525C27.6907 19.5009 28.1937 19.6681 28.5795 20.0235C28.9615 20.3742 29.1798 20.8737 29.1798 21.3933V39.8933C29.1798 40.234 29.4523 40.5099 29.7886 40.5099H32.2235C32.5599 40.5099 32.8323 40.234 32.8323 39.8933V21.3933C32.8323 18.3331 30.3745 15.8433 27.3536 15.8433ZM29.3975 19.1101C28.7621 18.5265 27.9045 18.239 27.0523 18.3253C25.5145 18.4764 24.3099 19.8724 24.3099 21.5035V22.6274C24.3099 22.9673 24.0368 23.244 23.7012 23.244C23.3656 23.244 23.0925 22.9673 23.0925 22.6274V21.394C23.0925 19.0137 25.0039 17.0774 27.3536 17.0774C29.7034 17.0774 31.6148 19.0137 31.6148 21.394V29.4107H30.3973V21.394C30.3973 20.5268 30.0328 19.6943 29.3975 19.1101ZM30.3973 35.5766H31.6148V36.8099H30.3973V35.5766ZM30.3973 34.3433V33.1099H31.6148V34.3433H30.3973ZM30.3973 31.8766V30.6433H31.6148V31.8766H30.3973ZM30.3973 39.2766V38.0433H31.6148V39.2766H30.3973Z" fill="#383838"/>
<path d="M55.5786 31.7121L54.2128 31.2766L49.4616 29.7734C49.4616 31.026 48.5135 32.0459 47.3066 32.1468C47.242 32.1584 47.1712 32.1584 47.1065 32.1584C47.0418 32.1584 46.9711 32.1584 46.9064 32.1468C45.6996 32.0459 44.7515 31.0253 44.7515 29.7734L40.0003 31.2766L38.6344 31.7121C36.6682 32.3326 35.332 34.1749 35.332 36.2623V39.9122H58.881V36.2623C58.881 34.1749 57.5448 32.3318 55.5786 31.7121Z" fill="#FFBC6E"/>
<path d="M55.9379 14.8644C55.9379 16.1525 55.4319 17.3218 54.6131 18.1805C54.3247 17.9716 53.9656 17.8468 53.5828 17.8468H52.9939V16.0577C52.9939 14.7395 51.94 13.6719 50.6388 13.6719H43.5744C42.2733 13.6719 41.2194 14.7395 41.2194 16.0577V17.8468H40.6304C40.2477 17.8468 39.8885 17.9716 39.6002 18.1805C38.7822 17.3218 38.2754 16.1525 38.2754 14.8644C38.2754 12.6398 39.7828 10.7728 41.8137 10.2487C41.8137 10.1947 41.8076 10.1469 41.8076 10.0937C41.8076 7.45747 44.1801 5.32227 47.1059 5.32227C50.0316 5.32227 52.4042 7.45747 52.4042 10.0937C52.4042 10.1477 52.3981 10.1955 52.3981 10.2487C54.429 10.7736 55.9364 12.6398 55.9364 14.8644H55.9379Z" fill="#E1EBFF"/>
<path d="M54.213 31.2768C54.2777 33.3102 53.3067 35.0577 51.7407 35.4516C49.9686 35.9049 48.0495 34.4434 47.3076 32.1478C48.5144 32.0461 49.4625 31.0262 49.4625 29.7744L54.2137 31.2775L54.213 31.2768Z" fill="white"/>
<path d="M49.4618 20.2316C50.1119 20.2316 50.639 19.6977 50.639 19.0392C50.639 18.3806 50.1119 17.8467 49.4618 17.8467C48.8117 17.8467 48.2847 18.3806 48.2847 19.0392C48.2847 19.6977 48.8117 20.2316 49.4618 20.2316Z" fill="#E6E7E8"/>
<path d="M44.7523 20.2316C45.4025 20.2316 45.9295 19.6977 45.9295 19.0392C45.9295 18.3806 45.4025 17.8467 44.7523 17.8467C44.1022 17.8467 43.5752 18.3806 43.5752 19.0392C43.5752 19.6977 44.1022 20.2316 44.7523 20.2316Z" fill="#E6E7E8"/>
<path d="M44.7526 29.7742C44.7526 31.0268 45.7007 32.0466 46.9075 32.1476C46.1656 34.4439 44.2466 35.9046 42.4744 35.4514C40.9084 35.0575 39.9367 33.31 40.0021 31.2766L44.7533 29.7734L44.7526 29.7742Z" fill="white"/>
<path d="M10.1107 5.08296C10.6209 5.04894 11.7229 4.89909 12.0494 4.57221L13.6817 3.8584L17.5591 5.59304L19.3958 8.04194L19.906 14.5724L19.8039 17.4294L18.8856 20.1844L15.9265 22.1231V24.9802L13.6817 26.2046L11.2328 25.5924C11.2328 24.6401 11.2124 22.6333 11.1307 22.2252C11.0491 21.817 9.19202 20.3545 8.27368 19.6742L7.55957 13.8581L7.55973 8.45009L10.1107 5.08296Z" fill="white"/>
<path d="M50.8234 13.552C50.4969 13.3071 45.9256 13.518 43.6808 13.6541L41.8441 13.9602L41.0278 15.3887L40.8237 17.6335L39.3952 18.0417L38.5789 19.7763L39.7013 21.1028L40.9257 21.511L41.2318 22.3273L42.3543 25.1843L45.0072 27.3271C44.9052 28.0074 44.6807 29.5515 44.5991 30.2862C44.5175 31.0209 44.9732 31.3406 45.2113 31.4086L46.7419 32.1229C47.3201 32.0549 48.5786 31.8372 48.9867 31.5107C49.3949 31.1841 49.2248 30.4223 49.0887 30.0821L49.1908 27.2251L51.6397 24.8782L53.2723 21.511L54.2927 21.0008L55.313 19.7763L55.0069 18.2458L54.0886 17.8376L52.8641 17.7356L52.6601 14.5724C52.1839 14.3343 51.1499 13.7969 50.8234 13.552Z" fill="white"/>
<path d="M55.7228 31.1397L50.0242 29.3329V27.2632C51.9494 26.2611 53.3213 24.3109 53.5268 22.0208H53.5564C54.1865 22.0208 54.7754 21.7703 55.2229 21.3232C55.6642 20.8699 55.9115 20.2733 55.9115 19.635C55.9115 19.0685 55.7114 18.5613 55.3872 18.1504C56.1055 17.2139 56.4997 16.0692 56.4997 14.8644C56.4997 12.568 55.0631 10.5523 52.9614 9.80692C52.7963 6.98027 50.2183 4.72559 47.0802 4.72559C43.9422 4.72559 41.3634 6.98027 41.1991 9.80692C39.0974 10.5523 37.6608 12.568 37.6608 14.8644C37.6608 16.0692 38.055 17.2139 38.7733 18.1504C38.4491 18.562 38.249 19.0693 38.249 19.635C38.249 20.2733 38.4963 20.8699 38.9376 21.3232C39.385 21.7703 39.974 22.0208 40.604 22.0208H40.6337C40.8399 24.3109 42.2111 26.2611 44.1362 27.2632V29.3329L38.4377 31.1397C36.212 31.8435 34.7168 33.9009 34.7168 36.2627V39.9126C34.7168 40.241 34.9816 40.5092 35.3058 40.5092H58.8547C59.1789 40.5092 59.4437 40.241 59.4437 39.9126V36.2627C59.4437 33.9009 57.9485 31.8435 55.7228 31.1397ZM53.5861 31.7125C53.5093 33.3104 52.7209 34.5807 51.5666 34.8737C50.2776 35.2074 48.8349 34.2115 48.0755 32.5658C48.9704 32.2382 49.659 31.4866 49.9124 30.55L53.5861 31.7132V31.7125ZM47.081 31.5637C46.1093 31.5637 45.3149 30.7582 45.3149 29.7746V27.7288C45.8803 27.8899 46.4685 27.9855 47.081 27.9855C47.6935 27.9855 48.2817 27.8899 48.8471 27.7288V29.7746C48.8471 30.7589 48.0527 31.5637 47.081 31.5637ZM52.3793 17.4767L50.9784 18.1866C50.6779 17.6316 50.1011 17.2501 49.4361 17.2501C48.9825 17.2501 48.5709 17.4289 48.2589 17.7157C47.9469 17.4297 47.5345 17.2501 47.0818 17.2501C46.629 17.2501 46.2166 17.4289 45.9046 17.7157C45.5926 17.4297 45.1802 17.2501 44.7275 17.2501C44.0624 17.2501 43.4856 17.6316 43.1851 18.1866L41.7842 17.4767V16.0576C41.7842 15.0733 42.5786 14.2685 43.5503 14.2685H50.6147C51.5864 14.2685 52.3808 15.0733 52.3808 16.0576V17.4767H52.3793ZM50.0242 19.0392C50.0242 19.3676 49.7594 19.6358 49.4353 19.6358C49.1111 19.6358 48.8463 19.3676 48.8463 19.0392C48.8463 18.7108 49.1111 18.4426 49.4353 18.4426C49.7594 18.4426 50.0242 18.7108 50.0242 19.0392ZM45.3141 19.0392C45.3141 19.3676 45.0493 19.6358 44.7252 19.6358C44.401 19.6358 44.1362 19.3676 44.1362 19.0392C44.1362 18.7108 44.401 18.4426 44.7252 18.4426C45.0493 18.4426 45.3141 18.7108 45.3141 19.0392ZM54.3866 20.4768C54.1629 20.7034 53.8684 20.8291 53.5564 20.8291V18.4433C54.204 18.4433 54.7336 18.9798 54.7336 19.6358C54.7336 19.9519 54.6103 20.2502 54.3866 20.4768ZM40.6048 20.8291C40.2928 20.8291 39.9983 20.7042 39.7746 20.4768C39.5509 20.2502 39.4277 19.9519 39.4277 19.6358C39.4277 18.9798 39.9573 18.4433 40.6048 18.4433V20.8291ZM40.6048 16.0576V17.2501C40.2867 17.2501 39.9869 17.3156 39.71 17.4289C39.1446 16.6951 38.8387 15.8009 38.8387 14.8644C38.8387 12.9558 40.1102 11.2977 41.9357 10.8267C42.1944 10.7612 42.377 10.5223 42.377 10.2486C42.377 10.2131 42.377 10.1708 42.3709 10.0937C42.3709 7.79196 44.4847 5.91884 47.081 5.91884C49.6773 5.91884 51.7911 7.79119 51.7911 10.1353C51.785 10.1708 51.785 10.2124 51.785 10.2486C51.785 10.523 51.9676 10.7612 52.2263 10.8267C54.051 11.2977 55.3233 12.9558 55.3233 14.8644C55.3233 15.8009 55.0174 16.6951 54.452 17.4289C54.1751 17.3156 53.8753 17.2501 53.5572 17.2501V16.0576C53.5572 14.4119 52.2385 13.076 50.614 13.076H43.5496C41.925 13.076 40.6063 14.4119 40.6063 16.0576H40.6048ZM41.7819 21.4249V18.8126L43.0063 19.4331C43.1828 20.2324 43.8836 20.8291 44.7252 20.8291C45.6969 20.8291 46.4913 20.0235 46.4913 19.04C46.4913 18.7116 46.7561 18.4433 47.0802 18.4433C47.4044 18.4433 47.6692 18.7116 47.6692 19.04C47.6692 20.0243 48.4636 20.8291 49.4353 20.8291C50.2769 20.8291 50.9777 20.2324 51.1542 19.4331L52.3785 18.8126V21.4249C52.3785 24.3826 49.9999 26.7922 47.0802 26.7922C44.1606 26.7922 41.7819 24.3826 41.7819 21.4249ZM44.2489 30.5493C44.5022 31.4858 45.1909 32.2366 46.0857 32.565C45.3263 34.2107 43.8836 35.2066 42.5885 34.8729C41.4403 34.5807 40.652 33.3104 40.5751 31.7117L44.2489 30.5485V30.5493ZM58.2665 39.316H35.8955V36.2627C35.8955 34.4258 37.0551 32.8279 38.7862 32.279L39.4162 32.0825C39.605 34.0627 40.7235 35.6306 42.3009 36.0307C42.5718 36.0962 42.8427 36.1316 43.1136 36.1316C44.6795 36.1316 46.2158 35.0109 47.0818 33.2271C47.9469 35.0101 49.484 36.1316 51.05 36.1316C51.3209 36.1316 51.5857 36.1016 51.8565 36.0307C53.44 35.6314 54.5586 34.0627 54.7473 32.0825L55.3773 32.279C57.1084 32.8279 58.2681 34.4258 58.2681 36.2627V39.316H58.2665Z" fill="#383838"/>
<path d="M49.0272 23.661L48.248 22.7661C47.6028 23.3427 46.5573 23.3427 45.912 22.7661L45.1328 23.661C45.6708 24.1413 46.3625 24.4064 47.08 24.4064C47.7976 24.4064 48.4892 24.1413 49.0272 23.661Z" fill="#383838"/>
<path d="M21.7201 39.8937H1.63184V32.4482C1.63184 29.6555 3.36065 27.1827 5.90517 26.3517L7.98096 25.668C8.73579 27.2397 11.1327 26.4943 13.8781 26.4943C16.6235 26.4943 18.8773 27.2397 19.6322 25.668L21.708 26.3517C24.2525 27.1827 25.9813 29.6555 25.9813 32.4482V39.8937H21.7201Z" fill="#A1BBFF"/>
<path d="M20.5023 12.1426C21.1719 12.1426 21.7198 12.6976 21.7198 13.3759C21.7198 14.0542 21.1719 14.6092 20.5023 14.6092C20.2831 14.6092 20.0701 14.5476 19.8936 14.4427V12.3091C20.0701 12.2042 20.2831 12.1426 20.5023 12.1426Z" fill="#A1BBFF"/>
<path d="M16.2415 16.4599V17.6932H11.3716V16.4599C11.3716 15.7816 11.9194 15.2266 12.5891 15.2266H15.024C15.6936 15.2266 16.2415 15.7816 16.2415 16.4599Z" fill="#A1BBFF"/>
<path d="M7.71879 12.3091V14.4427C7.54225 14.5476 7.3292 14.6092 7.11005 14.6092C6.44044 14.6092 5.89258 14.0542 5.89258 13.3759C5.89258 12.6976 6.44044 12.1426 7.11005 12.1426C7.3292 12.1426 7.54225 12.2042 7.71879 12.3091Z" fill="#A1BBFF"/>
<path fill-rule="evenodd" clip-rule="evenodd" d="M21.8904 26.2355L16.8501 24.6398V22.4946C19.0149 21.3692 20.5025 19.0898 20.5025 16.4598V15.2264C21.2505 15.2264 21.8886 14.7652 22.1692 14.1105C22.3063 13.6666 22.2641 13.0055 22.1857 12.6578C21.9078 11.994 21.2592 11.5264 20.504 11.5264V10.2931C20.504 10.2921 20.504 10.2911 20.504 10.29H19.2851C19.2851 10.2911 19.2851 10.2921 19.2851 10.2931V16.4598C19.2851 19.52 16.8273 22.0098 13.8064 22.0098C10.7856 22.0098 8.32779 19.52 8.32779 16.4598V10.2931C8.32779 10.2921 8.32779 10.2911 8.32779 10.29H7.11032C7.11032 10.2908 7.11032 10.2916 7.11032 10.2923V11.5257C6.4106 11.5257 5.80169 11.9265 5.49557 12.5133C5.31334 12.9663 5.27495 13.562 5.46855 14.1661C5.76074 14.7912 6.38372 15.2264 7.11032 15.2264V16.4598C7.11032 19.0891 8.59792 21.3692 10.7627 22.4946V24.6398L5.7224 26.2355C2.91156 27.125 1.02295 29.7273 1.02295 32.7105V39.8931C1.02295 40.2338 1.29536 40.5098 1.63169 40.5098H25.9812C26.3175 40.5098 26.5899 40.2338 26.5899 39.8931V32.7105C26.5899 29.7273 24.7013 27.1258 21.8904 26.2355ZM13.1616 3.54102H14.4512C14.239 3.52034 14.0239 3.50977 13.8064 3.50977C13.5889 3.50977 13.3738 3.52034 13.1616 3.54102ZM20.5025 12.7598C20.8381 12.7598 21.1113 13.0365 21.1113 13.3764C21.1113 13.7164 20.8381 13.9931 20.5025 13.9931V12.7598ZM6.50158 13.3764C6.50158 13.0365 6.77475 12.7598 7.11032 12.7598V13.9931C6.77475 13.9931 6.50158 13.7164 6.50158 13.3764ZM19.8991 26.8976L21.5275 27.4133C23.827 28.1417 25.3717 30.27 25.3717 32.7105V39.2764H22.328V31.8764H21.1105V39.2764H6.50158V31.8764H5.28411V39.2764H2.24042V32.7105C2.24042 30.27 3.78509 28.141 6.0846 27.4133L7.71297 26.8976L8.96088 26.5022L11.5526 25.682C11.8067 25.6019 11.9802 25.3629 11.9802 25.0931V22.9802C12.5616 23.1475 13.1726 23.2431 13.8064 23.2431C14.4403 23.2431 15.0513 23.1475 15.6326 22.9802V25.0931C15.6326 25.3629 15.8054 25.6011 16.0603 25.682L18.652 26.5022L19.8991 26.8976Z" fill="#383838"/>
<path d="M11.3718 12.7598H10.1543V13.9931H11.3718V12.7598Z" fill="#383838"/>
<path d="M17.4587 12.7598H16.2412V13.9931H17.4587V12.7598Z" fill="#383838"/>
<path d="M16.8501 10.293H10.7627V11.5263H16.8501V10.293Z" fill="#383838"/>
<path d="M15.6324 7.82715H11.98V9.06048H15.6324V7.82715Z" fill="#383838"/>
<path d="M16.8501 17.6937V16.4604C16.8501 15.4405 16.0306 14.6104 15.0239 14.6104H12.5889C11.5822 14.6104 10.7627 15.4405 10.7627 16.4604V17.6937C10.7627 18.0344 11.0351 18.3104 11.3714 18.3104H16.2413C16.5777 18.3104 16.8501 18.0344 16.8501 17.6937ZM15.6326 17.077H11.9802V16.4604C11.9802 16.1204 12.2533 15.8437 12.5889 15.8437H15.0239C15.3594 15.8437 15.6326 16.1204 15.6326 16.4604V17.077Z" fill="#383838"/>
<path d="M15.0238 18.9258H12.5889V20.1591H15.0238V18.9258Z" fill="#383838"/>
<path d="M9.23779 29.5632V25.7345L11.3676 25.0562L13.7767 26.2764L9.23779 29.5632Z" fill="white"/>
<path d="M9.2378 30.0257C9.16628 30.0257 9.09475 30.0087 9.02931 29.9748C8.87713 29.8954 8.78125 29.7366 8.78125 29.5632V25.7337C8.78125 25.5317 8.91061 25.3529 9.10084 25.2927L11.2307 24.6152C11.3433 24.5789 11.4658 24.589 11.5715 24.6429L13.9799 25.8632C14.1229 25.9356 14.218 26.079 14.231 26.2409C14.2439 26.4027 14.1716 26.5592 14.0415 26.6533L9.50336 29.9401C9.42423 29.9971 9.3314 30.0264 9.2378 30.0264V30.0257ZM9.69436 26.0736V28.6644L12.894 26.3465L11.3281 25.5533L9.69436 26.0736Z" fill="#383838"/>
<path d="M16.5924 25.0566L18.7222 25.735V29.5637L14.1841 26.2769L16.5924 25.0566Z" fill="white"/>
<path d="M18.7222 30.0261C18.6286 30.0261 18.5358 29.9968 18.4566 29.9398L13.9185 26.6529C13.7884 26.5589 13.7161 26.4024 13.729 26.2405C13.742 26.0787 13.8371 25.9353 13.9801 25.8628L16.3884 24.6426C16.4942 24.5886 16.6167 24.5794 16.7293 24.6148L18.8592 25.2924C19.0494 25.3533 19.1787 25.5314 19.1787 25.7333V29.5628C19.1787 29.7363 19.0829 29.895 18.9307 29.9744C18.8652 30.0084 18.793 30.0253 18.7222 30.0253V30.0261ZM15.066 26.3469L18.2656 28.6648V26.074L16.6319 25.5537L15.066 26.3469Z" fill="#383838"/>
<g clip-path="url(#clip1_87_16107)">
<path d="M4.27121 11.411H23.3235C24.1589 11.2634 24.7974 10.4997 24.7974 9.58275C24.7974 8.56017 24.0035 7.72791 23.0281 7.72791H20.4897V3.26662C20.4897 2.74323 20.2774 2.24242 19.9081 1.89162C19.5366 1.5392 19.0397 1.36743 18.5443 1.42065L14.3558 1.86017C13.9851 1.89968 13.6089 1.89968 13.2381 1.86017L9.04967 1.42065C8.55275 1.36823 8.05583 1.54081 7.68659 1.89162C7.31659 2.24242 7.10506 2.74323 7.10506 3.26662V7.72791H4.56659C3.59121 7.72791 2.79736 8.56017 2.79736 9.58275C2.79736 10.4997 3.43582 11.2634 4.27121 11.411Z" fill="#382823"/>
<path d="M8.18213 3.26682C8.18213 3.05957 8.2629 2.86844 8.40982 2.72892C8.55674 2.5894 8.75136 2.52247 8.94444 2.54424L13.1314 2.98295C13.5729 3.02892 14.0214 3.02892 14.4637 2.98295L18.6514 2.54344C18.8467 2.52086 19.0367 2.58618 19.1852 2.72811C19.3321 2.86763 19.4129 3.05876 19.4129 3.26602V4.5015H8.18213V3.26602V3.26682Z" fill="#FFBC6E"/>
<path d="M19.4129 5.63135H8.18213V7.72812H19.4129V5.63135Z" fill="#FED9AD"/>
<path d="M4.56682 8.85693H23.0284C23.4099 8.85693 23.7207 9.18274 23.7207 9.58274C23.7207 9.98274 23.4099 10.3085 23.0284 10.3085H4.56682C4.18528 10.3085 3.87451 9.98274 3.87451 9.58274C3.87451 9.18274 4.18528 8.85693 4.56682 8.85693Z" fill="#FFBC6E"/>
</g>
</g>
<defs>
<clipPath id="clip0_87_16107">
<rect width="59" height="41" fill="white" transform="translate(0.797363 0.411133)"/>
</clipPath>
<clipPath id="clip1_87_16107">
<rect width="22" height="10" fill="white" transform="translate(2.79736 1.41113)"/>
</clipPath>
</defs>
</svg>
