<svg width="16" height="16" viewBox="0 0 16 16" fill="none" xmlns="http://www.w3.org/2000/svg">
<path d="M2.74988 14.7501C2.82907 14.0374 2.95842 13.3581 3.145 12.7159" stroke="white" stroke-linecap="round" stroke-linejoin="round"/>
<path fill-rule="evenodd" clip-rule="evenodd" d="M5.74988 12.4999C10.4134 12.4999 13.6249 10.0339 13.9999 3.49994V1.99994H10.9894C4.23938 1.99994 1.99988 4.99994 1.98938 8.74994C1.98938 9.49994 1.98938 10.9999 3.48938 12.4999H5.73938H5.74988Z" fill="white" stroke="white" stroke-linecap="round" stroke-linejoin="round"/>
<path d="M7.99978 7.25006C5.58697 8.32242 4.13246 9.96976 3.3622 12.0551C3.34503 12.1015 3.3282 12.1482 3.31171 12.1952C3.29076 12.2548 3.27035 12.3147 3.25048 12.375C3.2368 12.4165 3.22338 12.4582 3.21021 12.5" stroke="#108437" stroke-linecap="round" stroke-linejoin="round"/>
</svg>
