<svg width="16" height="16" viewBox="0 0 16 16" fill="none" xmlns="http://www.w3.org/2000/svg">
<path d="M7.47656 15.214C7.6426 15.3108 7.72562 15.3593 7.84278 15.3844C7.93371 15.4039 8.06637 15.4039 8.1573 15.3844C8.27446 15.3593 8.35748 15.3108 8.52353 15.214C9.98454 14.3616 14 11.6842 14 8.00291V4.41616C14 3.81654 14 3.51673 13.9019 3.25901C13.8153 3.03134 13.6745 2.82819 13.4917 2.66713C13.2848 2.48482 13.0041 2.37955 12.4427 2.169L8.42138 0.66102C8.26546 0.60255 8.1875 0.573315 8.1073 0.561726C8.03616 0.551446 7.96392 0.551446 7.89278 0.561726C7.81258 0.573315 7.73462 0.60255 7.5787 0.66102L3.5574 2.169C2.99596 2.37955 2.71523 2.48482 2.50836 2.66713C2.3256 2.82819 2.18483 3.03134 2.09819 3.25901C2.00012 3.51673 2.00012 3.81654 2.00012 4.41616V8.00291C2.00012 11.6842 6.01554 14.3616 7.47656 15.214Z" fill="white" stroke="white" stroke-linecap="round" stroke-linejoin="round"/>
<path d="M5.75012 7.62796L7.2501 9.12794L10.6251 5.75299" stroke="#E8BA16" stroke-linecap="round" stroke-linejoin="round"/>
</svg>
