<svg width="24" height="25" viewBox="0 0 24 25" fill="none" xmlns="http://www.w3.org/2000/svg">
<path fill-rule="evenodd" clip-rule="evenodd" d="M17.657 16.6604L13.414 20.9034C12.6331 21.6835 11.3679 21.6835 10.587 20.9034L6.343 16.6604C3.21892 13.5362 3.21901 8.47095 6.34319 5.34682C9.46738 2.22269 14.5326 2.22269 17.6568 5.34682C20.781 8.47095 20.7811 13.5362 17.657 16.6604Z" fill="#1B53E3"/>
<path d="M13.414 20.9034L14.1208 21.6109L14.1211 21.6105L13.414 20.9034ZM10.587 20.9034L9.87998 21.6106L9.88025 21.6109L10.587 20.9034ZM6.343 16.6604L5.63587 17.3675L5.63598 17.3676L6.343 16.6604ZM16.9499 15.9533L12.7069 20.1963L14.1211 21.6105L18.3641 17.3675L16.9499 15.9533ZM12.7073 20.196C12.3168 20.586 11.6842 20.586 11.2937 20.196L9.88025 21.6109C11.0516 22.781 12.9494 22.781 14.1208 21.6109L12.7073 20.196ZM11.294 20.1962L7.05002 15.9532L5.63598 17.3676L9.87998 21.6106L11.294 20.1962ZM7.05013 15.9533C4.31656 13.2196 4.31663 8.78755 7.0503 6.05393L5.63609 4.63971C2.12139 8.15435 2.12129 13.8528 5.63587 17.3675L7.05013 15.9533ZM7.0503 6.05393C9.78396 3.32032 14.216 3.32032 16.9497 6.05393L18.3639 4.63971C14.8492 1.12506 9.1508 1.12506 5.63609 4.63971L7.0503 6.05393ZM16.9497 6.05393C19.6834 8.78755 19.6834 13.2196 16.9499 15.9533L18.3641 17.3675C21.8787 13.8528 21.8786 8.15435 18.3639 4.63971L16.9497 6.05393Z" fill="#1B53E3"/>
<circle cx="12" cy="11.0034" r="3" fill="white"/>
</svg>
