<svg width="16" height="16" viewBox="0 0 16 16" fill="none" xmlns="http://www.w3.org/2000/svg">
<g clip-path="url(#clip0_1_3403)">
<path d="M11.568 11H5.86278C5.20267 11 4.87262 11 4.60761 10.8782C4.3741 10.7709 4.17656 10.5985 4.03877 10.3815C3.88241 10.1354 3.83791 9.80833 3.74892 9.15425L3.04766 3.99998H14.0222C14.2434 3.99998 14.3539 3.99998 14.4317 4.04532C14.5 4.0851 14.5519 4.14783 14.5782 4.22231C14.6082 4.30722 14.5875 4.41585 14.5461 4.63311L13.6637 9.26582C13.5461 9.88309 13.4873 10.1917 13.3282 10.4228C13.1879 10.6265 12.9937 10.7872 12.7673 10.8869C12.5106 11 12.1964 11 11.568 11Z" fill="white"/>
<path d="M6.00004 14.6666C6.36823 14.6666 6.66671 14.3682 6.66671 14C6.66671 13.6318 6.36823 13.3333 6.00004 13.3333C5.63185 13.3333 5.33337 13.6318 5.33337 14C5.33337 14.3682 5.63185 14.6666 6.00004 14.6666Z" fill="white"/>
<path d="M11.3334 14.6666C11.7016 14.6666 12 14.3682 12 14C12 13.6318 11.7016 13.3333 11.3334 13.3333C10.9652 13.3333 10.6667 13.6318 10.6667 14C10.6667 14.3682 10.9652 14.6666 11.3334 14.6666Z" fill="white"/>
<path d="M1.33337 1.33331H2.20415C2.36816 1.33331 2.45017 1.33331 2.51616 1.36347C2.57432 1.39005 2.6236 1.4328 2.65814 1.48661C2.69733 1.54768 2.70893 1.62886 2.73212 1.79122L3.04766 3.99998M3.04766 3.99998L3.74892 9.15425C3.83791 9.80833 3.88241 10.1354 4.03877 10.3815C4.17656 10.5985 4.3741 10.7709 4.60761 10.8782C4.87262 11 5.20267 11 5.86278 11H11.568C12.1964 11 12.5106 11 12.7673 10.8869C12.9937 10.7872 13.1879 10.6265 13.3282 10.4228C13.4873 10.1917 13.5461 9.88309 13.6637 9.26582L14.5461 4.63311C14.5875 4.41585 14.6082 4.30722 14.5782 4.22231C14.5519 4.14783 14.5 4.0851 14.4317 4.04532C14.3539 3.99998 14.2434 3.99998 14.0222 3.99998H3.04766ZM6.66671 14C6.66671 14.3682 6.36823 14.6666 6.00004 14.6666C5.63185 14.6666 5.33337 14.3682 5.33337 14C5.33337 13.6318 5.63185 13.3333 6.00004 13.3333C6.36823 13.3333 6.66671 13.6318 6.66671 14ZM12 14C12 14.3682 11.7016 14.6666 11.3334 14.6666C10.9652 14.6666 10.6667 14.3682 10.6667 14C10.6667 13.6318 10.9652 13.3333 11.3334 13.3333C11.7016 13.3333 12 13.6318 12 14Z" stroke="white" stroke-linecap="round" stroke-linejoin="round"/>
</g>
<defs>
<clipPath id="clip0_1_3403">
<rect width="16" height="16" fill="white"/>
</clipPath>
</defs>
</svg>
