<svg width="52" height="41" viewBox="0 0 52 41" fill="none" xmlns="http://www.w3.org/2000/svg">
<g clip-path="url(#clip0_87_15840)">
<path d="M8.11048 8.8666L10.6129 5.14687L13.7242 5.55241L16.8354 5.01172L19.8113 9.00216L20.4876 8.25818L22.7196 9.54324L23.2606 11.2341L22.0432 12.5192L20.2847 12.9926L20.0142 15.2246L18.188 17.7947L16.3619 19.0121L17.1735 21.1764L19.0673 22.7996L22.2461 23.476L25.425 24.8963L26.6424 27.4664L27.1158 31.4569L21.6374 31.795L21.705 39.1672L5.8109 39.3701L5.608 32.1332L0.738281 31.4569L1.21165 27.4664L3.24062 24.5581L8.51612 22.5291L11.0186 21.3117L11.2215 19.1474L8.24558 16.442L6.55472 12.5192L4.93149 12.3839L4.72859 9.94905L6.6224 8.73162L8.11048 8.8666Z" fill="white"/>
<path d="M33 12.654L33.1353 11.3014L44.7685 11.5719L44.9037 12.4511L46.4593 13.4657L45.9859 15.0213H44.9714L44.3627 18.2677L42.8071 20.3644L41.0486 21.7171V24.6254L43.0776 25.6399L40.2369 28.0071L37.8021 28.6158L35.0967 26.8573L34.0822 25.7075L36.2465 24.8283L36.517 22.1905L34.8938 21.0407L32.9324 18.2677L32.5266 15.0889L31.3092 14.4802L31.1739 13.4657L31.6473 12.9246L33 12.654Z" fill="white"/>
<path d="M34.9087 25.7285L35.8551 27.423L38.5365 28.4719C38.5365 28.4719 40.4293 28.3106 40.6659 28.3106C40.9025 28.3106 43.0319 25.8092 43.0319 25.8092L45.3979 26.2127L48.0005 32.5871L48.6315 39.2843H29.0141C29.0141 39.2843 28.5993 31.5381 28.9148 31.4574C29.2302 31.3768 32.6215 25.9706 32.6215 25.9706L34.9087 25.7285Z" fill="#FFBC6E"/>
<path d="M32.5426 26.5352L30.0978 27.1L28.9148 28.3103L27.4952 30.0048L27.022 35.3303L27.1797 39.4454L31.3596 39.5261L30.3344 36.6213L30.0978 34.2006L30.1412 32.9701L31.9906 30.8924L32.5426 29.5207V26.5352Z" fill="white"/>
<path d="M45.3188 26.5352L47.7637 27.1L48.9467 28.3103L50.3663 30.0048L50.8395 35.3303L50.6818 39.4454L46.5018 39.5261L47.5271 36.6213L47.7637 34.2006L47.7203 32.9701L45.8709 30.8924L45.3188 29.5207V26.5352Z" fill="white"/>
<path d="M36.4622 13.9082H35.2871V15.1258H36.4622V13.9082Z" fill="black"/>
<path d="M42.3377 13.9082H41.1626V15.1258H42.3377V13.9082Z" fill="black"/>
<path d="M41.1629 17.561H39.9877C39.9877 18.2324 39.4609 18.7786 38.8126 18.7786C38.1643 18.7786 37.6375 18.2324 37.6375 17.561H36.4624C36.4624 18.9037 37.5169 19.9962 38.8126 19.9962C40.1084 19.9962 41.1629 18.9037 41.1629 17.561Z" fill="black"/>
<path d="M11.2482 10.0747H9.98633V11.3657H11.2482V10.0747Z" fill="black"/>
<path d="M17.5578 10.0747H16.2959V11.3657H17.5578V10.0747Z" fill="black"/>
<path d="M16.2955 13.9478H15.0337C15.0337 14.6594 14.4674 15.2388 13.7718 15.2388C13.0762 15.2388 12.5099 14.6594 12.5099 13.9478H11.248C11.248 15.3719 12.3806 16.5298 13.7718 16.5298C15.163 16.5298 16.2955 15.3719 16.2955 13.9478Z" fill="black"/>
<path d="M26.6275 34.0391H21.7378V39.2032H26.6275V34.0391Z" fill="white"/>
<path d="M5.64853 34.0391H0.758789V39.2032H5.64853V34.0391Z" fill="white"/>
<path d="M20.712 8.7027L20.2388 3.05446L18.2671 1.19861L7.62012 0.633789L7.69898 9.83234L10.8537 4.991L13.4563 5.47513L16.5321 4.991L20.712 8.7027Z" fill="#A1BBFF"/>
<path d="M5.94961 32.0942L0.823323 31.1049L0.823242 33.6012C2.53206 33.9308 6.00512 34.5995 6.22681 34.6372C6.44849 34.6748 6.13438 32.9575 5.94961 32.0942Z" fill="#A1BBFF"/>
<path d="M26.7788 31.0112C25.1162 31.2781 21.7078 31.8118 21.3753 31.8118L21.5599 34.8256L26.8711 34.1192L26.7788 31.0112Z" fill="#A1BBFF"/>
<path d="M35.2238 21.3713C35.2238 21.3713 31.4114 21.414 31.1882 21.4334C30.965 21.4528 29.6582 19.2911 29.6582 19.2911L31.596 9.02665L34.1197 5.6377L37.0378 4.42737L40.1924 4.34668L43.5048 5.6377L46.0893 8.0842L47.0231 13.9269L47.6067 17.5797L47.8433 19.5162L46.1871 21.2107L42.1428 21.0219L44.2943 19.1128L44.9252 15.9659L45.8716 14.9976L46.4237 13.1418C46.4237 13.1418 44.7675 13.6259 44.7675 12.9804C44.7675 12.3349 44.8464 11.4473 44.8464 11.4473H33.0164V12.819L31.439 13.2225C31.439 13.2225 30.6598 14.9508 31.01 14.9742C31.3601 14.9976 33.0164 15.5625 33.0164 15.5625L33.0952 18.4673L35.2246 21.3721L35.2238 21.3713Z" fill="#A1BBFF"/>
<path d="M51.0762 32.3851C51.0762 29.4722 49.2733 26.9337 46.591 26.0688L43.4395 25.0464L43.3441 25.0166L41.6768 24.4759V22.2546L41.7171 22.2336C41.9836 22.0916 42.2384 21.9326 42.475 21.7608L42.4939 21.747H45.4049C46.2558 21.747 47.0579 21.3589 47.6045 20.6819C48.1494 20.0066 48.3758 19.1238 48.2259 18.2589L46.8221 10.0939C46.1722 6.35157 43.0389 3.63477 39.3723 3.63477H38.2556C34.5891 3.63477 31.4557 6.35157 30.8058 10.0947L29.402 18.258C29.2522 19.123 29.4785 20.0066 30.0235 20.6819C30.57 21.3589 31.3713 21.747 32.2231 21.747H35.134L35.153 21.7608C35.3896 21.9326 35.6443 22.0916 35.9109 22.2336L35.9511 22.2546V24.4751L35.8998 24.4921L31.0369 26.0688C28.3539 26.9337 26.5518 29.4722 26.5518 32.3851V39.4777C26.5518 39.7714 26.782 40.0102 27.066 40.0102H50.5651C50.8483 40.0102 51.0793 39.7714 51.0793 39.4777V32.3851H51.0762ZM46.5153 15.087L46.6155 14.9732L47.2125 18.4469C47.3087 19.0004 47.1636 19.566 46.8142 19.9985C46.464 20.4326 45.9498 20.6811 45.4033 20.6811H43.6367L43.736 20.5569C44.6801 19.374 45.2006 17.8772 45.2006 16.3441V15.6591H45.2739C45.7471 15.6591 46.188 15.4557 46.5145 15.087H46.5153ZM45.2014 14.594V13.2239H45.2747C45.6391 13.2239 45.9356 13.5313 45.9356 13.9089C45.9356 14.2865 45.6391 14.594 45.2747 14.594H45.2014ZM31.8161 10.2835C32.3784 7.04872 35.0859 4.70148 38.254 4.70148H39.3708C42.5388 4.70148 45.2463 7.04872 45.8087 10.2827L46.1785 12.4323L46.0461 12.3613C45.796 12.2265 45.5366 12.1588 45.2747 12.1588H45.2014V11.4737C45.2014 11.18 44.9711 10.9412 44.6872 10.9412H42.8512V9.72356H41.8227V10.9412H40.5009V8.50597H39.4725V10.9412H32.9368C32.6537 10.9412 32.4226 11.18 32.4226 11.4737V12.1588H32.3493C32.0874 12.1588 31.8279 12.2265 31.5779 12.3613L31.4454 12.4323L31.8153 10.2827L31.8161 10.2835ZM32.4234 13.2247V14.5948H32.35C31.9857 14.5948 31.6891 14.2873 31.6891 13.9097C31.6891 13.5321 31.9857 13.2247 32.35 13.2247H32.4234ZM32.2207 20.6828C31.6749 20.6828 31.1607 20.4334 30.8098 20.0001C30.4612 19.5676 30.3161 19.002 30.4115 18.4477L31.0085 14.9748L31.1087 15.0886C31.4352 15.4573 31.8761 15.6607 32.3493 15.6607H32.4226V16.3457C32.4226 17.8796 32.9423 19.3756 33.8872 20.5585L33.9865 20.6828H32.2199H32.2207ZM33.4518 16.3449V12.0071H44.1738V16.3449C44.1738 19.4079 41.7691 21.9004 38.8132 21.9004C35.8573 21.9004 33.4526 19.4079 33.4526 16.3449H33.4518ZM36.6167 25.3764C36.832 25.307 36.9772 25.1029 36.9772 24.8681V22.6814L37.071 22.7089C37.6491 22.8791 38.2359 22.9654 38.8132 22.9654C39.3905 22.9654 39.9773 22.8791 40.5553 22.7089L40.6492 22.6814V24.8681C40.6492 25.1021 40.7943 25.3062 41.0096 25.3764L42.2494 25.7791L42.2202 25.8549C41.7312 27.1306 40.3621 27.9883 38.8132 27.9883C37.2642 27.9883 35.8951 27.1306 35.4061 25.8549L35.377 25.7791L36.6175 25.3772L36.6167 25.3764ZM27.577 38.9467V32.3867C27.577 29.9426 29.0897 27.8133 31.3406 27.0871L32.2365 26.7966L32.0677 28.5354C31.9731 29.5134 31.5606 30.4324 30.9044 31.1223C30.0558 32.0091 29.4864 33.6543 29.4864 35.2173C29.4864 36.5277 29.8744 37.876 30.5251 38.8257L30.6071 38.9459H27.577V38.9467ZM45.9317 38.6183C45.8434 38.703 45.7535 38.8015 45.6588 38.9193L45.6367 38.9467H31.988L31.966 38.9193C31.8713 38.8015 31.7822 38.703 31.6931 38.6183C31.0101 37.9672 30.514 36.5374 30.514 35.2173C30.514 33.8972 30.9754 32.561 31.6355 31.8703C32.4557 31.0069 32.9731 29.8603 33.0906 28.6411L33.3035 26.4496L34.3935 26.0962L34.4171 26.1648C35.026 27.8923 36.7918 29.0534 38.8116 29.0534C40.8314 29.0534 42.5972 27.8931 43.2061 26.1656L43.2305 26.097L44.3204 26.4496L44.5334 28.6411C44.6517 29.8603 45.1683 31.0077 45.9885 31.8703C46.6486 32.5602 47.11 33.9367 47.11 35.2165C47.11 36.4962 46.6139 37.9664 45.9309 38.6175L45.9317 38.6183ZM50.0485 38.9467H47.0185L47.1005 38.8265C47.7512 37.8768 48.1392 36.5277 48.1392 35.2181C48.1392 33.6551 47.569 32.0091 46.7212 31.1231C46.065 30.4324 45.6517 29.5134 45.5579 28.5354L45.3891 26.7966L46.285 27.0871C48.5359 27.8133 50.0485 29.9426 50.0485 32.3867V38.9467Z" fill="black"/>
<path d="M23.4728 23.4438L19.199 22.0753C18.7274 21.3443 17.986 20.8077 17.1209 20.627V20.0492V19.2924C19.0547 18.2394 20.4774 16.3012 20.7921 13.9806C20.8181 13.7861 20.8379 13.6054 20.8639 13.4238H21.054C21.7551 13.4238 22.4112 13.1422 22.9089 12.6387C23.4002 12.1288 23.6755 11.4583 23.6755 10.7409C23.6755 9.25867 22.5019 8.05801 21.0532 8.05801V4.70458C21.0532 2.11607 18.9947 0.00927734 16.4639 0.00927734H7.28617C6.92575 0.00927734 6.63079 0.311055 6.63079 0.679804V8.05721C5.18201 8.05721 4.00847 9.25786 4.00847 10.7401C4.00847 11.4574 4.28372 12.1288 4.77584 12.6379C5.27428 13.1406 5.92967 13.423 6.63079 13.423H6.82086C6.84058 13.6038 6.8666 13.7853 6.89263 13.9798C7.20731 16.3004 8.63006 18.2386 10.5639 19.2915V20.5317V20.6253C9.69871 20.8061 8.95815 21.3427 8.48574 22.0737L4.21195 23.4349C1.74105 24.2289 0.0761719 26.5431 0.0761719 29.1986V39.3396C0.0761719 39.7083 0.371134 40.0101 0.731555 40.0101H26.9532C27.3136 40.0101 27.6086 39.7083 27.6086 39.3396V29.1986C27.6086 26.5423 25.9445 24.2289 23.4728 23.4438ZM21.0532 10.7409V9.39987C21.774 9.39987 22.3639 10.0034 22.3639 10.7409C22.3639 11.0968 22.2259 11.4316 21.9775 11.6866C21.7283 11.9416 21.401 12.082 21.0532 12.082H20.994C21.0334 11.5922 21.0532 11.1428 21.0532 10.7409ZM6.63079 12.082C6.28299 12.082 5.95569 11.9408 5.70647 11.6866C5.45725 11.4316 5.32002 11.0968 5.32002 10.7409C5.32002 10.0034 5.90995 9.39987 6.63079 9.39987V10.7409C6.63079 11.1436 6.65051 11.593 6.68994 12.082H6.63079ZM17.1201 22.0148C17.8804 22.29 18.4308 23.0412 18.4308 23.9126V24.6977C18.2274 24.6243 18.005 24.5839 17.7755 24.5839C17.546 24.5839 17.3228 24.6243 17.1201 24.6977V22.0148ZM11.8754 20.0484V19.8418C12.5048 20.0299 13.1602 20.1299 13.8424 20.1299C14.5246 20.1299 15.18 20.029 15.8093 19.8418V20.5325V23.9126C15.8093 25.0189 14.9244 25.925 13.8424 25.925C12.7603 25.925 11.8754 25.0197 11.8754 23.9126V20.0484ZM7.94235 1.35114H16.4647C18.2739 1.35114 19.7424 2.85357 19.7424 4.70458V7.64247C19.087 6.34821 18.2084 5.53648 17.1855 4.41652C17.0089 4.2156 16.7265 4.14863 16.4773 4.24223C14.8976 4.84578 12.7863 4.84578 11.2201 4.24223C10.9708 4.14137 10.6893 4.20834 10.5055 4.41006C9.47631 5.53002 8.59773 6.34821 7.94235 7.64247V1.35114ZM8.19156 13.7926C8.03462 12.646 7.95575 11.66 7.94235 10.862C8.18526 10.2318 9.52915 7.91116 11.2461 5.84471C12.8912 6.37484 14.8519 6.37484 16.5033 5.85117C18.2274 7.91681 19.4995 10.231 19.7416 10.8612C19.7282 11.6592 19.6501 12.6452 19.4924 13.7918C19.1059 16.6425 16.68 18.7889 13.8416 18.7889C11.0032 18.7889 8.57722 16.6425 8.19078 13.7918L8.19156 13.7926ZM9.2539 23.9134C9.2539 23.0412 9.80439 22.29 10.5647 22.0156V24.6985C10.3612 24.6251 10.1388 24.5848 9.90928 24.5848C9.67978 24.5848 9.45659 24.6251 9.2539 24.6985V23.9134ZM5.32081 38.669H1.38694V34.7322L5.32002 35.2349L5.32081 38.669ZM5.32081 33.8874L1.38773 33.3847V32.0501L5.32081 32.5528V33.8874ZM26.2986 38.669H22.3655V35.2349L26.2986 34.7322V38.669ZM26.2986 33.3839L22.3655 33.8866V32.552L26.2986 32.0493V33.3839ZM26.2986 30.701L22.3655 31.2037V28.6079H21.0547V38.6682H6.63158V28.6079H5.32081V31.2037L1.38773 30.701V29.1986C1.38773 27.1329 2.67878 25.3352 4.60628 24.7187L7.96916 23.6455C7.96285 23.7327 7.94313 23.8198 7.94313 23.9134V26.5963C7.94313 26.9651 8.2381 27.2669 8.59852 27.2669C8.95894 27.2669 9.2539 26.9651 9.2539 26.5963C9.2539 26.2276 9.54886 25.9258 9.90928 25.9258C10.2697 25.9258 10.5647 26.2276 10.5647 26.5963C10.5647 26.9651 10.8596 27.2669 11.2201 27.2669C11.5805 27.2669 11.8754 26.9651 11.8754 26.5963V26.5762C12.4259 27.0054 13.101 27.2669 13.8424 27.2669C14.5837 27.2669 15.258 27.0054 15.8093 26.5762V26.5963C15.8093 26.9651 16.1043 27.2669 16.4647 27.2669C16.8251 27.2669 17.1201 26.9651 17.1201 26.5963C17.1201 26.2276 17.415 25.9258 17.7755 25.9258C18.1359 25.9258 18.4308 26.2276 18.4308 26.5963C18.4308 26.9651 18.7258 27.2669 19.0862 27.2669C19.4466 27.2669 19.7416 26.9651 19.7416 26.5963V23.9134C19.7416 23.8198 19.7219 23.7327 19.7156 23.6455L23.0785 24.7252C25.006 25.3352 26.297 27.1329 26.297 29.1986V30.701H26.2986Z" fill="black"/>
</g>
<defs>
<clipPath id="clip0_87_15840">
<rect width="51" height="40" fill="white" transform="translate(0.0761719 0.0102539)"/>
</clipPath>
</defs>
</svg>
