<svg width="43" height="41" viewBox="0 0 43 41" fill="none" xmlns="http://www.w3.org/2000/svg">
<path fill-rule="evenodd" clip-rule="evenodd" d="M16.9683 6.32617L15.7544 7.80957L13.7312 9.02347L7.66145 9.29323L5.77319 8.7537L4.55918 10.2374L4.82904 12.1257L7.3918 13.6094L8.60573 16.8466L11.5731 19.2745L11.3034 21.8372L5.9081 23.4558L3.34534 25.3442L1.45703 29.6604L1.59203 39.7765H26.7288V28.2741L25.1963 25.2093L19.6662 22.2419L17.1034 21.7024L16.8337 19.0047L19.5313 16.9815L21.4196 13.7443L21.2848 9.02347L18.1825 7.94441L16.9683 6.32617Z" fill="white"/>
<path d="M14.6267 25.4043L15.8782 39.3575H11.9053L13.1567 25.4043L13.8917 25.9603L14.6267 25.4043Z" fill="#FFBC6E"/>
<path d="M18.6794 22.8748L16.5407 26.1237L15.7858 25.36L13.8921 23.4442L16.5407 22.1045L18.6794 22.8748Z" fill="white"/>
<path d="M13.1573 26.2377L11.9985 25.3601L13.8923 23.4443L15.786 25.3601L14.6273 26.2377L13.8923 26.7937L13.1573 26.2377Z" fill="#FFBC6E"/>
<path d="M13.8923 23.4442L11.9986 25.36L11.2437 26.1237L9.10498 22.8748L11.2437 22.1045L13.8923 23.4442Z" fill="white"/>
<path d="M20.4183 9.36062H19.6766C18.5378 9.36062 17.5247 8.62377 17.1671 7.5252L16.4454 5.34144C16.4454 7.55869 14.6642 9.36062 12.4725 9.36062H7.17529V8.0209C7.17529 6.17207 7.9169 4.49742 9.11539 3.28496C10.3139 2.07251 11.9692 1.32227 13.7968 1.32227C17.4518 1.32227 20.4183 4.32325 20.4183 8.0209V9.36062Z" fill="#A1BBFF"/>
<path d="M12.1441 11.3447H10.8198V12.6845H12.1441V11.3447Z" fill="#383838"/>
<path d="M17.441 11.3447H16.1167V12.6845H17.441V11.3447Z" fill="#383838"/>
<path d="M17.4413 14.6943H16.117C16.117 15.8023 15.2258 16.7039 14.1306 16.7039C13.0354 16.7039 12.1441 15.8023 12.1441 14.6943H10.8198C10.8198 16.5411 12.305 18.0437 14.1306 18.0437C15.9561 18.0437 17.4413 16.5411 17.4413 14.6943Z" fill="#383838"/>
<path d="M22.1439 22.9212L17.4852 21.3176V19.6473C19.7589 18.5248 21.379 16.3399 21.6224 13.7742H21.6572C23.1938 13.7742 24.4385 12.5782 24.4385 11.1016C24.4385 9.62496 23.1938 8.42897 21.6572 8.42897V7.76082C21.6572 3.70513 18.2292 0.411133 14.0086 0.411133C9.78794 0.411133 6.35998 3.70513 6.35998 7.76082V8.42897C4.82331 8.42897 3.57867 9.62496 3.57867 11.1016C3.57867 12.5782 4.82331 13.7742 6.35998 13.7742H6.39474C6.63811 16.3399 8.25822 18.5248 10.5319 19.6473V21.3176L5.87325 22.9212C2.83467 23.9635 0.797363 26.743 0.797363 29.8433V39.8322C0.797363 40.1997 1.11026 40.5003 1.49269 40.5003H26.5245C26.9069 40.5003 27.2198 40.1997 27.2198 39.8322V29.8433C27.2198 26.743 25.1825 23.9635 22.1439 22.9212ZM21.6572 9.76528C22.422 9.76528 23.0478 10.3666 23.0478 11.1016C23.0478 11.8366 22.422 12.4379 21.6572 12.4379V9.76528ZM6.35998 12.4379C5.59512 12.4379 4.96932 11.8366 4.96932 11.1016C4.96932 10.3666 5.59512 9.76528 6.35998 9.76528V12.4379ZM17.965 22.9012L16.6786 24.752L15.1837 23.3087L16.8386 22.5203L17.965 22.9012ZM14.0086 22.38L11.9226 21.3778V20.1684C12.5901 20.3555 13.2854 20.4557 14.0086 20.4557C14.7317 20.4557 15.427 20.3555 16.0946 20.1684V21.3778L14.0086 22.38ZM14.9403 24.9658L14.0086 25.6339L13.0768 24.9658L14.0086 24.0704L14.9403 24.9658ZM7.75063 7.76082C7.75063 4.44678 10.5598 1.74744 14.0086 1.74744C17.4574 1.74744 20.2665 4.44678 20.2665 7.76082V8.42897H20.1831C19.2861 8.42897 18.4934 7.88108 18.2083 7.05926L17.4504 4.8744C17.3392 4.56705 17.0124 4.37996 16.6786 4.42673C16.3449 4.48019 16.0946 4.76081 16.0946 5.0882C16.0946 6.93231 14.537 8.42897 12.6179 8.42897H7.75063V7.76082ZM7.75063 13.106V9.76528H12.6179C14.4327 9.76528 16.0181 8.80982 16.8525 7.38665L16.8872 7.48019C17.36 8.84991 18.6881 9.76528 20.1831 9.76528H20.2665V13.106C20.2665 16.4201 17.4574 19.1194 14.0086 19.1194C10.5598 19.1194 7.75063 16.4201 7.75063 13.106ZM11.1786 22.5203L12.8335 23.3087L11.3385 24.752L10.0522 22.9012L11.1786 22.5203ZM11.2898 39.164H7.05531V28.4736H5.66465V39.164H2.18802V29.8433C2.18802 27.3043 3.8568 25.0326 6.33912 24.1773L8.70323 23.3689L10.6501 26.1684C10.7614 26.3355 10.9491 26.4491 11.1577 26.4691H11.2273C11.4081 26.4691 11.5888 26.4023 11.7209 26.2753L12.0825 25.9212L12.5067 26.2286L11.2898 39.164ZM12.6875 39.164L13.8208 27.1105C13.8834 27.1239 13.946 27.1373 14.0086 27.1373C14.0712 27.1373 14.1337 27.1239 14.1963 27.1105L15.3297 39.164H12.6875ZM25.8291 39.164H22.3525V28.4736H20.9618V39.164H16.7273L15.5105 26.2286L15.9346 25.9212L16.2962 26.2753C16.4283 26.4023 16.6091 26.4691 16.7899 26.4691H16.8594C17.068 26.4491 17.2558 26.3355 17.367 26.1684L19.3139 23.3689L21.678 24.1773C24.1603 25.0326 25.8291 27.3043 25.8291 29.8433V39.164Z" fill="#383838"/>
<g clip-path="url(#clip0_87_15913)">
<path d="M25.6058 38.9724V37.6946H24.7199C24.7141 37.6946 24.708 37.6946 24.7023 37.6946C24.0285 37.6946 23.4475 37.2413 23.3153 36.6094C23.3146 36.6049 23.3134 36.6004 23.3127 36.5959L22.8216 33.9725C22.7488 33.5763 22.8752 33.1622 23.161 32.8641C23.4325 32.5817 23.8182 32.4202 24.22 32.4202H25.6062V29.1122C25.3775 29.1491 25.145 29.1711 24.9099 29.1764C24.9079 29.1764 24.9064 29.1764 24.9045 29.1764C24.8869 29.1764 24.8696 29.1764 24.852 29.1764C23.1146 29.1764 21.6538 27.918 21.4987 26.2847C21.3508 25.461 21.7629 24.638 22.5332 24.2265L31.5695 19.3983C31.5725 19.3968 31.5756 19.3953 31.5783 19.3938C31.5798 19.393 31.5814 19.3919 31.5829 19.3912C31.5859 19.3897 31.589 19.3886 31.5921 19.3871C31.6024 19.3818 31.6128 19.377 31.6235 19.3725C31.6288 19.3703 31.6338 19.368 31.6392 19.3658C31.6392 19.3658 31.64 19.3658 31.64 19.3654C31.643 19.3643 31.6461 19.3628 31.6491 19.3617C31.6633 19.3561 31.6779 19.3512 31.6924 19.3468C31.6951 19.346 31.6974 19.3453 31.7001 19.3445C31.7012 19.3445 31.702 19.3442 31.7032 19.3438C31.7093 19.3419 31.7158 19.3401 31.7219 19.3386C31.7315 19.3359 31.7407 19.3337 31.7503 19.3318C31.7549 19.3307 31.7595 19.3296 31.7641 19.3289C31.7675 19.3281 31.7713 19.3274 31.7748 19.3266C31.7805 19.3255 31.7859 19.3251 31.7916 19.324C31.8012 19.3225 31.8108 19.321 31.8204 19.3199C31.8246 19.3195 31.8288 19.3192 31.833 19.3188C31.8334 19.3188 31.8338 19.3188 31.8341 19.3188C31.8407 19.318 31.8468 19.3177 31.8533 19.3169C31.8621 19.3162 31.8709 19.3162 31.8797 19.3158C31.8851 19.3158 31.8908 19.3154 31.8962 19.3154C31.9 19.3154 31.9039 19.3154 31.9073 19.3154C31.9127 19.3154 31.9176 19.3154 31.923 19.3158C31.9322 19.3158 31.9414 19.3162 31.9502 19.3169C31.9563 19.3173 31.9621 19.318 31.9682 19.3184C31.9694 19.3184 31.9705 19.3184 31.9713 19.3184C31.9747 19.3184 31.9785 19.3192 31.982 19.3195C31.9923 19.3207 32.0023 19.3221 32.0126 19.324C32.0176 19.3248 32.0226 19.3255 32.0276 19.3262C32.0318 19.327 32.036 19.3281 32.0402 19.3289C32.0437 19.3296 32.0471 19.3304 32.0506 19.3311C32.0613 19.3333 32.072 19.3359 32.0823 19.3386C32.0877 19.3401 32.0927 19.3415 32.098 19.343C32.1011 19.3438 32.1038 19.3445 32.1069 19.3456C32.1076 19.3456 32.1084 19.346 32.1092 19.3464C32.1249 19.3512 32.1402 19.3565 32.1551 19.3624C32.1559 19.3624 32.1567 19.3632 32.1574 19.3632C32.1605 19.3643 32.1632 19.3658 32.1662 19.3669C32.1697 19.3684 32.1727 19.3695 32.1762 19.371C32.1892 19.3766 32.2018 19.3822 32.2145 19.3886C32.2164 19.3893 32.2179 19.39 32.2199 19.3908C32.221 19.3915 32.2221 19.3923 32.2233 19.3927C32.2248 19.3934 32.2264 19.3941 32.2279 19.3949C32.229 19.3953 32.2298 19.396 32.231 19.3964C32.2317 19.3968 32.2325 19.3971 32.2333 19.3975L41.2684 24.2269C42.0386 24.6384 42.4504 25.4617 42.3029 26.2851C42.1478 27.918 40.687 29.1767 38.9496 29.1767C38.9331 29.1767 38.9162 29.1767 38.8998 29.1767C38.8979 29.1767 38.8959 29.1767 38.894 29.1767C38.6588 29.1715 38.426 29.1495 38.1973 29.1126V32.4206H39.5743C39.9791 32.4191 40.3667 32.5806 40.6406 32.8656C40.9252 33.1626 41.0516 33.5767 40.9784 33.9748L40.4897 36.5956C40.4889 36.6 40.4878 36.6049 40.487 36.6094C40.3549 37.2417 39.7738 37.695 39.1001 37.695C39.0943 37.695 39.0882 37.695 39.0825 37.695H38.1973V38.9728H42.4014V40.3158H21.4014V38.9728H25.6058V38.9724Z" fill="#383838"/>
<path d="M24.2242 33.7633H24.2199C24.2046 33.7625 24.1943 33.7663 24.1851 33.77L24.6662 36.3393C24.67 36.343 24.6819 36.3516 24.7026 36.3516C24.7068 36.3516 24.711 36.3516 24.7152 36.3516H27.8751C27.8793 36.3516 27.8836 36.3516 27.8878 36.3516C27.91 36.3516 27.9222 36.3419 27.9238 36.3416L28.4033 33.7704C28.3941 33.7663 28.3823 33.7633 28.3688 33.7633C28.3673 33.7633 28.3658 33.7633 28.3643 33.7633H24.2249H24.2242Z" fill="#A1BBFF"/>
<path d="M26.9849 32.4202H28.3684C28.7701 32.4202 29.1558 32.5817 29.4282 32.8649C29.7128 33.1618 29.8392 33.576 29.766 33.9744L29.2773 36.5952C29.2765 36.5997 29.2754 36.6045 29.2746 36.609C29.1424 37.2413 28.5614 37.6946 27.8877 37.6946C27.8819 37.6946 27.8758 37.6946 27.87 37.6946H26.9849V38.9724H31.2119V29.1155C30.1257 28.9447 29.1287 28.4257 28.3978 27.6572C27.9972 28.0784 27.5161 28.4246 26.9849 28.6798V32.4198V32.4202Z" fill="white"/>
<path d="M31.9013 27.8334C32.9795 27.8051 33.9834 27.3022 34.6055 26.4982L31.9013 21.4409L29.1972 26.4979C29.8192 27.3022 30.8231 27.8051 31.9013 27.8334Z" fill="#A1BBFF"/>
<path d="M22.8594 26.066C22.8644 26.0906 22.8678 26.1156 22.8701 26.1406C22.9494 27.0953 23.8169 27.8336 24.8523 27.8336C24.8618 27.8336 24.8718 27.8336 24.8817 27.8336C26.0875 27.8059 27.2021 27.1852 27.7958 26.2118L30.2402 21.6406L23.1968 25.4041C22.9429 25.5399 22.8077 25.8059 22.8598 26.066H22.8594Z" fill="#FFBC6E"/>
<path d="M38.9216 27.8336C39.9692 27.8474 40.8517 27.1038 40.9313 26.1409C40.9333 26.1159 40.9371 26.091 40.9421 26.0663C40.9942 25.8059 40.859 25.5399 40.605 25.4045L33.5631 21.6406L36.0053 26.2081C36.5982 27.1837 37.7143 27.8059 38.9216 27.8336Z" fill="#FFBC6E"/>
<path d="M39.087 36.3516C39.0913 36.3516 39.0955 36.3516 39.0997 36.3516C39.1219 36.3516 39.1342 36.3419 39.1357 36.3416L39.6152 33.7704C39.6049 33.7659 39.593 33.7633 39.5808 33.7633C39.5796 33.7633 39.5777 33.7633 39.5762 33.7633H35.433C35.4196 33.7625 35.4081 33.7659 35.3982 33.77L35.8788 36.3393C35.8827 36.3431 35.8945 36.352 35.9152 36.352C35.9191 36.352 35.9237 36.352 35.9279 36.352H39.0878L39.087 36.3516Z" fill="#A1BBFF"/>
<path d="M36.818 37.6945H35.932C35.9263 37.6945 35.9202 37.6945 35.9144 37.6945C35.2411 37.6945 34.6596 37.2412 34.5275 36.6093C34.5267 36.6048 34.5256 36.6003 34.5248 36.5954L34.0338 33.972C33.961 33.5758 34.0874 33.1617 34.3731 32.8636C34.6447 32.5812 35.0304 32.4197 35.4322 32.4197H36.8184V28.6793C36.2871 28.4241 35.8064 28.0779 35.4058 27.6567C34.6746 28.4253 33.6776 28.9446 32.5913 29.1151V38.9719H36.8184L36.818 37.6945Z" fill="white"/>
</g>
<defs>
<clipPath id="clip0_87_15913">
<rect width="21" height="21" fill="white" transform="matrix(-1 0 0 1 42.4014 19.3154)"/>
</clipPath>
</defs>
</svg>
