<svg width="16" height="16" viewBox="0 0 16 16" fill="none" xmlns="http://www.w3.org/2000/svg">
<g id="hand-extended-outline">
<g id="Shape">
<path fill-rule="evenodd" clip-rule="evenodd" d="M13.8369 8.6726L8.00673 14.4468L2.1765 8.6726M2.17626 8.67253C1.12783 7.6523 0.741035 6.12981 1.17539 4.73288C1.60974 3.33595 2.79166 2.30122 4.23375 2.05538C5.67585 1.80955 7.13383 2.39425 8.00648 3.56837C8.88278 2.40293 10.3377 1.82599 11.7745 2.07413C13.2114 2.32227 14.3885 3.35373 14.8232 4.74556C15.2578 6.1374 14.877 7.65543 13.8367 8.6772" fill="white"/>
<path d="M14.1888 9.02785C14.385 8.83353 14.3865 8.51696 14.1922 8.32075C13.9979 8.12455 13.6813 8.12303 13.4851 8.31734L14.1888 9.02785ZM8.00673 14.4468L7.65488 14.8021C7.84975 14.9951 8.16371 14.9951 8.35857 14.8021L8.00673 14.4468ZM2.52835 8.31734C2.33215 8.12303 2.01557 8.12455 1.82125 8.32075C1.62693 8.51696 1.62846 8.83353 1.82466 9.02785L2.52835 8.31734ZM1.82756 9.03087C2.02546 9.22345 2.34202 9.21914 2.5346 9.02123C2.72718 8.82332 2.72286 8.50677 2.52496 8.31419L1.82756 9.03087ZM8.00648 3.56837L7.60518 3.86662C7.69922 3.99316 7.84744 4.06792 8.00509 4.06836C8.16274 4.0688 8.31137 3.99486 8.40611 3.86885L8.00648 3.56837ZM13.4863 8.32048C13.2893 8.51399 13.2865 8.83056 13.48 9.02756C13.6735 9.22457 13.9901 9.22741 14.1871 9.03391L13.4863 8.32048ZM13.4851 8.31734L7.65488 14.0916L8.35857 14.8021L14.1888 9.02785L13.4851 8.31734ZM8.35857 14.0916L2.52835 8.31734L1.82466 9.02785L7.65488 14.8021L8.35857 14.0916ZM2.52496 8.31419C1.6114 7.42521 1.27436 6.09856 1.65284 4.88134L0.697935 4.58442C0.207707 6.16105 0.644256 7.8794 1.82756 9.03087L2.52496 8.31419ZM1.65284 4.88134C2.03132 3.66411 3.06119 2.76249 4.31778 2.54827L4.14973 1.56249C2.52212 1.83996 1.18816 3.0078 0.697935 4.58442L1.65284 4.88134ZM4.31778 2.54827C5.57436 2.33406 6.84479 2.84354 7.60518 3.86662L8.40778 3.27011C7.42288 1.94495 5.77733 1.28503 4.14973 1.56249L4.31778 2.54827ZM8.40611 3.86885C9.16969 2.85334 10.4374 2.35062 11.6894 2.56684L11.8596 1.58142C10.2379 1.30137 8.59588 1.95252 7.60685 3.26788L8.40611 3.86885ZM11.6894 2.56684C12.9415 2.78305 13.9671 3.68183 14.3459 4.89462L15.3004 4.59651C14.8098 3.02563 13.4813 1.86148 11.8596 1.58142L11.6894 2.56684ZM14.3459 4.89462C14.7247 6.1074 14.3928 7.43016 13.4863 8.32048L14.1871 9.03391C15.3612 7.88071 15.791 6.16739 15.3004 4.59651L14.3459 4.89462Z" fill="white"/>
</g>
</g>
</svg>
