<svg width="55" height="38" viewBox="0 0 55 38" fill="none" xmlns="http://www.w3.org/2000/svg">
<path d="M7.00978 5.75879L19.2334 5.88184L20.3449 7.98126L22.4439 8.84556L23.0612 10.5742L21.5796 12.4262L19.9745 12.6732L19.7275 14.0314L18.9867 16.6243L16.2703 18.2294L16.3938 20.0815L13.5539 21.3162L10.7141 20.0815L11.4549 18.1059L9.47936 16.9947L7.38034 13.0436L6.51604 12.4262L4.41699 9.9568L5.38961 8.98786L7.62705 8.59862L7.00978 5.75879Z" fill="white"/>
<path d="M41.5351 12.2344C42.0432 12.0436 43.8112 11.2551 44.6317 10.8848L46.1406 11.9171L48.8402 12.7905C48.8931 14.2462 48.999 17.237 48.999 17.5546C48.999 17.9516 47.5698 20.7307 47.014 20.8895C46.5693 21.0165 45.6112 21.4188 45.1877 21.6041C45.373 23.0069 45.7594 25.9871 45.8229 26.6858C45.8865 27.3846 44.1555 27.8239 43.2821 27.9563C42.5675 27.2416 41.0906 25.7489 40.9 25.4948C40.7095 25.2407 41.0853 23.0598 41.297 22.0011C40.106 20.8366 37.6922 18.428 37.5652 18.1104C37.4381 17.7928 37.4063 14.6432 37.4062 13.1081C38.5708 12.8964 41.027 12.4252 41.5351 12.2344Z" fill="white"/>
<path d="M20.1613 2.9037V7.33676C20.1613 6.63981 19.5856 6.07006 18.8814 6.07006H13.7627C15.6632 6.07006 17.2435 4.69566 17.544 2.89746L17.6015 2.9037H20.1613Z" fill="#A1BBFF"/>
<path d="M17.6017 1.00293V2.26963C17.6017 2.48504 17.5828 2.6942 17.5441 2.89635C17.2437 4.69454 15.6626 6.06895 13.7628 6.06895H8.64413C7.93993 6.06895 7.36426 6.63869 7.36426 7.33565V4.80225C7.36426 2.70591 9.08574 1.00293 11.2031 1.00293H17.6017Z" fill="#A1BBFF"/>
<path d="M6.72637 13.0449H6.7587C6.98266 15.4784 8.47467 17.5506 10.5684 18.6151V19.4455H11.849V19.1099C12.4641 19.2871 13.1037 19.3823 13.77 19.3823C14.4364 19.3823 15.0759 19.2871 15.691 19.1099V19.4455H16.9717V18.6151C19.0654 17.5506 20.5574 15.4784 20.7813 13.0449H20.8137C21.499 13.0449 22.1393 12.7788 22.6259 12.3035C23.1061 11.8219 23.375 11.1882 23.375 10.51C23.375 9.1098 22.2292 7.975 20.8137 7.975V2.90508C20.8137 2.55621 20.5258 2.27134 20.1733 2.27134H18.2523V1.00386C18.2523 0.654988 17.9645 0.370117 17.612 0.370117H11.2087C8.73726 0.370117 6.72637 2.36031 6.72637 4.8063V7.975C5.31086 7.975 4.16504 9.10902 4.16504 10.51C4.16504 11.1882 4.43395 11.8219 4.9142 12.3035C5.40075 12.7788 6.04109 13.0449 6.72637 13.0449ZM20.8129 9.24248C21.5171 9.24248 22.0936 9.813 22.0936 10.51C22.0936 10.8456 21.9587 11.1624 21.7158 11.4036C21.4721 11.6448 21.152 11.7774 20.8129 11.7774V9.24248ZM18.0662 3.53882H19.5322V5.55399C19.3335 5.48452 19.1159 5.44004 18.8919 5.44004H16.9007C17.4385 4.92025 17.8423 4.26777 18.0662 3.53882ZM8.00703 4.8063C8.00703 3.05727 9.44147 1.6376 11.2087 1.6376H16.9717V2.27134C16.9717 4.02037 15.5372 5.44004 13.77 5.44004H8.64737C8.42341 5.44004 8.20576 5.48452 8.00703 5.55399V4.8063ZM8.00703 7.34126C8.00703 6.99239 8.29487 6.70752 8.64737 6.70752H18.8927C19.2452 6.70752 19.533 6.99239 19.533 7.34126V12.4112C19.533 15.5541 16.9465 18.1148 13.77 18.1148C10.5936 18.1148 8.00703 15.5549 8.00703 12.4112V7.34126ZM6.72637 9.24248V11.7774C6.38728 11.7774 6.06711 11.644 5.82344 11.4036C5.57976 11.1624 5.4457 10.8456 5.4457 10.51C5.4457 9.813 6.02216 9.24248 6.72637 9.24248Z" fill="#382823"/>
<path d="M18.2522 21.0691V24.9083L15.6594 23.0773L15.6917 23.0078H15.5639L13.7715 21.7411L16.332 20.4736L18.2522 21.0691Z" fill="white"/>
<path d="M15.6922 23.0088L15.6599 23.0783L15.5645 23.0088H15.6922Z" fill="#A1BBFF"/>
<path d="M14.4121 25.543L15.6928 36.9472H11.8516L13.1322 25.543H14.4121Z" fill="#FFBC6E"/>
<path d="M15.5649 23.0079L13.7725 21.7412L11.98 23.0079L11.8838 23.0774L13.1321 25.5421H14.412L15.6603 23.0774L15.5649 23.0079Z" fill="#FFBC6E"/>
<path d="M13.7726 21.7411L11.9801 23.0078H11.8516L11.8839 23.0773L9.29102 24.9083V21.0691L11.212 20.4736L13.7726 21.7411Z" fill="white"/>
<path d="M22.984 22.5327L18.2533 21.0693V24.9085L15.6604 23.0775L14.4121 25.5422L15.692 36.9464H26.5745V27.3669C26.5745 25.1496 25.1211 23.1922 22.9833 22.5327H22.984Z" fill="white"/>
<path d="M9.2907 24.9085V21.0693L4.55997 22.5327C2.42212 23.1914 0.96875 25.1496 0.96875 27.3669V36.9464H11.8512L13.1319 25.5422L11.8836 23.0775L9.2907 24.9085Z" fill="white"/>
<path d="M11.9801 23.0088L11.8839 23.0783L11.8516 23.0088H11.9801Z" fill="#A1BBFF"/>
<path d="M11.1117 9.85156H9.83496V11.1151H11.1117V9.85156Z" fill="#382823"/>
<path d="M17.4955 9.85156H16.2188V11.1151H17.4955V9.85156Z" fill="#382823"/>
<path d="M16.2182 13.6416H14.9415C14.9415 14.3378 14.369 14.9052 13.6648 14.9052C12.9606 14.9052 12.388 14.3386 12.388 13.6416H11.1113C11.1113 15.0355 12.2564 16.1688 13.6648 16.1688C15.0732 16.1688 16.2182 15.0355 16.2182 13.6416Z" fill="#382823"/>
<path d="M41.2554 25.8061V37.087L37.9985 31.1781L39.627 30.1034L37.9985 28.4917L41.2554 24.7314V25.8061Z" fill="white"/>
<path d="M37.9978 31.1781L41.2547 37.087H32.5708V30.5764C32.5708 28.6962 33.8026 27.0362 35.6155 26.4774L41.2547 24.7314L37.9978 28.4917L39.6263 30.1034L37.9978 31.1781Z" fill="#FFBC6E"/>
<path d="M45.5972 24.7314L48.8532 28.4917L47.2256 30.1034L48.8532 31.1781L45.5972 37.087V25.8061V24.7314Z" fill="white"/>
<path d="M54.2811 37.087H45.5972L48.854 31.1781L47.2256 30.1034L48.854 28.4917L45.5972 24.7314L51.2364 26.4774C53.0493 27.0362 54.2811 28.6962 54.2811 30.5764V37.087Z" fill="#FFBC6E"/>
<path d="M45.5973 25.8057V37.0866H41.2554V25.8057C41.2554 26.9928 42.2269 27.9543 43.4263 27.9543C44.6258 27.9543 45.5973 26.9928 45.5973 25.8057Z" fill="white"/>
<path d="M53.7386 17.2105C53.7386 18.1502 53.1251 18.94 52.2789 19.2304C52.5178 19.5746 52.6535 19.9874 52.6535 20.4339C52.6535 21.6209 51.6819 22.5825 50.4825 22.5825C50.0322 22.5825 49.6143 22.4482 49.272 22.2172C48.9787 23.0555 48.1759 23.6572 47.2256 23.6572C46.5743 23.6572 45.9939 23.3723 45.5972 22.9267V22.1314C46.2218 21.8629 46.7856 21.4812 47.2635 21.0091C48.2461 20.0366 48.8541 18.6942 48.8541 17.2113V12.914C46.9977 12.914 45.4127 12.0493 44.7944 10.8349C44.9734 10.6686 45.1414 10.4962 45.2991 10.3135C46.1839 9.31999 46.803 8.14305 47.0687 6.85449C49.4242 8.12744 51.0258 10.6039 51.0258 13.451V15.1431C51.1993 15.0947 51.3783 15.0627 51.5684 15.0627C52.7678 15.0627 53.7394 16.0242 53.7394 17.2113L53.7386 17.2105Z" fill="#A1BBFF"/>
<path d="M43.4261 5.93047C44.7454 5.93047 45.9882 6.26373 47.0678 6.85454C46.8021 8.14388 46.183 9.32004 45.2982 10.3136C45.1405 10.4962 44.9725 10.6679 44.7935 10.8349C43.1107 12.4411 40.6905 13.4511 37.9983 13.4511V17.2114C37.9983 18.6942 38.6063 20.0366 39.5889 21.0091C40.0667 21.4821 40.6306 21.8629 41.2551 22.1314V22.9267C40.8593 23.3724 40.2781 23.6572 39.6267 23.6572C38.6772 23.6572 37.8737 23.0555 37.5803 22.2173C37.2381 22.4483 36.8201 22.5825 36.3698 22.5825C35.1704 22.5825 34.1989 21.621 34.1989 20.4339C34.1989 19.9883 34.3345 19.5746 34.5734 19.2304C33.7265 18.9401 33.1138 18.151 33.1138 17.2106C33.1138 16.0235 34.0853 15.0619 35.2847 15.0619C35.4748 15.0619 35.6538 15.0939 35.8273 15.1423V13.4503C35.8273 11.3766 36.6798 9.49643 38.0527 8.13217C39.4311 6.77337 41.3308 5.92969 43.4261 5.92969V5.93047Z" fill="#A1BBFF"/>
<path d="M51.3939 25.962L46.1396 24.3347V23.9695C46.4763 24.1146 46.8454 24.195 47.2255 24.195C48.1702 24.195 49.0274 23.7119 49.5163 22.9486C49.8199 23.0618 50.1456 23.1203 50.4823 23.1203C51.9807 23.1203 53.1959 21.9168 53.1959 20.4347C53.1959 20.1015 53.1359 19.7737 53.0168 19.4732C53.7928 18.9901 54.2817 18.1409 54.2817 17.2114C54.2817 15.7285 53.0657 14.5258 51.5682 14.5258V13.4511C51.5682 9.00868 47.9155 5.39355 43.4268 5.39355C41.2559 5.39355 39.215 6.23178 37.6678 7.75213C36.1316 9.28341 35.2847 11.3025 35.2847 13.4519V14.5266C33.7864 14.5266 32.5712 15.7301 32.5712 17.2122C32.5712 18.1417 33.0593 18.9901 33.8361 19.474C33.717 19.7745 33.657 20.1023 33.657 20.4355C33.657 21.9184 34.8731 23.1211 36.3706 23.1211C36.7073 23.1211 37.033 23.0618 37.3366 22.9494C37.8247 23.7119 38.6827 24.1958 39.6267 24.1958C40.0067 24.1958 40.3758 24.1154 40.7125 23.9703V24.3355L35.4582 25.9628C33.4063 26.5965 32.0278 28.4501 32.0278 30.5769V37.0876C32.0278 37.3834 32.2723 37.6245 32.5704 37.6245H54.281C54.5798 37.6245 54.8235 37.3826 54.8235 37.0876V30.5769C54.8235 28.4494 53.4451 26.5965 51.3932 25.9628L51.3939 25.962ZM37.4391 36.5498C37.4068 36.0878 37.2601 35.6531 37.0046 35.2824C36.6087 34.7025 36.3698 33.972 36.3698 33.3273C36.3698 32.4141 36.8366 31.4791 37.298 31.0226L36.5275 30.26C35.9305 30.8563 35.2847 32.0653 35.2847 33.3273C35.2847 34.1811 35.5938 35.1372 36.1096 35.8896C36.2452 36.0831 36.3264 36.3087 36.354 36.5506H33.1137V30.5769C33.1137 28.9223 34.183 27.4831 35.7783 26.9883L39.6156 25.8012L37.5858 28.1434C37.4013 28.358 37.4123 28.6749 37.6126 28.8739L38.7742 30.0181L37.6993 30.7322C37.4604 30.8883 37.3847 31.1888 37.5203 31.4362L40.3427 36.5498H37.4391ZM40.7117 34.9811L38.7143 31.3496L39.9247 30.5488C40.0604 30.463 40.1526 30.3178 40.1692 30.157C40.1802 29.9962 40.1258 29.8347 40.0115 29.7223L38.7363 28.465L40.7117 26.1821V34.9811ZM43.4253 22.0456C40.733 22.0456 38.5408 19.8751 38.5408 17.2114V13.9725C40.8316 13.8593 43.0128 13.0375 44.6791 11.6568C45.4606 12.6449 46.7902 13.3005 48.3106 13.4293V17.2106C48.3106 19.8751 46.1175 22.0448 43.4261 22.0448L43.4253 22.0456ZM50.4815 13.4511V15.1432C50.4815 15.3094 50.5628 15.471 50.6984 15.5732C50.834 15.6754 51.0075 15.7074 51.1708 15.6591C51.3174 15.6216 51.442 15.5997 51.5666 15.5997C52.4625 15.5997 53.1951 16.3248 53.1951 17.2114C53.1951 17.8935 52.755 18.5007 52.0989 18.7208C51.9412 18.7801 51.8166 18.9035 51.7622 19.0642C51.7078 19.2203 51.7354 19.3975 51.8324 19.5372C52.0114 19.8002 52.1092 20.1069 52.1092 20.434C52.1092 21.3206 51.3766 22.0456 50.4808 22.0456C50.1551 22.0456 49.8404 21.9543 49.5747 21.7717C49.4335 21.6804 49.26 21.6538 49.1023 21.7069C48.9391 21.7608 48.8145 21.8841 48.7545 22.0402C48.5322 22.6848 47.9131 23.1195 47.2239 23.1195C46.8225 23.1195 46.4369 22.9635 46.138 22.695V22.4694C48.07 21.486 49.3949 19.499 49.3949 17.2106V12.9134C49.3949 12.6176 49.1504 12.3764 48.8523 12.3764C47.425 12.3764 46.1278 11.8012 45.4764 10.9208C45.5576 10.835 45.6341 10.7546 45.7043 10.6687C46.4913 9.78759 47.067 8.76674 47.4029 7.69281C49.2592 8.95015 50.4815 11.0613 50.4815 13.4511ZM40.7117 22.6957C40.4129 22.9642 40.028 23.1203 39.6259 23.1203C38.9366 23.1203 38.3176 22.6848 38.0952 22.0409C38.0353 21.8848 37.9107 21.7615 37.7474 21.7077C37.5897 21.6538 37.4107 21.6811 37.2751 21.7725C37.0093 21.9551 36.6947 22.0464 36.369 22.0464C35.4732 22.0464 34.7406 21.3213 34.7406 20.4347C34.7406 20.1069 34.8384 19.801 35.0174 19.538C35.1151 19.3983 35.142 19.2211 35.0875 19.065C35.0331 18.9035 34.9085 18.7801 34.7508 18.7216C34.0939 18.5015 33.6547 17.8943 33.6547 17.2122C33.6547 16.3256 34.3873 15.6005 35.2831 15.6005C35.4077 15.6005 35.5331 15.6224 35.679 15.6598C35.8422 15.7082 36.0157 15.6762 36.1513 15.574C36.287 15.4717 36.3682 15.311 36.3682 15.1439V13.4519C36.3682 11.5936 37.1008 9.83676 38.4359 8.51543C39.771 7.19409 41.5461 6.46904 43.4237 6.46904C44.4985 6.46904 45.5135 6.71645 46.4251 7.14024C46.1427 8.15563 45.627 9.12809 44.8834 9.96554C44.7422 10.1271 44.5955 10.2824 44.4165 10.4486C42.7723 12.0174 40.4326 12.9141 37.9959 12.9141C37.697 12.9141 37.4533 13.1561 37.4533 13.4511V17.2114C37.4533 19.4997 38.7773 21.4876 40.7102 22.4702V22.6957H40.7117ZM45.0537 36.5498H41.7968V27.9389C42.2526 28.2831 42.8117 28.4923 43.4253 28.4923C44.0388 28.4923 44.5979 28.2831 45.0537 27.9389V36.5498ZM45.0537 25.8059C45.0537 26.6925 44.3211 27.4176 43.4253 27.4176C42.5294 27.4176 41.7968 26.6925 41.7968 25.8059V22.8893C42.3181 23.0345 42.8606 23.1203 43.4253 23.1203C43.9899 23.1203 44.5324 23.0345 45.0537 22.8893V25.8059ZM46.1396 26.1821L48.115 28.465L46.8399 29.7223C46.7255 29.8355 46.6719 29.9962 46.6821 30.157C46.6987 30.3178 46.791 30.463 46.9266 30.5488L48.1371 31.3496L46.1396 34.9811V26.1821ZM53.7384 36.5498H50.4981C50.5249 36.3079 50.6069 36.0823 50.7426 35.8888C51.2583 35.1364 51.5674 34.1803 51.5674 33.3265C51.5674 32.0637 50.9216 30.8555 50.3246 30.2593L49.5542 31.0218C50.0155 31.4784 50.4823 32.4134 50.4823 33.3265C50.4823 33.9712 50.2434 34.7017 49.842 35.2816C49.592 35.6523 49.4461 36.087 49.413 36.5491H46.5094L49.3318 31.4354C49.4674 31.188 49.3917 30.8875 49.1528 30.7315L48.0779 30.0173L49.2395 28.8732C49.4406 28.6741 49.4509 28.3573 49.2663 28.1426L47.2365 25.8005L51.0738 26.9875C52.6699 27.4816 53.7384 28.9215 53.7384 30.5761V36.5498Z" fill="#382823"/>
<path d="M41.2638 15.2285H40.1685V16.3126H41.2638V15.2285Z" fill="#382823"/>
<path d="M46.7413 15.2285H45.646V16.3126H46.7413V15.2285Z" fill="#382823"/>
<path d="M45.6455 18.4814H44.5502C44.5502 19.0793 44.0589 19.5655 43.4549 19.5655C42.8508 19.5655 42.3595 19.0793 42.3595 18.4814H41.2642C41.2642 19.6771 42.2467 20.6496 43.4549 20.6496C44.663 20.6496 45.6455 19.6771 45.6455 18.4814Z" fill="#382823"/>
<path d="M23.1687 21.9248L16.972 20.0049V19.0059H15.6914V20.0806L13.7712 21.0312L11.851 20.0806V19.0059H10.5703V20.0049L4.37357 21.9248C1.95419 22.6725 0.328125 24.8578 0.328125 27.367V36.9465C0.328125 37.2946 0.615959 37.5802 0.968457 37.5802H26.5739C26.9256 37.5802 27.2142 37.2954 27.2142 36.9465V27.367C27.2142 24.8578 25.5881 22.6725 23.1687 21.9248ZM13.7712 22.5203L14.8405 23.2805L14.0148 24.9085H13.5283L12.7026 23.2805L13.7712 22.5203ZM11.2745 36.3127H6.72987V26.8098H5.44999V36.3127H1.60879V27.367C1.60879 25.4158 2.86974 23.7175 4.7521 23.1353L8.65087 21.9318V24.9093C8.65087 25.1435 8.78572 25.3651 8.99627 25.4728C9.09248 25.5173 9.18868 25.5423 9.29041 25.5423C9.41816 25.5423 9.55301 25.504 9.66183 25.4221L11.6459 24.0219L12.4716 25.6562L11.2745 36.3127ZM9.92996 23.6801V21.5322L11.1523 21.1521L12.5347 21.8366L9.92996 23.6801ZM12.567 36.3127L13.7065 26.176H13.8342L14.9738 36.3127H12.567ZM16.3885 21.1521L17.6108 21.5322V23.6801L15.0053 21.8366L16.3885 21.1521ZM25.9327 36.3127H22.0915V26.8098H20.8109V36.3127H16.2662L15.0692 25.6562L15.8948 24.0219L17.8789 25.4221C17.9877 25.5048 18.1218 25.5423 18.2503 25.5423C18.3528 25.5423 18.4491 25.5165 18.5445 25.4728C18.7558 25.3651 18.8899 25.1435 18.8899 24.9093V21.9318L22.7886 23.1353C24.671 23.7183 25.932 25.4158 25.932 27.367L25.9327 36.3127Z" fill="#382823"/>
<g clip-path="url(#clip0_87_15937)">
<path d="M22.5596 23.133V18.8305L28.2558 17.1333L32.7401 18.8305L33.2249 21.4358L32.013 24.3446L29.4678 26.4655L29.8314 28.4047V29.0713V30.2832L26.4379 31.0104L25.1653 29.0713L25.8319 28.4047V26.1019L24.3169 25.2535L22.5596 23.133Z" fill="white"/>
<path d="M25.8345 20.6982H24.8525V21.6701H25.8345V20.6982Z" fill="#382823"/>
<path d="M30.7412 20.6982H29.7593V21.6701H30.7412V20.6982Z" fill="#382823"/>
<path d="M29.7593 23.0098H28.7774C28.7774 23.5451 28.3371 23.9816 27.7954 23.9816C27.2538 23.9816 26.8135 23.5459 26.8135 23.0098H25.8315C25.8315 24.0812 26.7121 24.9527 27.7947 24.9527C28.8773 24.9527 29.7578 24.0812 29.7578 23.0098H29.7593Z" fill="#382823"/>
<path d="M20.8282 24.1696H19.3428V19.3638L19.867 18.2279L20.8282 17.4408H21.9642L23.0127 16.5676L25.0227 13.9462L27.5567 13.0718L30.5276 13.5959L31.9256 15.519L32.7996 17.4408H35.0714L36.557 19.3638V23.7329C36.324 23.4996 35.8579 23.2605 35.8579 24.1696C35.8579 25.0787 33.819 23.7908 32.7996 23.0332V19.0141L28.6051 17.4408L23.0127 19.0141L21.9642 23.0332L20.8282 24.1696Z" fill="#A1BBFF"/>
<path d="M25.0227 28.5391L21.9642 30.3737L19.3428 33.5194V36.9273H36.557V34.3058L35.8579 32.3834L32.7996 29.762L30.5276 28.5391L29.3043 30.3737L27.5567 30.898L25.9838 30.3737L25.0227 28.5391Z" fill="#FFBC6E"/>
<path d="M33.7092 29.7342L30.1761 28.0029C30.0682 27.9495 29.9987 27.8408 29.9987 27.7227V26.8267C29.9987 26.7043 30.0735 26.5956 30.1858 26.5423C31.3627 25.9976 32.3173 25.0566 32.8764 23.8919C32.9192 23.802 33.0036 23.7372 33.103 23.7173C33.1244 23.7131 33.1458 23.7111 33.1661 23.7111C33.2452 23.7111 33.3211 23.7393 33.381 23.7916C33.9582 24.3007 34.6926 24.5809 35.4495 24.5809H36.3047C36.5997 24.5809 36.8392 24.3467 36.8392 24.0582V19.8761C36.8392 18.2012 35.4516 16.8441 33.7391 16.8441H33.4911C33.35 16.8441 33.2249 16.7553 33.1843 16.6225C32.8401 15.5017 32.1217 14.4928 31.1628 13.7829C30.1751 13.05 28.9949 12.6621 27.7549 12.6621C26.5149 12.6621 25.3347 13.05 24.3448 13.7829C23.3859 14.4928 22.6676 15.5017 22.3233 16.6225C22.2827 16.7542 22.1576 16.8441 22.0165 16.8441H21.7685C20.056 16.8441 18.6685 18.2012 18.6685 19.8761V24.0582C18.6685 24.3467 18.9079 24.5809 19.203 24.5809H20.0581C20.815 24.5809 21.5494 24.3007 22.1266 23.7916C22.1865 23.7393 22.2624 23.7111 22.3415 23.7111C22.3629 23.7111 22.3843 23.7131 22.4046 23.7173C22.504 23.7372 22.5884 23.802 22.6312 23.8919C23.1903 25.0556 24.1449 25.9965 25.3219 26.5423C25.4352 26.5946 25.5089 26.7033 25.5089 26.8267V27.7227C25.5089 27.8419 25.4405 27.9495 25.3315 28.0029L21.7995 29.7342C19.8689 30.6741 18.6685 32.5728 18.6685 34.6889V37.0988C18.6685 37.403 18.9207 37.6498 19.2318 37.6498H36.279C36.5901 37.6498 36.8424 37.403 36.8424 37.0988V34.6889C36.8424 32.5728 35.6408 30.6741 33.7092 29.7342ZM33.4205 18.2033C33.4205 18.0298 33.5638 17.8897 33.7412 17.8897C34.8615 17.8897 35.7723 18.7804 35.7723 19.8761V23.2218C35.7723 23.3953 35.6291 23.5354 35.4516 23.5354C34.3313 23.5354 33.4205 22.6446 33.4205 21.5489V18.2033ZM22.0892 21.5489C22.0892 22.6446 21.1784 23.5354 20.0581 23.5354C19.8807 23.5354 19.7374 23.3953 19.7374 23.2218V19.8761C19.7374 18.7804 20.6482 17.8897 21.7685 17.8897C21.946 17.8897 22.0892 18.0298 22.0892 18.2033V21.5489ZM29.1446 14.3726C29.1446 14.267 29.1991 14.1676 29.29 14.1101C29.3434 14.0767 29.4043 14.0589 29.4653 14.0589C29.5091 14.0589 29.5529 14.0673 29.5935 14.085C31.104 14.7322 32.1431 16.1384 32.3066 17.7537C32.3173 17.8625 32.2692 17.9691 32.1805 18.035C32.1238 18.0768 32.0565 18.0977 31.9881 18.0977C31.9475 18.0977 31.9079 18.0904 31.8694 18.0758L29.3466 17.0888C29.2247 17.0407 29.1446 16.9257 29.1446 16.7971V14.3726ZM27.7549 13.7076C27.9323 13.7076 28.0756 13.8477 28.0756 14.0213V16.7396C28.0756 16.8797 27.9804 17.0031 27.8425 17.0417L23.5922 18.2211C23.5634 18.2294 23.5334 18.2326 23.5046 18.2326C23.4319 18.2326 23.3603 18.2085 23.3025 18.1625C23.2213 18.0977 23.1775 17.9994 23.1849 17.897C23.3517 15.5477 25.3593 13.7076 27.7549 13.7076ZM23.1582 21.5489V19.667C23.1582 19.5269 23.2534 19.4036 23.3913 19.3649L25.1016 18.8881C25.1113 18.885 25.122 18.8829 25.1326 18.8808L26.3492 18.541C26.3588 18.5389 26.3673 18.5358 26.377 18.5347L28.4797 17.9503C28.5085 17.9419 28.5374 17.9388 28.5673 17.9388C28.6079 17.9388 28.6486 17.9461 28.686 17.9607L32.1495 19.3157C32.2714 19.3638 32.3515 19.4788 32.3515 19.6074V21.5479C32.3515 24.0268 30.2895 26.0436 27.7549 26.0436C25.2203 26.0436 23.1582 24.0278 23.1582 21.5489ZM29.2173 28.7013C29.2173 28.7013 29.2258 28.7054 29.2301 28.7075L29.3926 28.7912C29.4695 28.8309 29.5262 28.8989 29.5508 28.9794C29.5754 29.0599 29.5658 29.1477 29.523 29.2219C29.1692 29.8419 28.4914 30.2277 27.7549 30.2277C27.0183 30.2277 26.3406 29.8419 25.9868 29.2219C25.9451 29.1477 25.9344 29.0609 25.959 28.9794C25.9836 28.8989 26.0402 28.8309 26.1172 28.7912L26.2797 28.7075C26.2797 28.7075 26.2882 28.7034 26.2925 28.7013C26.4667 28.6208 26.579 28.4399 26.579 28.2402V27.3369C26.579 27.2459 26.6196 27.1591 26.6902 27.0995C26.749 27.0504 26.8227 27.0232 26.8997 27.0232C26.9157 27.0232 26.9318 27.0243 26.9478 27.0264C27.2354 27.0692 27.4994 27.0901 27.7549 27.0901C28.0104 27.0901 28.2744 27.0692 28.562 27.0264C28.578 27.0243 28.594 27.0232 28.6101 27.0232C28.686 27.0232 28.7608 27.0494 28.8196 27.0995C28.8902 27.1591 28.9308 27.2459 28.9308 27.3369V28.2402C28.9308 28.4399 29.043 28.6208 29.2173 28.7013ZM22.0892 36.162C22.0892 36.3356 21.946 36.4757 21.7685 36.4757H20.0581C19.8807 36.4757 19.7374 36.3356 19.7374 36.162V34.6889C19.7374 33.2586 20.4077 31.9507 21.5772 31.0997C21.6338 31.0589 21.7012 31.038 21.7685 31.038C21.8177 31.038 21.8669 31.0495 21.9128 31.0714C22.0208 31.1248 22.0892 31.2335 22.0892 31.3516V36.162ZM32.3515 36.162C32.3515 36.3356 32.2083 36.4757 32.0308 36.4757H23.4789C23.3015 36.4757 23.1582 36.3356 23.1582 36.162V30.4316C23.1582 30.3124 23.2266 30.2037 23.3357 30.1514L24.6014 29.5324C24.6473 29.5094 24.6965 29.499 24.7446 29.499C24.8601 29.499 24.9712 29.5607 25.029 29.6673C25.5592 30.6574 26.6036 31.2722 27.7549 31.2722C28.9062 31.2722 29.9517 30.6574 30.4808 29.6673C30.5385 29.5607 30.6497 29.499 30.7652 29.499C30.8133 29.499 30.8624 29.5094 30.9084 29.5324L32.1741 30.1514C32.2831 30.2047 32.3515 30.3134 32.3515 30.4316V36.162ZM35.7723 36.162C35.7723 36.3356 35.6291 36.4757 35.4516 36.4757H33.7412C33.5638 36.4757 33.4205 36.3356 33.4205 36.162V31.3516C33.4205 31.2335 33.489 31.1248 33.5969 31.0714C33.6429 31.0495 33.6921 31.038 33.7412 31.038C33.8086 31.038 33.8759 31.0589 33.9326 31.0997C35.1021 31.9507 35.7723 33.2586 35.7723 34.6889V36.162Z" fill="#382823" stroke="#382823" stroke-width="0.3"/>
</g>
<defs>
<clipPath id="clip0_87_15937">
<rect width="18.1729" height="24.9877" fill="white" transform="translate(18.6685 12.6621)"/>
</clipPath>
</defs>
</svg>
