<svg width="16" height="16" viewBox="0 0 16 16" fill="none" xmlns="http://www.w3.org/2000/svg">
<path d="M1.33337 5.66667L7.76153 2.45259C7.84898 2.40887 7.89271 2.387 7.93857 2.3784C7.9792 2.37078 8.02088 2.37078 8.06151 2.3784C8.10737 2.387 8.1511 2.40887 8.23855 2.45259L14.6667 5.66671L12.663 6.66856V11.2063C12.663 11.4542 12.663 11.5782 12.6243 11.6867C12.5901 11.7827 12.5344 11.8695 12.4614 11.9406C12.3788 12.021 12.2661 12.0726 12.0408 12.1759L8.44447 13.7963C8.28098 13.8712 8.19924 13.9087 8.11408 13.9235C8.03862 13.9366 7.96146 13.9366 7.886 13.9235C7.80084 13.9087 7.7191 13.8712 7.55561 13.7963L3.95932 12.1759L3.95931 12.1759C3.73393 12.0726 3.62123 12.021 3.53867 11.9406C3.46569 11.8695 3.40996 11.7827 3.37577 11.6867C3.33709 11.5782 3.33709 11.4542 3.33709 11.2063V6.66856L1.33337 5.66667Z" fill="white"/>
<path d="M14.6667 5.66671L8.23855 2.45259C8.1511 2.40887 8.10737 2.387 8.06151 2.3784C8.02088 2.37078 7.9792 2.37078 7.93857 2.3784C7.89271 2.387 7.84898 2.40887 7.76153 2.45259L1.33337 5.66667L3.66671 6.83337M14.6667 5.66671V6.66856V8.33709M14.6667 5.66671L12.3334 6.83337M3.33709 6.66853V11.2063C3.33709 11.4542 3.33709 11.5782 3.37577 11.6867C3.40996 11.7827 3.46569 11.8695 3.53867 11.9406C3.62123 12.021 3.73394 12.0726 3.95932 12.1759L7.55561 13.7963C7.7191 13.8712 7.80084 13.9087 7.886 13.9235C7.96146 13.9366 8.03862 13.9366 8.11408 13.9235C8.19924 13.9087 8.28098 13.8712 8.44447 13.7963L12.0408 12.1759C12.2661 12.0726 12.3788 12.021 12.4614 11.9406C12.5344 11.8695 12.5901 11.7827 12.6243 11.6867C12.663 11.5782 12.663 11.4542 12.663 11.2063V6.66853" stroke="white" stroke-linecap="round" stroke-linejoin="round"/>
<path d="M12 7L8.23851 8.8807C8.15106 8.92443 8.10733 8.9463 8.06147 8.9549C8.02084 8.96252 7.97916 8.96252 7.93853 8.9549C7.89267 8.9463 7.84894 8.92443 7.76149 8.8807L4 7" stroke="#04B2A8" stroke-linecap="round" stroke-linejoin="round"/>
</svg>
